G04 Layer_Color=16711935*
%FSLAX25Y25*%
%MOIN*%
G70*
G01*
G75*
%ADD13C,0.01000*%
%ADD27O,0.06312X0.08674*%
%ADD28C,0.05131*%
%ADD29R,0.06706X0.06706*%
%ADD30C,0.06706*%
%ADD31C,0.05800*%
%ADD32R,0.05800X0.05800*%
%ADD33R,0.06706X0.06706*%
%ADD34C,0.06312*%
%ADD35R,0.06312X0.06312*%
%ADD36R,0.02375X0.07099*%
%ADD37O,0.09461X0.03162*%
%ADD38O,0.06706X0.02178*%
D13*
X0Y252000D02*
X252000D01*
Y0D02*
Y252000D01*
X0Y0D02*
X252000D01*
X0D02*
Y252000D01*
D27*
X200624Y8928D02*
D03*
X172081D02*
D03*
D28*
X176753Y20750D02*
D03*
X195847D02*
D03*
D29*
X73600Y33100D02*
D03*
X172300Y220106D02*
D03*
D30*
X63600Y33100D02*
D03*
X53600D02*
D03*
X5000Y106000D02*
D03*
Y116000D02*
D03*
Y126000D02*
D03*
Y136000D02*
D03*
X247000Y106000D02*
D03*
Y116000D02*
D03*
Y126000D02*
D03*
Y136000D02*
D03*
X202300Y220106D02*
D03*
X192300D02*
D03*
X182300D02*
D03*
D31*
X158700Y210000D02*
D03*
D32*
Y220000D02*
D03*
D33*
X5000Y146000D02*
D03*
X247000D02*
D03*
D34*
X236244Y98000D02*
D03*
Y88000D02*
D03*
X141756D02*
D03*
Y78000D02*
D03*
Y68000D02*
D03*
Y58000D02*
D03*
Y48000D02*
D03*
Y38000D02*
D03*
X236244Y78000D02*
D03*
Y68000D02*
D03*
Y58000D02*
D03*
Y48000D02*
D03*
Y38000D02*
D03*
Y28000D02*
D03*
X141756D02*
D03*
X236244Y224000D02*
D03*
Y214000D02*
D03*
X141756D02*
D03*
Y204000D02*
D03*
Y194000D02*
D03*
Y184000D02*
D03*
Y174000D02*
D03*
Y164000D02*
D03*
X236244Y204000D02*
D03*
Y194000D02*
D03*
Y184000D02*
D03*
Y174000D02*
D03*
Y164000D02*
D03*
Y154000D02*
D03*
X141756D02*
D03*
X110244Y224000D02*
D03*
Y214000D02*
D03*
X15756D02*
D03*
Y204000D02*
D03*
Y194000D02*
D03*
Y184000D02*
D03*
Y174000D02*
D03*
Y164000D02*
D03*
X110244Y204000D02*
D03*
Y194000D02*
D03*
Y184000D02*
D03*
Y174000D02*
D03*
Y164000D02*
D03*
Y154000D02*
D03*
X15756D02*
D03*
X110244Y98000D02*
D03*
Y88000D02*
D03*
X15756D02*
D03*
Y78000D02*
D03*
Y68000D02*
D03*
Y58000D02*
D03*
Y48000D02*
D03*
Y38000D02*
D03*
X110244Y78000D02*
D03*
Y68000D02*
D03*
Y58000D02*
D03*
Y48000D02*
D03*
Y38000D02*
D03*
Y28000D02*
D03*
X15756D02*
D03*
D35*
X141756Y98000D02*
D03*
Y224000D02*
D03*
X15756D02*
D03*
Y98000D02*
D03*
D36*
X191418Y22400D02*
D03*
X181182D02*
D03*
X188859D02*
D03*
X186300D02*
D03*
X183741D02*
D03*
D37*
X197036Y54600D02*
D03*
Y59600D02*
D03*
Y64600D02*
D03*
Y69600D02*
D03*
Y74600D02*
D03*
Y79600D02*
D03*
Y84600D02*
D03*
Y89600D02*
D03*
X176564D02*
D03*
Y84600D02*
D03*
Y79600D02*
D03*
Y74600D02*
D03*
Y69600D02*
D03*
Y64600D02*
D03*
Y59600D02*
D03*
Y54600D02*
D03*
X72536Y50800D02*
D03*
Y55800D02*
D03*
Y60800D02*
D03*
Y65800D02*
D03*
Y70800D02*
D03*
Y75800D02*
D03*
Y80800D02*
D03*
Y85800D02*
D03*
X52064D02*
D03*
Y80800D02*
D03*
Y75800D02*
D03*
Y70800D02*
D03*
Y65800D02*
D03*
Y60800D02*
D03*
Y55800D02*
D03*
Y50800D02*
D03*
Y206500D02*
D03*
Y201500D02*
D03*
Y196500D02*
D03*
Y191500D02*
D03*
Y186500D02*
D03*
Y181500D02*
D03*
Y176500D02*
D03*
Y171500D02*
D03*
X72536D02*
D03*
Y176500D02*
D03*
Y181500D02*
D03*
Y186500D02*
D03*
Y191500D02*
D03*
Y196500D02*
D03*
Y201500D02*
D03*
Y206500D02*
D03*
Y111150D02*
D03*
Y116150D02*
D03*
Y121150D02*
D03*
Y126150D02*
D03*
Y131150D02*
D03*
Y136150D02*
D03*
Y141150D02*
D03*
Y146150D02*
D03*
X52064D02*
D03*
Y141150D02*
D03*
Y136150D02*
D03*
Y131150D02*
D03*
Y126150D02*
D03*
Y121150D02*
D03*
Y116150D02*
D03*
Y111150D02*
D03*
D38*
X197627Y200516D02*
D03*
Y197957D02*
D03*
Y195398D02*
D03*
Y192839D02*
D03*
Y190279D02*
D03*
Y187721D02*
D03*
Y185161D02*
D03*
Y182602D02*
D03*
Y180043D02*
D03*
Y177484D02*
D03*
X175186Y200516D02*
D03*
Y197957D02*
D03*
Y195398D02*
D03*
Y192839D02*
D03*
Y190279D02*
D03*
Y187721D02*
D03*
Y185161D02*
D03*
Y182602D02*
D03*
Y180043D02*
D03*
Y177484D02*
D03*
M02*
