G04 Layer_Color=65535*
%FSLAX25Y25*%
%MOIN*%
G70*
G01*
G75*
%ADD13C,0.01000*%
D13*
X126516Y56735D02*
X127496Y56812D01*
X128452Y57042D01*
X129360Y57418D01*
X130198Y57932D01*
X130946Y58570D01*
X131584Y59317D01*
X132098Y60156D01*
X132474Y61064D01*
X132704Y62020D01*
X132781Y63000D01*
X132704Y63980D01*
X132474Y64936D01*
X132098Y65844D01*
X131584Y66682D01*
X130946Y67430D01*
X130198Y68068D01*
X129360Y68582D01*
X128452Y68958D01*
X127496Y69188D01*
X126516Y69265D01*
Y182735D02*
X127496Y182812D01*
X128452Y183042D01*
X129360Y183418D01*
X130198Y183932D01*
X130946Y184570D01*
X131584Y185318D01*
X132098Y186156D01*
X132474Y187064D01*
X132704Y188020D01*
X132781Y189000D01*
X132704Y189980D01*
X132474Y190936D01*
X132098Y191844D01*
X131584Y192683D01*
X130946Y193430D01*
X130198Y194069D01*
X129360Y194582D01*
X128452Y194958D01*
X127496Y195188D01*
X126516Y195265D01*
X516Y182735D02*
X1496Y182812D01*
X2452Y183042D01*
X3360Y183418D01*
X4198Y183932D01*
X4946Y184570D01*
X5584Y185318D01*
X6098Y186156D01*
X6474Y187064D01*
X6704Y188020D01*
X6781Y189000D01*
X6704Y189980D01*
X6474Y190936D01*
X6098Y191844D01*
X5584Y192683D01*
X4946Y193430D01*
X4198Y194069D01*
X3360Y194582D01*
X2452Y194958D01*
X1496Y195188D01*
X516Y195265D01*
Y56735D02*
X1496Y56812D01*
X2452Y57042D01*
X3360Y57418D01*
X4198Y57932D01*
X4946Y58570D01*
X5584Y59317D01*
X6098Y60156D01*
X6474Y61064D01*
X6704Y62020D01*
X6781Y63000D01*
X6704Y63980D01*
X6474Y64936D01*
X6098Y65844D01*
X5584Y66682D01*
X4946Y67430D01*
X4198Y68068D01*
X3360Y68582D01*
X2452Y68958D01*
X1496Y69188D01*
X516Y69265D01*
X162000Y125500D02*
X214000D01*
X162000Y500D02*
X214000D01*
X246500D02*
X251484D01*
X126516D02*
X131500D01*
X246500Y125484D02*
X251484D01*
X126516Y125500D02*
X131500D01*
X251484Y500D02*
Y125484D01*
X126516Y500D02*
Y125500D01*
X162000Y251500D02*
X214000D01*
X162000Y126500D02*
X214000D01*
X246500D02*
X251484D01*
X126516D02*
X131500D01*
X246500Y251484D02*
X251484D01*
X126516Y251500D02*
X131500D01*
X251484Y126500D02*
Y251484D01*
X126516Y126500D02*
Y251500D01*
X36000D02*
X88000D01*
X36000Y126500D02*
X88000D01*
X120500D02*
X125484D01*
X516D02*
X5500D01*
X120500Y251484D02*
X125484D01*
X516Y251500D02*
X5500D01*
X125484Y126500D02*
Y251484D01*
X516Y126500D02*
Y251500D01*
X36000Y125500D02*
X88000D01*
X36000Y500D02*
X88000D01*
X120500D02*
X125484D01*
X516D02*
X5500D01*
X120500Y125484D02*
X125484D01*
X516Y125500D02*
X5500D01*
X125484Y500D02*
Y125484D01*
X516Y500D02*
Y125500D01*
X177300Y122498D02*
Y116500D01*
X181299D01*
X187297Y122498D02*
X183298D01*
Y116500D01*
X187297D01*
X183298Y119499D02*
X185297D01*
X189296Y122498D02*
Y116500D01*
X192295D01*
X193295Y117500D01*
Y121498D01*
X192295Y122498D01*
X189296D01*
X198293Y116500D02*
Y122498D01*
X195294Y119499D01*
X199293D01*
X45700Y121898D02*
Y115900D01*
X49699D01*
X55697Y121898D02*
X51698D01*
Y115900D01*
X55697D01*
X51698Y118899D02*
X53697D01*
X57696Y121898D02*
Y115900D01*
X60695D01*
X61695Y116900D01*
Y120898D01*
X60695Y121898D01*
X57696D01*
X63694Y120898D02*
X64694Y121898D01*
X66693D01*
X67693Y120898D01*
Y119899D01*
X66693Y118899D01*
X65693D01*
X66693D01*
X67693Y117899D01*
Y116900D01*
X66693Y115900D01*
X64694D01*
X63694Y116900D01*
X174400Y247398D02*
Y241400D01*
X178399D01*
X184397Y247398D02*
X180398D01*
Y241400D01*
X184397D01*
X180398Y244399D02*
X182397D01*
X186396Y247398D02*
Y241400D01*
X189395D01*
X190395Y242400D01*
Y246398D01*
X189395Y247398D01*
X186396D01*
X196393Y241400D02*
X192394D01*
X196393Y245399D01*
Y246398D01*
X195393Y247398D01*
X193394D01*
X192394Y246398D01*
X48400Y247898D02*
Y241900D01*
X52399D01*
X58397Y247898D02*
X54398D01*
Y241900D01*
X58397D01*
X54398Y244899D02*
X56397D01*
X60396Y247898D02*
Y241900D01*
X63395D01*
X64395Y242900D01*
Y246898D01*
X63395Y247898D01*
X60396D01*
X66394Y241900D02*
X68393D01*
X67394D01*
Y247898D01*
X66394Y246898D01*
X0Y252000D02*
X252000D01*
Y0D02*
Y252000D01*
X0Y0D02*
X252000D01*
X0D02*
Y252000D01*
M02*
