G04 Layer_Color=2752767*
%FSLAX25Y25*%
%MOIN*%
G70*
G01*
G75*
%ADD13C,0.01000*%
%ADD42C,0.00200*%
%ADD43C,0.00267*%
D13*
X0Y252000D02*
X252000D01*
Y0D02*
Y252000D01*
X0Y0D02*
X252000D01*
X0D02*
Y252000D01*
D42*
X199824Y8128D02*
Y9728D01*
X201424D01*
Y8128D01*
X199824D01*
X171281D02*
Y9728D01*
X172881D01*
Y8128D01*
X171281D01*
X73600Y32300D02*
X72800Y33900D01*
X74400D01*
X73600Y32300D01*
X63600D02*
X62800Y33900D01*
X64400D01*
X63600Y32300D01*
X53600D02*
X52800Y33900D01*
X54400D01*
X53600Y32300D01*
X158700Y209200D02*
X159100Y209600D01*
X159500D01*
X159100Y210000D01*
X159500Y210400D01*
X159100D01*
X158700Y210800D01*
X158300Y210400D01*
X157900D01*
X158300Y210000D01*
X157900Y209600D01*
X158300D01*
X158700Y209200D01*
Y219200D02*
X159100Y219600D01*
X159500D01*
X159100Y220000D01*
X159500Y220400D01*
X159100D01*
X158700Y220800D01*
X158300Y220400D01*
X157900D01*
X158300Y220000D01*
X157900Y219600D01*
X158300D01*
X158700Y219200D01*
X5000Y105200D02*
X4200Y106800D01*
X5800D01*
X5000Y105200D01*
Y115200D02*
X4200Y116800D01*
X5800D01*
X5000Y115200D01*
Y125200D02*
X4200Y126800D01*
X5800D01*
X5000Y125200D01*
Y135200D02*
X4200Y136800D01*
X5800D01*
X5000Y135200D01*
Y145200D02*
X4200Y146800D01*
X5800D01*
X5000Y145200D01*
X247000Y105200D02*
X246200Y106800D01*
X247800D01*
X247000Y105200D01*
Y115200D02*
X246200Y116800D01*
X247800D01*
X247000Y115200D01*
Y125200D02*
X246200Y126800D01*
X247800D01*
X247000Y125200D01*
Y135200D02*
X246200Y136800D01*
X247800D01*
X247000Y135200D01*
Y145200D02*
X246200Y146800D01*
X247800D01*
X247000Y145200D01*
X202300Y219306D02*
X201500Y220906D01*
X203100D01*
X202300Y219306D01*
X192300D02*
X191500Y220906D01*
X193100D01*
X192300Y219306D01*
X182300D02*
X181500Y220906D01*
X183100D01*
X182300Y219306D01*
X172300D02*
X171500Y220906D01*
X173100D01*
X172300Y219306D01*
X235444Y97200D02*
X235844Y98000D01*
X235444Y98800D01*
X236244Y98400D01*
X237044Y98800D01*
X236644Y98000D01*
X237044Y97200D01*
X236244Y97600D01*
X235444Y97200D01*
Y87200D02*
X235844Y88000D01*
X235444Y88800D01*
X236244Y88400D01*
X237044Y88800D01*
X236644Y88000D01*
X237044Y87200D01*
X236244Y87600D01*
X235444Y87200D01*
X140956Y97200D02*
X141356Y98000D01*
X140956Y98800D01*
X141756Y98400D01*
X142556Y98800D01*
X142156Y98000D01*
X142556Y97200D01*
X141756Y97600D01*
X140956Y97200D01*
Y87200D02*
X141356Y88000D01*
X140956Y88800D01*
X141756Y88400D01*
X142556Y88800D01*
X142156Y88000D01*
X142556Y87200D01*
X141756Y87600D01*
X140956Y87200D01*
Y77200D02*
X141356Y78000D01*
X140956Y78800D01*
X141756Y78400D01*
X142556Y78800D01*
X142156Y78000D01*
X142556Y77200D01*
X141756Y77600D01*
X140956Y77200D01*
Y67200D02*
X141356Y68000D01*
X140956Y68800D01*
X141756Y68400D01*
X142556Y68800D01*
X142156Y68000D01*
X142556Y67200D01*
X141756Y67600D01*
X140956Y67200D01*
Y57200D02*
X141356Y58000D01*
X140956Y58800D01*
X141756Y58400D01*
X142556Y58800D01*
X142156Y58000D01*
X142556Y57200D01*
X141756Y57600D01*
X140956Y57200D01*
Y47200D02*
X141356Y48000D01*
X140956Y48800D01*
X141756Y48400D01*
X142556Y48800D01*
X142156Y48000D01*
X142556Y47200D01*
X141756Y47600D01*
X140956Y47200D01*
Y37200D02*
X141356Y38000D01*
X140956Y38800D01*
X141756Y38400D01*
X142556Y38800D01*
X142156Y38000D01*
X142556Y37200D01*
X141756Y37600D01*
X140956Y37200D01*
X235444Y77200D02*
X235844Y78000D01*
X235444Y78800D01*
X236244Y78400D01*
X237044Y78800D01*
X236644Y78000D01*
X237044Y77200D01*
X236244Y77600D01*
X235444Y77200D01*
Y67200D02*
X235844Y68000D01*
X235444Y68800D01*
X236244Y68400D01*
X237044Y68800D01*
X236644Y68000D01*
X237044Y67200D01*
X236244Y67600D01*
X235444Y67200D01*
Y57200D02*
X235844Y58000D01*
X235444Y58800D01*
X236244Y58400D01*
X237044Y58800D01*
X236644Y58000D01*
X237044Y57200D01*
X236244Y57600D01*
X235444Y57200D01*
Y47200D02*
X235844Y48000D01*
X235444Y48800D01*
X236244Y48400D01*
X237044Y48800D01*
X236644Y48000D01*
X237044Y47200D01*
X236244Y47600D01*
X235444Y47200D01*
Y37200D02*
X235844Y38000D01*
X235444Y38800D01*
X236244Y38400D01*
X237044Y38800D01*
X236644Y38000D01*
X237044Y37200D01*
X236244Y37600D01*
X235444Y37200D01*
Y27200D02*
X235844Y28000D01*
X235444Y28800D01*
X236244Y28400D01*
X237044Y28800D01*
X236644Y28000D01*
X237044Y27200D01*
X236244Y27600D01*
X235444Y27200D01*
X140956D02*
X141356Y28000D01*
X140956Y28800D01*
X141756Y28400D01*
X142556Y28800D01*
X142156Y28000D01*
X142556Y27200D01*
X141756Y27600D01*
X140956Y27200D01*
X235444Y223200D02*
X235844Y224000D01*
X235444Y224800D01*
X236244Y224400D01*
X237044Y224800D01*
X236644Y224000D01*
X237044Y223200D01*
X236244Y223600D01*
X235444Y223200D01*
Y213200D02*
X235844Y214000D01*
X235444Y214800D01*
X236244Y214400D01*
X237044Y214800D01*
X236644Y214000D01*
X237044Y213200D01*
X236244Y213600D01*
X235444Y213200D01*
X140956Y223200D02*
X141356Y224000D01*
X140956Y224800D01*
X141756Y224400D01*
X142556Y224800D01*
X142156Y224000D01*
X142556Y223200D01*
X141756Y223600D01*
X140956Y223200D01*
Y213200D02*
X141356Y214000D01*
X140956Y214800D01*
X141756Y214400D01*
X142556Y214800D01*
X142156Y214000D01*
X142556Y213200D01*
X141756Y213600D01*
X140956Y213200D01*
Y203200D02*
X141356Y204000D01*
X140956Y204800D01*
X141756Y204400D01*
X142556Y204800D01*
X142156Y204000D01*
X142556Y203200D01*
X141756Y203600D01*
X140956Y203200D01*
Y193200D02*
X141356Y194000D01*
X140956Y194800D01*
X141756Y194400D01*
X142556Y194800D01*
X142156Y194000D01*
X142556Y193200D01*
X141756Y193600D01*
X140956Y193200D01*
Y183200D02*
X141356Y184000D01*
X140956Y184800D01*
X141756Y184400D01*
X142556Y184800D01*
X142156Y184000D01*
X142556Y183200D01*
X141756Y183600D01*
X140956Y183200D01*
Y173200D02*
X141356Y174000D01*
X140956Y174800D01*
X141756Y174400D01*
X142556Y174800D01*
X142156Y174000D01*
X142556Y173200D01*
X141756Y173600D01*
X140956Y173200D01*
Y163200D02*
X141356Y164000D01*
X140956Y164800D01*
X141756Y164400D01*
X142556Y164800D01*
X142156Y164000D01*
X142556Y163200D01*
X141756Y163600D01*
X140956Y163200D01*
X235444Y203200D02*
X235844Y204000D01*
X235444Y204800D01*
X236244Y204400D01*
X237044Y204800D01*
X236644Y204000D01*
X237044Y203200D01*
X236244Y203600D01*
X235444Y203200D01*
Y193200D02*
X235844Y194000D01*
X235444Y194800D01*
X236244Y194400D01*
X237044Y194800D01*
X236644Y194000D01*
X237044Y193200D01*
X236244Y193600D01*
X235444Y193200D01*
Y183200D02*
X235844Y184000D01*
X235444Y184800D01*
X236244Y184400D01*
X237044Y184800D01*
X236644Y184000D01*
X237044Y183200D01*
X236244Y183600D01*
X235444Y183200D01*
Y173200D02*
X235844Y174000D01*
X235444Y174800D01*
X236244Y174400D01*
X237044Y174800D01*
X236644Y174000D01*
X237044Y173200D01*
X236244Y173600D01*
X235444Y173200D01*
Y163200D02*
X235844Y164000D01*
X235444Y164800D01*
X236244Y164400D01*
X237044Y164800D01*
X236644Y164000D01*
X237044Y163200D01*
X236244Y163600D01*
X235444Y163200D01*
Y153200D02*
X235844Y154000D01*
X235444Y154800D01*
X236244Y154400D01*
X237044Y154800D01*
X236644Y154000D01*
X237044Y153200D01*
X236244Y153600D01*
X235444Y153200D01*
X140956D02*
X141356Y154000D01*
X140956Y154800D01*
X141756Y154400D01*
X142556Y154800D01*
X142156Y154000D01*
X142556Y153200D01*
X141756Y153600D01*
X140956Y153200D01*
X109444Y223200D02*
X109844Y224000D01*
X109444Y224800D01*
X110244Y224400D01*
X111044Y224800D01*
X110644Y224000D01*
X111044Y223200D01*
X110244Y223600D01*
X109444Y223200D01*
Y213200D02*
X109844Y214000D01*
X109444Y214800D01*
X110244Y214400D01*
X111044Y214800D01*
X110644Y214000D01*
X111044Y213200D01*
X110244Y213600D01*
X109444Y213200D01*
X14956Y223200D02*
X15356Y224000D01*
X14956Y224800D01*
X15756Y224400D01*
X16556Y224800D01*
X16156Y224000D01*
X16556Y223200D01*
X15756Y223600D01*
X14956Y223200D01*
Y213200D02*
X15356Y214000D01*
X14956Y214800D01*
X15756Y214400D01*
X16556Y214800D01*
X16156Y214000D01*
X16556Y213200D01*
X15756Y213600D01*
X14956Y213200D01*
Y203200D02*
X15356Y204000D01*
X14956Y204800D01*
X15756Y204400D01*
X16556Y204800D01*
X16156Y204000D01*
X16556Y203200D01*
X15756Y203600D01*
X14956Y203200D01*
Y193200D02*
X15356Y194000D01*
X14956Y194800D01*
X15756Y194400D01*
X16556Y194800D01*
X16156Y194000D01*
X16556Y193200D01*
X15756Y193600D01*
X14956Y193200D01*
Y183200D02*
X15356Y184000D01*
X14956Y184800D01*
X15756Y184400D01*
X16556Y184800D01*
X16156Y184000D01*
X16556Y183200D01*
X15756Y183600D01*
X14956Y183200D01*
Y173200D02*
X15356Y174000D01*
X14956Y174800D01*
X15756Y174400D01*
X16556Y174800D01*
X16156Y174000D01*
X16556Y173200D01*
X15756Y173600D01*
X14956Y173200D01*
Y163200D02*
X15356Y164000D01*
X14956Y164800D01*
X15756Y164400D01*
X16556Y164800D01*
X16156Y164000D01*
X16556Y163200D01*
X15756Y163600D01*
X14956Y163200D01*
X109444Y203200D02*
X109844Y204000D01*
X109444Y204800D01*
X110244Y204400D01*
X111044Y204800D01*
X110644Y204000D01*
X111044Y203200D01*
X110244Y203600D01*
X109444Y203200D01*
Y193200D02*
X109844Y194000D01*
X109444Y194800D01*
X110244Y194400D01*
X111044Y194800D01*
X110644Y194000D01*
X111044Y193200D01*
X110244Y193600D01*
X109444Y193200D01*
Y183200D02*
X109844Y184000D01*
X109444Y184800D01*
X110244Y184400D01*
X111044Y184800D01*
X110644Y184000D01*
X111044Y183200D01*
X110244Y183600D01*
X109444Y183200D01*
Y173200D02*
X109844Y174000D01*
X109444Y174800D01*
X110244Y174400D01*
X111044Y174800D01*
X110644Y174000D01*
X111044Y173200D01*
X110244Y173600D01*
X109444Y173200D01*
Y163200D02*
X109844Y164000D01*
X109444Y164800D01*
X110244Y164400D01*
X111044Y164800D01*
X110644Y164000D01*
X111044Y163200D01*
X110244Y163600D01*
X109444Y163200D01*
Y153200D02*
X109844Y154000D01*
X109444Y154800D01*
X110244Y154400D01*
X111044Y154800D01*
X110644Y154000D01*
X111044Y153200D01*
X110244Y153600D01*
X109444Y153200D01*
X14956D02*
X15356Y154000D01*
X14956Y154800D01*
X15756Y154400D01*
X16556Y154800D01*
X16156Y154000D01*
X16556Y153200D01*
X15756Y153600D01*
X14956Y153200D01*
X109444Y97200D02*
X109844Y98000D01*
X109444Y98800D01*
X110244Y98400D01*
X111044Y98800D01*
X110644Y98000D01*
X111044Y97200D01*
X110244Y97600D01*
X109444Y97200D01*
Y87200D02*
X109844Y88000D01*
X109444Y88800D01*
X110244Y88400D01*
X111044Y88800D01*
X110644Y88000D01*
X111044Y87200D01*
X110244Y87600D01*
X109444Y87200D01*
X14956Y97200D02*
X15356Y98000D01*
X14956Y98800D01*
X15756Y98400D01*
X16556Y98800D01*
X16156Y98000D01*
X16556Y97200D01*
X15756Y97600D01*
X14956Y97200D01*
Y87200D02*
X15356Y88000D01*
X14956Y88800D01*
X15756Y88400D01*
X16556Y88800D01*
X16156Y88000D01*
X16556Y87200D01*
X15756Y87600D01*
X14956Y87200D01*
Y77200D02*
X15356Y78000D01*
X14956Y78800D01*
X15756Y78400D01*
X16556Y78800D01*
X16156Y78000D01*
X16556Y77200D01*
X15756Y77600D01*
X14956Y77200D01*
Y67200D02*
X15356Y68000D01*
X14956Y68800D01*
X15756Y68400D01*
X16556Y68800D01*
X16156Y68000D01*
X16556Y67200D01*
X15756Y67600D01*
X14956Y67200D01*
Y57200D02*
X15356Y58000D01*
X14956Y58800D01*
X15756Y58400D01*
X16556Y58800D01*
X16156Y58000D01*
X16556Y57200D01*
X15756Y57600D01*
X14956Y57200D01*
Y47200D02*
X15356Y48000D01*
X14956Y48800D01*
X15756Y48400D01*
X16556Y48800D01*
X16156Y48000D01*
X16556Y47200D01*
X15756Y47600D01*
X14956Y47200D01*
Y37200D02*
X15356Y38000D01*
X14956Y38800D01*
X15756Y38400D01*
X16556Y38800D01*
X16156Y38000D01*
X16556Y37200D01*
X15756Y37600D01*
X14956Y37200D01*
X109444Y77200D02*
X109844Y78000D01*
X109444Y78800D01*
X110244Y78400D01*
X111044Y78800D01*
X110644Y78000D01*
X111044Y77200D01*
X110244Y77600D01*
X109444Y77200D01*
Y67200D02*
X109844Y68000D01*
X109444Y68800D01*
X110244Y68400D01*
X111044Y68800D01*
X110644Y68000D01*
X111044Y67200D01*
X110244Y67600D01*
X109444Y67200D01*
Y57200D02*
X109844Y58000D01*
X109444Y58800D01*
X110244Y58400D01*
X111044Y58800D01*
X110644Y58000D01*
X111044Y57200D01*
X110244Y57600D01*
X109444Y57200D01*
Y47200D02*
X109844Y48000D01*
X109444Y48800D01*
X110244Y48400D01*
X111044Y48800D01*
X110644Y48000D01*
X111044Y47200D01*
X110244Y47600D01*
X109444Y47200D01*
Y37200D02*
X109844Y38000D01*
X109444Y38800D01*
X110244Y38400D01*
X111044Y38800D01*
X110644Y38000D01*
X111044Y37200D01*
X110244Y37600D01*
X109444Y37200D01*
Y27200D02*
X109844Y28000D01*
X109444Y28800D01*
X110244Y28400D01*
X111044Y28800D01*
X110644Y28000D01*
X111044Y27200D01*
X110244Y27600D01*
X109444Y27200D01*
X14956D02*
X15356Y28000D01*
X14956Y28800D01*
X15756Y28400D01*
X16556Y28800D01*
X16156Y28000D01*
X16556Y27200D01*
X15756Y27600D01*
X14956Y27200D01*
X129700Y187800D02*
Y187400D01*
X130500D01*
Y187800D01*
X130900D01*
Y188600D01*
X130500D01*
Y189000D01*
X129700D01*
Y188600D01*
X129300D01*
Y187800D01*
X129700D01*
X121300Y192100D02*
Y191700D01*
X122100D01*
Y192100D01*
X122500D01*
Y192900D01*
X122100D01*
Y193300D01*
X121300D01*
Y192900D01*
X120900D01*
Y192100D01*
X121300D01*
X88900Y152500D02*
Y152100D01*
X89700D01*
Y152500D01*
X90100D01*
Y153300D01*
X89700D01*
Y153700D01*
X88900D01*
Y153300D01*
X88500D01*
Y152500D01*
X88900D01*
X99400D02*
Y152100D01*
X100200D01*
Y152500D01*
X100600D01*
Y153300D01*
X100200D01*
Y153700D01*
X99400D01*
Y153300D01*
X99000D01*
Y152500D01*
X99400D01*
X129100Y151300D02*
Y150900D01*
X129900D01*
Y151300D01*
X130300D01*
Y152100D01*
X129900D01*
Y152500D01*
X129100D01*
Y152100D01*
X128700D01*
Y151300D01*
X129100D01*
X130300Y145800D02*
Y145400D01*
X131100D01*
Y145800D01*
X131500D01*
Y146600D01*
X131100D01*
Y147000D01*
X130300D01*
Y146600D01*
X129900D01*
Y145800D01*
X130300D01*
X131100Y130800D02*
Y130400D01*
X131900D01*
Y130800D01*
X132300D01*
Y131600D01*
X131900D01*
Y132000D01*
X131100D01*
Y131600D01*
X130700D01*
Y130800D01*
X131100D01*
X130900Y141000D02*
Y140600D01*
X131700D01*
Y141000D01*
X132100D01*
Y141800D01*
X131700D01*
Y142200D01*
X130900D01*
Y141800D01*
X130500D01*
Y141000D01*
X130900D01*
X108600D02*
Y140600D01*
X109400D01*
Y141000D01*
X109800D01*
Y141800D01*
X109400D01*
Y142200D01*
X108600D01*
Y141800D01*
X108200D01*
Y141000D01*
X108600D01*
X108400Y130400D02*
Y130000D01*
X109200D01*
Y130400D01*
X109600D01*
Y131200D01*
X109200D01*
Y131600D01*
X108400D01*
Y131200D01*
X108000D01*
Y130400D01*
X108400D01*
X108100Y119500D02*
Y119100D01*
X108900D01*
Y119500D01*
X109300D01*
Y120300D01*
X108900D01*
Y120700D01*
X108100D01*
Y120300D01*
X107700D01*
Y119500D01*
X108100D01*
X138600Y121300D02*
Y120900D01*
X139400D01*
Y121300D01*
X139800D01*
Y122100D01*
X139400D01*
Y122500D01*
X138600D01*
Y122100D01*
X138200D01*
Y121300D01*
X138600D01*
X206800Y54300D02*
Y53900D01*
X207600D01*
Y54300D01*
X208000D01*
Y55100D01*
X207600D01*
Y55500D01*
X206800D01*
Y55100D01*
X206400D01*
Y54300D01*
X206800D01*
X121300Y95100D02*
Y94700D01*
X122100D01*
Y95100D01*
X122500D01*
Y95900D01*
X122100D01*
Y96300D01*
X121300D01*
Y95900D01*
X120900D01*
Y95100D01*
X121300D01*
X39900Y111600D02*
Y111200D01*
X40700D01*
Y111600D01*
X41100D01*
Y112400D01*
X40700D01*
Y112800D01*
X39900D01*
Y112400D01*
X39500D01*
Y111600D01*
X39900D01*
X34530Y100470D02*
Y100071D01*
X35329D01*
Y100470D01*
X35730D01*
Y101270D01*
X35329D01*
Y101671D01*
X34530D01*
Y101270D01*
X34130D01*
Y100470D01*
X34530D01*
X142900Y106400D02*
Y106000D01*
X143700D01*
Y106400D01*
X144100D01*
Y107200D01*
X143700D01*
Y107600D01*
X142900D01*
Y107200D01*
X142500D01*
Y106400D01*
X142900D01*
X138539Y108885D02*
Y108485D01*
X139339D01*
Y108885D01*
X139739D01*
Y109685D01*
X139339D01*
Y110085D01*
X138539D01*
Y109685D01*
X138138D01*
Y108885D01*
X138539D01*
X128600Y113400D02*
Y113000D01*
X129400D01*
Y113400D01*
X129800D01*
Y114200D01*
X129400D01*
Y114600D01*
X128600D01*
Y114200D01*
X128200D01*
Y113400D01*
X128600D01*
X80200Y170164D02*
Y169764D01*
X81000D01*
Y170164D01*
X81400D01*
Y170964D01*
X81000D01*
Y171364D01*
X80200D01*
Y170964D01*
X79800D01*
Y170164D01*
X80200D01*
X135711Y113347D02*
Y112947D01*
X136511D01*
Y113347D01*
X136911D01*
Y114147D01*
X136511D01*
Y114547D01*
X135711D01*
Y114147D01*
X135311D01*
Y113347D01*
X135711D01*
X117300Y74100D02*
Y73700D01*
X118100D01*
Y74100D01*
X118500D01*
Y74900D01*
X118100D01*
Y75300D01*
X117300D01*
Y74900D01*
X116900D01*
Y74100D01*
X117300D01*
X121000Y46500D02*
Y46100D01*
X121800D01*
Y46500D01*
X122200D01*
Y47300D01*
X121800D01*
Y47700D01*
X121000D01*
Y47300D01*
X120600D01*
Y46500D01*
X121000D01*
X129900Y26600D02*
Y26200D01*
X130700D01*
Y26600D01*
X131100D01*
Y27400D01*
X130700D01*
Y27800D01*
X129900D01*
Y27400D01*
X129500D01*
Y26600D01*
X129900D01*
X130200Y37600D02*
Y37200D01*
X131000D01*
Y37600D01*
X131400D01*
Y38400D01*
X131000D01*
Y38800D01*
X130200D01*
Y38400D01*
X129800D01*
Y37600D01*
X130200D01*
X119800Y37500D02*
Y37100D01*
X120600D01*
Y37500D01*
X121000D01*
Y38300D01*
X120600D01*
Y38700D01*
X119800D01*
Y38300D01*
X119400D01*
Y37500D01*
X119800D01*
X118700Y27300D02*
Y26900D01*
X119500D01*
Y27300D01*
X119900D01*
Y28100D01*
X119500D01*
Y28500D01*
X118700D01*
Y28100D01*
X118300D01*
Y27300D01*
X118700D01*
X32100Y52200D02*
Y51800D01*
X32900D01*
Y52200D01*
X33300D01*
Y53000D01*
X32900D01*
Y53400D01*
X32100D01*
Y53000D01*
X31700D01*
Y52200D01*
X32100D01*
X35800Y58200D02*
Y57800D01*
X36600D01*
Y58200D01*
X37000D01*
Y59000D01*
X36600D01*
Y59400D01*
X35800D01*
Y59000D01*
X35400D01*
Y58200D01*
X35800D01*
X22800Y68300D02*
Y67900D01*
X23600D01*
Y68300D01*
X24000D01*
Y69100D01*
X23600D01*
Y69500D01*
X22800D01*
Y69100D01*
X22400D01*
Y68300D01*
X22800D01*
X33500Y77900D02*
Y77500D01*
X34300D01*
Y77900D01*
X34700D01*
Y78700D01*
X34300D01*
Y79100D01*
X33500D01*
Y78700D01*
X33100D01*
Y77900D01*
X33500D01*
X92300Y60200D02*
Y59800D01*
X93100D01*
Y60200D01*
X93500D01*
Y61000D01*
X93100D01*
Y61400D01*
X92300D01*
Y61000D01*
X91900D01*
Y60200D01*
X92300D01*
X135400Y52600D02*
Y52200D01*
X136200D01*
Y52600D01*
X136600D01*
Y53400D01*
X136200D01*
Y53800D01*
X135400D01*
Y53400D01*
X135000D01*
Y52600D01*
X135400D01*
X80300Y111000D02*
Y110600D01*
X81100D01*
Y111000D01*
X81500D01*
Y111800D01*
X81100D01*
Y112200D01*
X80300D01*
Y111800D01*
X79900D01*
Y111000D01*
X80300D01*
Y140900D02*
Y140500D01*
X81100D01*
Y140900D01*
X81500D01*
Y141700D01*
X81100D01*
Y142100D01*
X80300D01*
Y141700D01*
X79900D01*
Y140900D01*
X80300D01*
X92300Y72300D02*
Y71900D01*
X93100D01*
Y72300D01*
X93500D01*
Y73100D01*
X93100D01*
Y73500D01*
X92300D01*
Y73100D01*
X91900D01*
Y72300D01*
X92300D01*
X65000Y177000D02*
Y176600D01*
X65800D01*
Y177000D01*
X66200D01*
Y177800D01*
X65800D01*
Y178200D01*
X65000D01*
Y177800D01*
X64600D01*
Y177000D01*
X65000D01*
X62300Y173500D02*
Y173100D01*
X63100D01*
Y173500D01*
X63500D01*
Y174300D01*
X63100D01*
Y174700D01*
X62300D01*
Y174300D01*
X61900D01*
Y173500D01*
X62300D01*
X65300Y181200D02*
Y180800D01*
X66100D01*
Y181200D01*
X66500D01*
Y182000D01*
X66100D01*
Y182400D01*
X65300D01*
Y182000D01*
X64900D01*
Y181200D01*
X65300D01*
X79800Y176100D02*
Y175700D01*
X80600D01*
Y176100D01*
X81000D01*
Y176900D01*
X80600D01*
Y177300D01*
X79800D01*
Y176900D01*
X79400D01*
Y176100D01*
X79800D01*
X59400Y170800D02*
Y170400D01*
X60200D01*
Y170800D01*
X60600D01*
Y171600D01*
X60200D01*
Y172000D01*
X59400D01*
Y171600D01*
X59000D01*
Y170800D01*
X59400D01*
X42300Y176100D02*
Y175700D01*
X43100D01*
Y176100D01*
X43500D01*
Y176900D01*
X43100D01*
Y177300D01*
X42300D01*
Y176900D01*
X41900D01*
Y176100D01*
X42300D01*
X28500Y178400D02*
Y178000D01*
X29300D01*
Y178400D01*
X29700D01*
Y179200D01*
X29300D01*
Y179600D01*
X28500D01*
Y179200D01*
X28100D01*
Y178400D01*
X28500D01*
X176100Y174100D02*
Y173700D01*
X176900D01*
Y174100D01*
X177300D01*
Y174900D01*
X176900D01*
Y175300D01*
X176100D01*
Y174900D01*
X175700D01*
Y174100D01*
X176100D01*
X174700Y149000D02*
Y148600D01*
X175500D01*
Y149000D01*
X175900D01*
Y149800D01*
X175500D01*
Y150200D01*
X174700D01*
Y149800D01*
X174300D01*
Y149000D01*
X174700D01*
X137700D02*
Y148600D01*
X138500D01*
Y149000D01*
X138900D01*
Y149800D01*
X138500D01*
Y150200D01*
X137700D01*
Y149800D01*
X137300D01*
Y149000D01*
X137700D01*
X91600Y142200D02*
Y141800D01*
X92400D01*
Y142200D01*
X92800D01*
Y143000D01*
X92400D01*
Y143400D01*
X91600D01*
Y143000D01*
X91200D01*
Y142200D01*
X91600D01*
X183100Y14600D02*
Y14200D01*
X183900D01*
Y14600D01*
X184300D01*
Y15400D01*
X183900D01*
Y15800D01*
X183100D01*
Y15400D01*
X182700D01*
Y14600D01*
X183100D01*
X178100D02*
Y14200D01*
X178900D01*
Y14600D01*
X179300D01*
Y15400D01*
X178900D01*
Y15800D01*
X178100D01*
Y15400D01*
X177700D01*
Y14600D01*
X178100D01*
X189100D02*
Y14200D01*
X189900D01*
Y14600D01*
X190300D01*
Y15400D01*
X189900D01*
Y15800D01*
X189100D01*
Y15400D01*
X188700D01*
Y14600D01*
X189100D01*
X25100Y98600D02*
Y98200D01*
X25900D01*
Y98600D01*
X26300D01*
Y99400D01*
X25900D01*
Y99800D01*
X25100D01*
Y99400D01*
X24700D01*
Y98600D01*
X25100D01*
Y112000D02*
Y111600D01*
X25900D01*
Y112000D01*
X26300D01*
Y112800D01*
X25900D01*
Y113200D01*
X25100D01*
Y112800D01*
X24700D01*
Y112000D01*
X25100D01*
X214000Y146100D02*
Y145700D01*
X214800D01*
Y146100D01*
X215200D01*
Y146900D01*
X214800D01*
Y147300D01*
X214000D01*
Y146900D01*
X213600D01*
Y146100D01*
X214000D01*
Y74200D02*
Y73800D01*
X214800D01*
Y74200D01*
X215200D01*
Y75000D01*
X214800D01*
Y75400D01*
X214000D01*
Y75000D01*
X213600D01*
Y74200D01*
X214000D01*
X211500Y125800D02*
Y125400D01*
X212300D01*
Y125800D01*
X212700D01*
Y126600D01*
X212300D01*
Y127000D01*
X211500D01*
Y126600D01*
X211100D01*
Y125800D01*
X211500D01*
Y89200D02*
Y88800D01*
X212300D01*
Y89200D01*
X212700D01*
Y90000D01*
X212300D01*
Y90400D01*
X211500D01*
Y90000D01*
X211100D01*
Y89200D01*
X211500D01*
X203700Y64200D02*
Y63800D01*
X204500D01*
Y64200D01*
X204900D01*
Y65000D01*
X204500D01*
Y65400D01*
X203700D01*
Y65000D01*
X203300D01*
Y64200D01*
X203700D01*
X201800Y30900D02*
Y30500D01*
X202600D01*
Y30900D01*
X203000D01*
Y31700D01*
X202600D01*
Y32100D01*
X201800D01*
Y31700D01*
X201400D01*
Y30900D01*
X201800D01*
X93100Y77200D02*
Y76800D01*
X93900D01*
Y77200D01*
X94300D01*
Y78000D01*
X93900D01*
Y78400D01*
X93100D01*
Y78000D01*
X92700D01*
Y77200D01*
X93100D01*
X89600Y79000D02*
Y78600D01*
X90400D01*
Y79000D01*
X90800D01*
Y79800D01*
X90400D01*
Y80200D01*
X89600D01*
Y79800D01*
X89200D01*
Y79000D01*
X89600D01*
X86400Y81600D02*
Y81200D01*
X87200D01*
Y81600D01*
X87600D01*
Y82400D01*
X87200D01*
Y82800D01*
X86400D01*
Y82400D01*
X86000D01*
Y81600D01*
X86400D01*
X79300Y80400D02*
Y80000D01*
X80100D01*
Y80400D01*
X80500D01*
Y81200D01*
X80100D01*
Y81600D01*
X79300D01*
Y81200D01*
X78900D01*
Y80400D01*
X79300D01*
X95100Y118500D02*
Y118100D01*
X95900D01*
Y118500D01*
X96300D01*
Y119300D01*
X95900D01*
Y119700D01*
X95100D01*
Y119300D01*
X94700D01*
Y118500D01*
X95100D01*
X93500Y135900D02*
Y135500D01*
X94300D01*
Y135900D01*
X94700D01*
Y136700D01*
X94300D01*
Y137100D01*
X93500D01*
Y136700D01*
X93100D01*
Y135900D01*
X93500D01*
X93200Y124700D02*
Y124300D01*
X94000D01*
Y124700D01*
X94400D01*
Y125500D01*
X94000D01*
Y125900D01*
X93200D01*
Y125500D01*
X92800D01*
Y124700D01*
X93200D01*
X44400Y171100D02*
Y170700D01*
X45200D01*
Y171100D01*
X45600D01*
Y171900D01*
X45200D01*
Y172300D01*
X44400D01*
Y171900D01*
X44000D01*
Y171100D01*
X44400D01*
X203450Y125750D02*
Y125350D01*
X204250D01*
Y125750D01*
X204650D01*
Y126550D01*
X204250D01*
Y126950D01*
X203450D01*
Y126550D01*
X203050D01*
Y125750D01*
X203450D01*
X203700Y69200D02*
Y68800D01*
X204500D01*
Y69200D01*
X204900D01*
Y70000D01*
X204500D01*
Y70400D01*
X203700D01*
Y70000D01*
X203300D01*
Y69200D01*
X203700D01*
X133450Y125750D02*
Y125350D01*
X134250D01*
Y125750D01*
X134650D01*
Y126550D01*
X134250D01*
Y126950D01*
X133450D01*
Y126550D01*
X133050D01*
Y125750D01*
X133450D01*
X61500Y130600D02*
Y130200D01*
X62300D01*
Y130600D01*
X62700D01*
Y131400D01*
X62300D01*
Y131800D01*
X61500D01*
Y131400D01*
X61100D01*
Y130600D01*
X61500D01*
X209100Y135750D02*
Y135350D01*
X209900D01*
Y135750D01*
X210300D01*
Y136550D01*
X209900D01*
Y136950D01*
X209100D01*
Y136550D01*
X208700D01*
Y135750D01*
X209100D01*
X209000Y79200D02*
Y78800D01*
X209800D01*
Y79200D01*
X210200D01*
Y80000D01*
X209800D01*
Y80400D01*
X209000D01*
Y80000D01*
X208600D01*
Y79200D01*
X209000D01*
X169000Y135750D02*
Y135350D01*
X169800D01*
Y135750D01*
X170200D01*
Y136550D01*
X169800D01*
Y136950D01*
X169000D01*
Y136550D01*
X168600D01*
Y135750D01*
X169000D01*
X169057Y179643D02*
Y179243D01*
X169857D01*
Y179643D01*
X170257D01*
Y180443D01*
X169857D01*
Y180843D01*
X169057D01*
Y180443D01*
X168657D01*
Y179643D01*
X169057D01*
X135050Y135750D02*
Y135350D01*
X135850D01*
Y135750D01*
X136250D01*
Y136550D01*
X135850D01*
Y136950D01*
X135050D01*
Y136550D01*
X134650D01*
Y135750D01*
X135050D01*
X64600Y135800D02*
Y135400D01*
X65400D01*
Y135800D01*
X65800D01*
Y136600D01*
X65400D01*
Y137000D01*
X64600D01*
Y136600D01*
X64200D01*
Y135800D01*
X64600D01*
Y81600D02*
Y81200D01*
X65400D01*
Y81600D01*
X65800D01*
Y82400D01*
X65400D01*
Y82800D01*
X64600D01*
Y82400D01*
X64200D01*
Y81600D01*
X64600D01*
X34300Y165600D02*
Y165200D01*
X35100D01*
Y165600D01*
X35500D01*
Y166400D01*
X35100D01*
Y166800D01*
X34300D01*
Y166400D01*
X33900D01*
Y165600D01*
X34300D01*
X37500Y162700D02*
Y162300D01*
X38300D01*
Y162700D01*
X38700D01*
Y163500D01*
X38300D01*
Y163900D01*
X37500D01*
Y163500D01*
X37100D01*
Y162700D01*
X37500D01*
X30200Y163900D02*
Y163500D01*
X31000D01*
Y163900D01*
X31400D01*
Y164700D01*
X31000D01*
Y165100D01*
X30200D01*
Y164700D01*
X29800D01*
Y163900D01*
X30200D01*
X25700Y167500D02*
Y167100D01*
X26500D01*
Y167500D01*
X26900D01*
Y168300D01*
X26500D01*
Y168700D01*
X25700D01*
Y168300D01*
X25300D01*
Y167500D01*
X25700D01*
X22900Y164500D02*
Y164100D01*
X23700D01*
Y164500D01*
X24100D01*
Y165300D01*
X23700D01*
Y165700D01*
X22900D01*
Y165300D01*
X22500D01*
Y164500D01*
X22900D01*
X20500Y167800D02*
Y167400D01*
X21300D01*
Y167800D01*
X21700D01*
Y168600D01*
X21300D01*
Y169000D01*
X20500D01*
Y168600D01*
X20100D01*
Y167800D01*
X20500D01*
X20300Y120100D02*
Y119700D01*
X21100D01*
Y120100D01*
X21500D01*
Y120900D01*
X21100D01*
Y121300D01*
X20300D01*
Y120900D01*
X19900D01*
Y120100D01*
X20300D01*
X16600Y115900D02*
Y115500D01*
X17400D01*
Y115900D01*
X17800D01*
Y116700D01*
X17400D01*
Y117100D01*
X16600D01*
Y116700D01*
X16200D01*
Y115900D01*
X16600D01*
X59550Y125750D02*
Y125350D01*
X60350D01*
Y125750D01*
X60750D01*
Y126550D01*
X60350D01*
Y126950D01*
X59550D01*
Y126550D01*
X59150D01*
Y125750D01*
X59550D01*
X32200Y94444D02*
Y94044D01*
X33000D01*
Y94444D01*
X33400D01*
Y95244D01*
X33000D01*
Y95644D01*
X32200D01*
Y95244D01*
X31800D01*
Y94444D01*
X32200D01*
X37200Y105500D02*
Y105100D01*
X38000D01*
Y105500D01*
X38400D01*
Y106300D01*
X38000D01*
Y106700D01*
X37200D01*
Y106300D01*
X36800D01*
Y105500D01*
X37200D01*
X43250Y120750D02*
Y120350D01*
X44050D01*
Y120750D01*
X44450D01*
Y121550D01*
X44050D01*
Y121950D01*
X43250D01*
Y121550D01*
X42850D01*
Y120750D01*
X43250D01*
Y130750D02*
Y130350D01*
X44050D01*
Y130750D01*
X44450D01*
Y131550D01*
X44050D01*
Y131950D01*
X43250D01*
Y131550D01*
X42850D01*
Y130750D01*
X43250D01*
Y135750D02*
Y135350D01*
X44050D01*
Y135750D01*
X44450D01*
Y136550D01*
X44050D01*
Y136950D01*
X43250D01*
Y136550D01*
X42850D01*
Y135750D01*
X43250D01*
X61900Y42100D02*
Y41700D01*
X62700D01*
Y42100D01*
X63100D01*
Y42900D01*
X62700D01*
Y43300D01*
X61900D01*
Y42900D01*
X61500D01*
Y42100D01*
X61900D01*
X43600Y80700D02*
Y80300D01*
X44400D01*
Y80700D01*
X44800D01*
Y81500D01*
X44400D01*
Y81900D01*
X43600D01*
Y81500D01*
X43200D01*
Y80700D01*
X43600D01*
X118400Y91800D02*
Y91400D01*
X119200D01*
Y91800D01*
X119600D01*
Y92600D01*
X119200D01*
Y93000D01*
X118400D01*
Y92600D01*
X118000D01*
Y91800D01*
X118400D01*
X43400Y75400D02*
Y75000D01*
X44200D01*
Y75400D01*
X44600D01*
Y76200D01*
X44200D01*
Y76600D01*
X43400D01*
Y76200D01*
X43000D01*
Y75400D01*
X43400D01*
X43800Y65400D02*
Y65000D01*
X44600D01*
Y65400D01*
X45000D01*
Y66200D01*
X44600D01*
Y66600D01*
X43800D01*
Y66200D01*
X43400D01*
Y65400D01*
X43800D01*
X81400Y55400D02*
Y55000D01*
X82200D01*
Y55400D01*
X82600D01*
Y56200D01*
X82200D01*
Y56600D01*
X81400D01*
Y56200D01*
X81000D01*
Y55400D01*
X81400D01*
X79500Y186100D02*
Y185700D01*
X80300D01*
Y186100D01*
X80700D01*
Y186900D01*
X80300D01*
Y187300D01*
X79500D01*
Y186900D01*
X79100D01*
Y186100D01*
X79500D01*
X42300Y145750D02*
Y145350D01*
X43100D01*
Y145750D01*
X43500D01*
Y146550D01*
X43100D01*
Y146950D01*
X42300D01*
Y146550D01*
X41900D01*
Y145750D01*
X42300D01*
Y206100D02*
Y205700D01*
X43100D01*
Y206100D01*
X43500D01*
Y206900D01*
X43100D01*
Y207300D01*
X42300D01*
Y206900D01*
X41900D01*
Y206100D01*
X42300D01*
X206000Y84200D02*
Y83800D01*
X206800D01*
Y84200D01*
X207200D01*
Y85000D01*
X206800D01*
Y85400D01*
X206000D01*
Y85000D01*
X205600D01*
Y84200D01*
X206000D01*
X42300Y85400D02*
Y85000D01*
X43100D01*
Y85400D01*
X43500D01*
Y86200D01*
X43100D01*
Y86600D01*
X42300D01*
Y86200D01*
X41900D01*
Y85400D01*
X42300D01*
X180900Y29200D02*
Y28800D01*
X181700D01*
Y29200D01*
X182100D01*
Y30000D01*
X181700D01*
Y30400D01*
X180900D01*
Y30000D01*
X180500D01*
Y29200D01*
X180900D01*
X42650Y140750D02*
Y140350D01*
X43450D01*
Y140750D01*
X43850D01*
Y141550D01*
X43450D01*
Y141950D01*
X42650D01*
Y141550D01*
X42250D01*
Y140750D01*
X42650D01*
X59231Y88400D02*
Y88000D01*
X60031D01*
Y88400D01*
X60431D01*
Y89200D01*
X60031D01*
Y89600D01*
X59231D01*
Y89200D01*
X58831D01*
Y88400D01*
X59231D01*
X26100Y92400D02*
Y92000D01*
X26900D01*
Y92400D01*
X27300D01*
Y93200D01*
X26900D01*
Y93600D01*
X26100D01*
Y93200D01*
X25700D01*
Y92400D01*
X26100D01*
X39900Y91300D02*
Y90900D01*
X40700D01*
Y91300D01*
X41100D01*
Y92100D01*
X40700D01*
Y92500D01*
X39900D01*
Y92100D01*
X39500D01*
Y91300D01*
X39900D01*
X44400Y97000D02*
Y96600D01*
X45200D01*
Y97000D01*
X45600D01*
Y97800D01*
X45200D01*
Y98200D01*
X44400D01*
Y97800D01*
X44000D01*
Y97000D01*
X44400D01*
Y109300D02*
Y108900D01*
X45200D01*
Y109300D01*
X45600D01*
Y110100D01*
X45200D01*
Y110500D01*
X44400D01*
Y110100D01*
X44000D01*
Y109300D01*
X44400D01*
X101908Y102841D02*
Y102441D01*
X102708D01*
Y102841D01*
X103108D01*
Y103641D01*
X102708D01*
Y104041D01*
X101908D01*
Y103641D01*
X101508D01*
Y102841D01*
X101908D01*
X104100Y99800D02*
Y99400D01*
X104900D01*
Y99800D01*
X105300D01*
Y100600D01*
X104900D01*
Y101000D01*
X104100D01*
Y100600D01*
X103700D01*
Y99800D01*
X104100D01*
X102800Y106900D02*
Y106500D01*
X103600D01*
Y106900D01*
X104000D01*
Y107700D01*
X103600D01*
Y108100D01*
X102800D01*
Y107700D01*
X102400D01*
Y106900D01*
X102800D01*
X164400Y54200D02*
Y53800D01*
X165200D01*
Y54200D01*
X165600D01*
Y55000D01*
X165200D01*
Y55400D01*
X164400D01*
Y55000D01*
X164000D01*
Y54200D01*
X164400D01*
X131700Y116800D02*
Y116400D01*
X132500D01*
Y116800D01*
X132900D01*
Y117600D01*
X132500D01*
Y118000D01*
X131700D01*
Y117600D01*
X131300D01*
Y116800D01*
X131700D01*
X148200Y59300D02*
Y58900D01*
X149000D01*
Y59300D01*
X149400D01*
Y60100D01*
X149000D01*
Y60500D01*
X148200D01*
Y60100D01*
X147800D01*
Y59300D01*
X148200D01*
X155800Y163600D02*
Y163200D01*
X156600D01*
Y163600D01*
X157000D01*
Y164400D01*
X156600D01*
Y164800D01*
X155800D01*
Y164400D01*
X155400D01*
Y163600D01*
X155800D01*
X159100Y153600D02*
Y153200D01*
X159900D01*
Y153600D01*
X160300D01*
Y154400D01*
X159900D01*
Y154800D01*
X159100D01*
Y154400D01*
X158700D01*
Y153600D01*
X159100D01*
X164500Y67100D02*
Y66700D01*
X165300D01*
Y67100D01*
X165700D01*
Y67900D01*
X165300D01*
Y68300D01*
X164500D01*
Y67900D01*
X164100D01*
Y67100D01*
X164500D01*
X159100Y80500D02*
Y80100D01*
X159900D01*
Y80500D01*
X160300D01*
Y81300D01*
X159900D01*
Y81700D01*
X159100D01*
Y81300D01*
X158700D01*
Y80500D01*
X159100D01*
X228200Y95100D02*
Y94700D01*
X229000D01*
Y95100D01*
X229400D01*
Y95900D01*
X229000D01*
Y96300D01*
X228200D01*
Y95900D01*
X227800D01*
Y95100D01*
X228200D01*
X164900Y89100D02*
Y88700D01*
X165700D01*
Y89100D01*
X166100D01*
Y89900D01*
X165700D01*
Y90300D01*
X164900D01*
Y89900D01*
X164500D01*
Y89100D01*
X164900D01*
X224100Y97900D02*
Y97500D01*
X224900D01*
Y97900D01*
X225300D01*
Y98700D01*
X224900D01*
Y99100D01*
X224100D01*
Y98700D01*
X223700D01*
Y97900D01*
X224100D01*
X167500Y98000D02*
Y97600D01*
X168300D01*
Y98000D01*
X168700D01*
Y98800D01*
X168300D01*
Y99200D01*
X167500D01*
Y98800D01*
X167100D01*
Y98000D01*
X167500D01*
Y69200D02*
Y68800D01*
X168300D01*
Y69200D01*
X168700D01*
Y70000D01*
X168300D01*
Y70400D01*
X167500D01*
Y70000D01*
X167100D01*
Y69200D01*
X167500D01*
X219400Y77700D02*
Y77300D01*
X220200D01*
Y77700D01*
X220600D01*
Y78500D01*
X220200D01*
Y78900D01*
X219400D01*
Y78500D01*
X219000D01*
Y77700D01*
X219400D01*
Y92100D02*
Y91700D01*
X220200D01*
Y92100D01*
X220600D01*
Y92900D01*
X220200D01*
Y93300D01*
X219400D01*
Y92900D01*
X219000D01*
Y92100D01*
X219400D01*
X141100Y103100D02*
Y102700D01*
X141900D01*
Y103100D01*
X142300D01*
Y103900D01*
X141900D01*
Y104300D01*
X141100D01*
Y103900D01*
X140700D01*
Y103100D01*
X141100D01*
X133400Y158800D02*
Y158400D01*
X134200D01*
Y158800D01*
X134600D01*
Y159600D01*
X134200D01*
Y160000D01*
X133400D01*
Y159600D01*
X133000D01*
Y158800D01*
X133400D01*
Y168600D02*
Y168200D01*
X134200D01*
Y168600D01*
X134600D01*
Y169400D01*
X134200D01*
Y169800D01*
X133400D01*
Y169400D01*
X133000D01*
Y168600D01*
X133400D01*
X174800Y204100D02*
Y203700D01*
X175600D01*
Y204100D01*
X176000D01*
Y204900D01*
X175600D01*
Y205300D01*
X174800D01*
Y204900D01*
X174400D01*
Y204100D01*
X174800D01*
X181300Y146100D02*
Y145700D01*
X182100D01*
Y146100D01*
X182500D01*
Y146900D01*
X182100D01*
Y147300D01*
X181300D01*
Y146900D01*
X180900D01*
Y146100D01*
X181300D01*
X181198Y182202D02*
Y181802D01*
X181998D01*
Y182202D01*
X182398D01*
Y183002D01*
X181998D01*
Y183402D01*
X181198D01*
Y183002D01*
X180798D01*
Y182202D01*
X181198D01*
X86300Y131000D02*
Y130600D01*
X87100D01*
Y131000D01*
X87500D01*
Y131800D01*
X87100D01*
Y132200D01*
X86300D01*
Y131800D01*
X85900D01*
Y131000D01*
X86300D01*
D43*
X177553Y20750D02*
X177000Y21511D01*
X176105Y21220D01*
Y20280D01*
X177000Y19989D01*
X177553Y20750D01*
X196647D02*
X196095Y21511D01*
X195200Y21220D01*
Y20280D01*
X196095Y19989D01*
X196647Y20750D01*
M02*
