G04 Layer_Color=128*
%FSLAX25Y25*%
%MOIN*%
G70*
G01*
G75*
%ADD13C,0.01000*%
%ADD24R,0.01575X0.06299*%
%ADD25O,0.08661X0.02362*%
%ADD26O,0.05905X0.01378*%
D13*
X0Y252000D02*
X252000D01*
Y0D02*
Y252000D01*
X0Y0D02*
X252000D01*
X0D02*
Y252000D01*
D24*
X191418Y22400D02*
D03*
X181182D02*
D03*
X188859D02*
D03*
X186300D02*
D03*
X183741D02*
D03*
D25*
X197036Y54600D02*
D03*
Y59600D02*
D03*
Y64600D02*
D03*
Y69600D02*
D03*
Y74600D02*
D03*
Y79600D02*
D03*
Y84600D02*
D03*
Y89600D02*
D03*
X176564D02*
D03*
Y84600D02*
D03*
Y79600D02*
D03*
Y74600D02*
D03*
Y69600D02*
D03*
Y64600D02*
D03*
Y59600D02*
D03*
Y54600D02*
D03*
X72536Y50800D02*
D03*
Y55800D02*
D03*
Y60800D02*
D03*
Y65800D02*
D03*
Y70800D02*
D03*
Y75800D02*
D03*
Y80800D02*
D03*
Y85800D02*
D03*
X52064D02*
D03*
Y80800D02*
D03*
Y75800D02*
D03*
Y70800D02*
D03*
Y65800D02*
D03*
Y60800D02*
D03*
Y55800D02*
D03*
Y50800D02*
D03*
Y206500D02*
D03*
Y201500D02*
D03*
Y196500D02*
D03*
Y191500D02*
D03*
Y186500D02*
D03*
Y181500D02*
D03*
Y176500D02*
D03*
Y171500D02*
D03*
X72536D02*
D03*
Y176500D02*
D03*
Y181500D02*
D03*
Y186500D02*
D03*
Y191500D02*
D03*
Y196500D02*
D03*
Y201500D02*
D03*
Y206500D02*
D03*
Y111150D02*
D03*
Y116150D02*
D03*
Y121150D02*
D03*
Y126150D02*
D03*
Y131150D02*
D03*
Y136150D02*
D03*
Y141150D02*
D03*
Y146150D02*
D03*
X52064D02*
D03*
Y141150D02*
D03*
Y136150D02*
D03*
Y131150D02*
D03*
Y126150D02*
D03*
Y121150D02*
D03*
Y116150D02*
D03*
Y111150D02*
D03*
D26*
X197627Y200516D02*
D03*
Y197957D02*
D03*
Y195398D02*
D03*
Y192839D02*
D03*
Y190279D02*
D03*
Y187721D02*
D03*
Y185161D02*
D03*
Y182602D02*
D03*
Y180043D02*
D03*
Y177484D02*
D03*
X175186Y200516D02*
D03*
Y197957D02*
D03*
Y195398D02*
D03*
Y192839D02*
D03*
Y190279D02*
D03*
Y187721D02*
D03*
Y185161D02*
D03*
Y182602D02*
D03*
Y180043D02*
D03*
Y177484D02*
D03*
M02*
