G04 Layer_Physical_Order=1*
G04 Layer_Color=255*
%FSLAX25Y25*%
%MOIN*%
G70*
G01*
G75*
%ADD10C,0.00700*%
%ADD11C,0.01500*%
%ADD12C,0.02000*%
%ADD13C,0.01000*%
%ADD14O,0.05512X0.07874*%
%ADD15C,0.04331*%
%ADD16R,0.05905X0.05905*%
%ADD17C,0.05905*%
%ADD18C,0.05000*%
%ADD19R,0.05000X0.05000*%
%ADD20R,0.05905X0.05905*%
%ADD21C,0.05512*%
%ADD22R,0.05512X0.05512*%
%ADD23C,0.02559*%
G36*
X252000Y0D02*
X0D01*
Y252000D01*
X252000D01*
Y0D01*
D02*
G37*
%LPC*%
G36*
X141756Y51788D02*
X140775Y51659D01*
X139862Y51281D01*
X139077Y50679D01*
X138475Y49894D01*
X138097Y48981D01*
X137968Y48000D01*
X138097Y47019D01*
X138475Y46106D01*
X139077Y45321D01*
X139862Y44719D01*
X140775Y44341D01*
X141756Y44212D01*
X142736Y44341D01*
X143650Y44719D01*
X144435Y45321D01*
X145037Y46106D01*
X145415Y47019D01*
X145544Y48000D01*
X145415Y48981D01*
X145037Y49894D01*
X144435Y50679D01*
X143650Y51281D01*
X142736Y51659D01*
X141756Y51788D01*
D02*
G37*
G36*
Y61788D02*
X140775Y61659D01*
X139862Y61281D01*
X139077Y60679D01*
X138475Y59894D01*
X138097Y58981D01*
X137968Y58000D01*
X138097Y57020D01*
X138475Y56106D01*
X139077Y55321D01*
X139862Y54719D01*
X140775Y54341D01*
X141756Y54212D01*
X142736Y54341D01*
X143650Y54719D01*
X144435Y55321D01*
X145037Y56106D01*
X145415Y57020D01*
X145544Y58000D01*
X145415Y58981D01*
X145037Y59894D01*
X144435Y60679D01*
X143650Y61281D01*
X142736Y61659D01*
X141756Y61788D01*
D02*
G37*
G36*
Y71788D02*
X140775Y71659D01*
X139862Y71281D01*
X139077Y70679D01*
X138475Y69894D01*
X138097Y68980D01*
X137968Y68000D01*
X138097Y67019D01*
X138475Y66106D01*
X139077Y65321D01*
X139862Y64719D01*
X140775Y64341D01*
X141756Y64212D01*
X142736Y64341D01*
X143650Y64719D01*
X144435Y65321D01*
X145037Y66106D01*
X145415Y67019D01*
X145544Y68000D01*
X145415Y68980D01*
X145037Y69894D01*
X144435Y70679D01*
X143650Y71281D01*
X142736Y71659D01*
X141756Y71788D01*
D02*
G37*
G36*
X110244Y41788D02*
X109264Y41659D01*
X108350Y41281D01*
X107565Y40679D01*
X106963Y39894D01*
X106585Y38980D01*
X106456Y38000D01*
X106585Y37020D01*
X106963Y36106D01*
X107565Y35321D01*
X108350Y34719D01*
X109264Y34341D01*
X110244Y34212D01*
X111225Y34341D01*
X112138Y34719D01*
X112923Y35321D01*
X113525Y36106D01*
X113903Y37020D01*
X114032Y38000D01*
X113903Y38980D01*
X113525Y39894D01*
X112923Y40679D01*
X112138Y41281D01*
X111225Y41659D01*
X110244Y41788D01*
D02*
G37*
G36*
X57521Y32600D02*
X54100D01*
Y29179D01*
X54632Y29249D01*
X55593Y29647D01*
X56419Y30281D01*
X57053Y31107D01*
X57451Y32068D01*
X57521Y32600D01*
D02*
G37*
G36*
X53100Y37021D02*
X52568Y36951D01*
X51607Y36553D01*
X50781Y35919D01*
X50147Y35093D01*
X49749Y34132D01*
X49679Y33600D01*
X53100D01*
Y37021D01*
D02*
G37*
G36*
X54100D02*
Y33600D01*
X57521D01*
X57451Y34132D01*
X57053Y35093D01*
X56419Y35919D01*
X55593Y36553D01*
X54632Y36951D01*
X54100Y37021D01*
D02*
G37*
G36*
X4500Y109921D02*
X3968Y109851D01*
X3007Y109453D01*
X2181Y108819D01*
X1547Y107993D01*
X1149Y107032D01*
X1079Y106500D01*
X4500D01*
Y109921D01*
D02*
G37*
G36*
X247500D02*
Y106500D01*
X250921D01*
X250851Y107032D01*
X250453Y107993D01*
X249819Y108819D01*
X248993Y109453D01*
X248032Y109851D01*
X247500Y109921D01*
D02*
G37*
G36*
X5000Y129987D02*
X3968Y129851D01*
X3007Y129453D01*
X2181Y128819D01*
X1547Y127993D01*
X1149Y127032D01*
X1013Y126000D01*
X1149Y124968D01*
X1547Y124007D01*
X2181Y123181D01*
X3007Y122547D01*
X3968Y122149D01*
X5000Y122013D01*
X6032Y122149D01*
X6993Y122547D01*
X7819Y123181D01*
X8453Y124007D01*
X8851Y124968D01*
X8987Y126000D01*
X8851Y127032D01*
X8453Y127993D01*
X7819Y128819D01*
X6993Y129453D01*
X6032Y129851D01*
X5000Y129987D01*
D02*
G37*
G36*
X250921Y105500D02*
X247500D01*
Y102079D01*
X248032Y102149D01*
X248993Y102547D01*
X249819Y103181D01*
X250453Y104007D01*
X250851Y104968D01*
X250921Y105500D01*
D02*
G37*
G36*
X167900Y100724D02*
X167011Y100547D01*
X166256Y100043D01*
X165753Y99289D01*
X165576Y98400D01*
X165753Y97511D01*
X166256Y96757D01*
X166524Y96578D01*
Y71422D01*
X166256Y71243D01*
X165753Y70489D01*
X165593Y69686D01*
X164900Y69824D01*
X164011Y69647D01*
X163257Y69143D01*
X162753Y68389D01*
X162576Y67500D01*
X162753Y66611D01*
X163257Y65857D01*
X163524Y65678D01*
Y56489D01*
X163156Y56243D01*
X162653Y55489D01*
X162476Y54600D01*
X162653Y53711D01*
X163156Y52957D01*
X163911Y52453D01*
X164800Y52276D01*
X165689Y52453D01*
X166444Y52957D01*
X166947Y53711D01*
X167124Y54600D01*
X166947Y55489D01*
X166444Y56243D01*
X166276Y56355D01*
Y65678D01*
X166543Y65857D01*
X167047Y66611D01*
X167207Y67414D01*
X167900Y67276D01*
X168789Y67453D01*
X169544Y67957D01*
X170047Y68711D01*
X170224Y69600D01*
X170047Y70489D01*
X169544Y71243D01*
X169276Y71422D01*
Y96578D01*
X169544Y96757D01*
X170047Y97511D01*
X170224Y98400D01*
X170047Y99289D01*
X169544Y100043D01*
X168789Y100547D01*
X167900Y100724D01*
D02*
G37*
G36*
X141756Y81788D02*
X140775Y81659D01*
X139862Y81281D01*
X139077Y80679D01*
X138475Y79894D01*
X138097Y78980D01*
X137968Y78000D01*
X138097Y77020D01*
X138475Y76106D01*
X139077Y75321D01*
X139862Y74719D01*
X140775Y74341D01*
X141756Y74212D01*
X142736Y74341D01*
X143650Y74719D01*
X144435Y75321D01*
X145037Y76106D01*
X145415Y77020D01*
X145544Y78000D01*
X145415Y78980D01*
X145037Y79894D01*
X144435Y80679D01*
X143650Y81281D01*
X142736Y81659D01*
X141756Y81788D01*
D02*
G37*
G36*
X59950Y128474D02*
X59061Y128297D01*
X58307Y127794D01*
X57803Y127039D01*
X57626Y126150D01*
X57803Y125261D01*
X58255Y124584D01*
Y90622D01*
X57988Y90443D01*
X57484Y89689D01*
X57307Y88800D01*
X57484Y87911D01*
X57988Y87157D01*
X58742Y86653D01*
X59631Y86476D01*
X60520Y86653D01*
X61274Y87157D01*
X61778Y87911D01*
X61955Y88800D01*
X61778Y89689D01*
X61274Y90443D01*
X61008Y90622D01*
Y124115D01*
X61593Y124506D01*
X62097Y125261D01*
X62274Y126150D01*
X62097Y127039D01*
X61593Y127794D01*
X60839Y128297D01*
X59950Y128474D01*
D02*
G37*
G36*
X171581Y13832D02*
X171101Y13769D01*
X170187Y13390D01*
X169402Y12788D01*
X168800Y12004D01*
X168422Y11090D01*
X168293Y10109D01*
Y9428D01*
X171581D01*
Y13832D01*
D02*
G37*
G36*
X172581D02*
Y9428D01*
X175869D01*
Y10109D01*
X175740Y11090D01*
X175362Y12004D01*
X174760Y12788D01*
X173975Y13390D01*
X173062Y13769D01*
X172581Y13832D01*
D02*
G37*
G36*
X176253Y20250D02*
X173626D01*
X173669Y19924D01*
X173988Y19154D01*
X174495Y18492D01*
X175156Y17985D01*
X175926Y17666D01*
X176253Y17623D01*
Y20250D01*
D02*
G37*
G36*
X204413Y8428D02*
X201124D01*
Y4025D01*
X201605Y4088D01*
X202519Y4467D01*
X203303Y5068D01*
X203905Y5853D01*
X204284Y6767D01*
X204413Y7747D01*
Y8428D01*
D02*
G37*
G36*
X171581D02*
X168293D01*
Y7747D01*
X168422Y6767D01*
X168800Y5853D01*
X169402Y5068D01*
X170187Y4467D01*
X171101Y4088D01*
X171581Y4025D01*
Y8428D01*
D02*
G37*
G36*
X175869D02*
X172581D01*
Y4025D01*
X173062Y4088D01*
X173975Y4467D01*
X174760Y5068D01*
X175362Y5853D01*
X175740Y6767D01*
X175869Y7747D01*
Y8428D01*
D02*
G37*
G36*
X200124D02*
X196836D01*
Y7747D01*
X196965Y6767D01*
X197344Y5853D01*
X197946Y5068D01*
X198730Y4467D01*
X199644Y4088D01*
X200124Y4025D01*
Y8428D01*
D02*
G37*
G36*
X196347Y23877D02*
Y21250D01*
X198974D01*
X198931Y21576D01*
X198612Y22346D01*
X198105Y23008D01*
X197444Y23515D01*
X196674Y23834D01*
X196347Y23877D01*
D02*
G37*
G36*
X63600Y37087D02*
X62568Y36951D01*
X61607Y36553D01*
X60781Y35919D01*
X60147Y35093D01*
X59749Y34132D01*
X59613Y33100D01*
X59749Y32068D01*
X60147Y31107D01*
X60781Y30281D01*
X61607Y29647D01*
X62568Y29249D01*
X63600Y29113D01*
X64632Y29249D01*
X65593Y29647D01*
X66419Y30281D01*
X67053Y31107D01*
X67451Y32068D01*
X67587Y33100D01*
X67451Y34132D01*
X67053Y35093D01*
X66419Y35919D01*
X65593Y36553D01*
X64632Y36951D01*
X63600Y37087D01*
D02*
G37*
G36*
X53100Y32600D02*
X49679D01*
X49749Y32068D01*
X50147Y31107D01*
X50781Y30281D01*
X51607Y29647D01*
X52568Y29249D01*
X53100Y29179D01*
Y32600D01*
D02*
G37*
G36*
X195347Y23877D02*
X195021Y23834D01*
X194251Y23515D01*
X193590Y23008D01*
X193082Y22346D01*
X192763Y21576D01*
X192720Y21250D01*
X195347D01*
Y23877D01*
D02*
G37*
G36*
X179880Y20250D02*
X177253D01*
Y17623D01*
X177579Y17666D01*
X178349Y17985D01*
X179010Y18492D01*
X179518Y19154D01*
X179837Y19924D01*
X179880Y20250D01*
D02*
G37*
G36*
X176253Y23877D02*
X175926Y23834D01*
X175156Y23515D01*
X174495Y23008D01*
X173988Y22346D01*
X173669Y21576D01*
X173626Y21250D01*
X176253D01*
Y23877D01*
D02*
G37*
G36*
X177253D02*
Y21250D01*
X179880D01*
X179837Y21576D01*
X179518Y22346D01*
X179010Y23008D01*
X178349Y23515D01*
X177579Y23834D01*
X177253Y23877D01*
D02*
G37*
G36*
X110244Y217788D02*
X109264Y217659D01*
X108350Y217281D01*
X107565Y216679D01*
X106963Y215894D01*
X106585Y214981D01*
X106456Y214000D01*
X106585Y213019D01*
X106963Y212106D01*
X107565Y211321D01*
X108350Y210719D01*
X109264Y210341D01*
X110244Y210212D01*
X111225Y210341D01*
X112138Y210719D01*
X112923Y211321D01*
X113525Y212106D01*
X113903Y213019D01*
X114032Y214000D01*
X113903Y214981D01*
X113525Y215894D01*
X112923Y216679D01*
X112138Y217281D01*
X111225Y217659D01*
X110244Y217788D01*
D02*
G37*
G36*
X236244D02*
X235264Y217659D01*
X234350Y217281D01*
X233565Y216679D01*
X232963Y215894D01*
X232585Y214981D01*
X232456Y214000D01*
X232585Y213019D01*
X232963Y212106D01*
X233565Y211321D01*
X234350Y210719D01*
X235264Y210341D01*
X236244Y210212D01*
X237225Y210341D01*
X238138Y210719D01*
X238923Y211321D01*
X239525Y212106D01*
X239903Y213019D01*
X240032Y214000D01*
X239903Y214981D01*
X239525Y215894D01*
X238923Y216679D01*
X238138Y217281D01*
X237225Y217659D01*
X236244Y217788D01*
D02*
G37*
G36*
X192300Y224093D02*
X191268Y223957D01*
X190307Y223559D01*
X189481Y222925D01*
X188847Y222100D01*
X188449Y221138D01*
X188313Y220106D01*
X188449Y219074D01*
X188847Y218113D01*
X189481Y217287D01*
X190307Y216654D01*
X191268Y216255D01*
X192300Y216119D01*
X193332Y216255D01*
X194293Y216654D01*
X195119Y217287D01*
X195753Y218113D01*
X196151Y219074D01*
X196287Y220106D01*
X196151Y221138D01*
X195753Y222100D01*
X195119Y222925D01*
X194293Y223559D01*
X193332Y223957D01*
X192300Y224093D01*
D02*
G37*
G36*
X15756Y217788D02*
X14775Y217659D01*
X13862Y217281D01*
X13077Y216679D01*
X12475Y215894D01*
X12097Y214981D01*
X11968Y214000D01*
X12097Y213019D01*
X12475Y212106D01*
X13077Y211321D01*
X13862Y210719D01*
X14775Y210341D01*
X15756Y210212D01*
X16736Y210341D01*
X17650Y210719D01*
X18435Y211321D01*
X19037Y212106D01*
X19415Y213019D01*
X19544Y214000D01*
X19415Y214981D01*
X19037Y215894D01*
X18435Y216679D01*
X17650Y217281D01*
X16736Y217659D01*
X15756Y217788D01*
D02*
G37*
G36*
X145512Y227756D02*
X138000D01*
Y222191D01*
X134627Y218817D01*
X134328Y218371D01*
X134224Y217844D01*
Y212800D01*
X134328Y212273D01*
X134627Y211827D01*
X138527Y207927D01*
X138973Y207628D01*
X139386Y207546D01*
X139515Y207240D01*
X139526Y207024D01*
X139077Y206679D01*
X138475Y205894D01*
X138097Y204980D01*
X137968Y204000D01*
X138097Y203019D01*
X138475Y202106D01*
X139077Y201321D01*
X139862Y200719D01*
X140775Y200341D01*
X141756Y200212D01*
X142736Y200341D01*
X143254Y200555D01*
X145624Y198186D01*
Y195784D01*
X145124Y195684D01*
X145037Y195894D01*
X144435Y196679D01*
X143650Y197281D01*
X142736Y197659D01*
X141756Y197788D01*
X140775Y197659D01*
X140258Y197445D01*
X136929Y200773D01*
X136483Y201072D01*
X135956Y201176D01*
X113442D01*
X113195Y201676D01*
X113525Y202106D01*
X113903Y203019D01*
X114032Y204000D01*
X113903Y204980D01*
X113525Y205894D01*
X112923Y206679D01*
X112138Y207281D01*
X111225Y207659D01*
X110244Y207788D01*
X109264Y207659D01*
X108350Y207281D01*
X107565Y206679D01*
X106963Y205894D01*
X106585Y204980D01*
X106456Y204000D01*
X106585Y203019D01*
X106963Y202106D01*
X107293Y201676D01*
X107046Y201176D01*
X102600D01*
X102073Y201072D01*
X101627Y200773D01*
X101627Y200773D01*
X88730Y187876D01*
X81722D01*
X81543Y188143D01*
X80789Y188647D01*
X79900Y188824D01*
X79011Y188647D01*
X78256Y188143D01*
X78078Y187876D01*
X28270D01*
X21173Y194973D01*
X20727Y195272D01*
X20200Y195376D01*
X19251D01*
X19037Y195894D01*
X18435Y196679D01*
X17650Y197281D01*
X16736Y197659D01*
X15756Y197788D01*
X14775Y197659D01*
X13862Y197281D01*
X13077Y196679D01*
X12475Y195894D01*
X12176Y195173D01*
X11676Y195273D01*
Y197974D01*
X14258Y200555D01*
X14775Y200341D01*
X15756Y200212D01*
X16736Y200341D01*
X17650Y200719D01*
X18435Y201321D01*
X19037Y202106D01*
X19415Y203019D01*
X19544Y204000D01*
X19415Y204980D01*
X19037Y205894D01*
X18435Y206679D01*
X17650Y207281D01*
X16736Y207659D01*
X15756Y207788D01*
X14775Y207659D01*
X13862Y207281D01*
X13077Y206679D01*
X12475Y205894D01*
X12097Y204980D01*
X11968Y204000D01*
X12097Y203019D01*
X12311Y202502D01*
X9327Y199517D01*
X9028Y199071D01*
X8924Y198544D01*
Y192500D01*
X9028Y191973D01*
X9327Y191527D01*
X12727Y188127D01*
X12727Y188127D01*
X13173Y187828D01*
X13659Y187732D01*
X13749Y187551D01*
X13787Y187224D01*
X13077Y186679D01*
X12475Y185894D01*
X12097Y184980D01*
X11968Y184000D01*
X12097Y183019D01*
X12475Y182106D01*
X13077Y181321D01*
X13862Y180719D01*
X14775Y180341D01*
X15756Y180212D01*
X16736Y180341D01*
X17650Y180719D01*
X18435Y181321D01*
X19037Y182106D01*
X19415Y183019D01*
X19544Y184000D01*
X19415Y184980D01*
X19037Y185894D01*
X18435Y186679D01*
X17725Y187224D01*
X17757Y187506D01*
X17861Y187724D01*
X18930D01*
X26027Y180627D01*
X26473Y180328D01*
X26566Y180310D01*
X26796Y179754D01*
X26753Y179689D01*
X26576Y178800D01*
X26753Y177911D01*
X27257Y177156D01*
X28011Y176653D01*
X28651Y176525D01*
X29438Y175738D01*
X29247Y175276D01*
X19293D01*
X19037Y175894D01*
X18435Y176679D01*
X17650Y177281D01*
X16736Y177659D01*
X15756Y177788D01*
X14775Y177659D01*
X13862Y177281D01*
X13077Y176679D01*
X12475Y175894D01*
X12097Y174980D01*
X11968Y174000D01*
X12097Y173020D01*
X12475Y172106D01*
X13077Y171321D01*
X13862Y170719D01*
X14775Y170341D01*
X15756Y170212D01*
X16736Y170341D01*
X17650Y170719D01*
X18435Y171321D01*
X19037Y172106D01*
X19210Y172524D01*
X42187D01*
X42580Y172023D01*
X42476Y171500D01*
X42653Y170611D01*
X43156Y169857D01*
X43911Y169353D01*
X44800Y169176D01*
X45115Y169238D01*
X46477Y167876D01*
X46270Y167376D01*
X36522D01*
X36344Y167643D01*
X35589Y168147D01*
X34700Y168324D01*
X33811Y168147D01*
X33057Y167643D01*
X32553Y166889D01*
X32456Y166403D01*
X31900Y166173D01*
X31489Y166447D01*
X30600Y166624D01*
X29711Y166447D01*
X29258Y166746D01*
X29173Y166873D01*
X28378Y167668D01*
X28424Y167900D01*
X28247Y168789D01*
X27744Y169544D01*
X26989Y170047D01*
X26100Y170224D01*
X25211Y170047D01*
X24456Y169544D01*
X23953Y168789D01*
X23776Y167900D01*
X23447Y167572D01*
X23172Y167937D01*
X23224Y168200D01*
X23047Y169089D01*
X22544Y169843D01*
X21789Y170347D01*
X20900Y170524D01*
X20011Y170347D01*
X19256Y169843D01*
X18753Y169089D01*
X18576Y168200D01*
X18753Y167311D01*
X19256Y166557D01*
X19348Y166496D01*
X19325Y166339D01*
X18801Y166201D01*
X18435Y166679D01*
X17650Y167281D01*
X16736Y167659D01*
X15756Y167788D01*
X14775Y167659D01*
X13862Y167281D01*
X13077Y166679D01*
X12475Y165894D01*
X12097Y164980D01*
X11968Y164000D01*
X12097Y163020D01*
X12475Y162106D01*
X13077Y161321D01*
X13862Y160719D01*
X14775Y160341D01*
X15756Y160212D01*
X16736Y160341D01*
X17254Y160555D01*
X19324Y158486D01*
Y156342D01*
X18824Y156172D01*
X18435Y156679D01*
X17650Y157281D01*
X16736Y157659D01*
X15756Y157788D01*
X14775Y157659D01*
X13862Y157281D01*
X13077Y156679D01*
X12475Y155894D01*
X12097Y154981D01*
X11968Y154000D01*
X12097Y153019D01*
X12475Y152106D01*
X13077Y151321D01*
X13862Y150719D01*
X14775Y150341D01*
X15624Y150229D01*
Y118122D01*
X15357Y117944D01*
X14853Y117189D01*
X14676Y116300D01*
X14853Y115411D01*
X15357Y114656D01*
X16111Y114153D01*
X17000Y113976D01*
X17889Y114153D01*
X18643Y114656D01*
X19147Y115411D01*
X19324Y116300D01*
X19147Y117189D01*
X18643Y117944D01*
X18376Y118122D01*
Y118974D01*
X18876Y119126D01*
X19057Y118857D01*
X19811Y118353D01*
X20700Y118176D01*
X21153Y118266D01*
X21653Y117856D01*
Y114000D01*
X13301Y105648D01*
X12839Y105839D01*
Y110200D01*
X12684Y110980D01*
X12242Y111642D01*
X8858Y115025D01*
X8987Y116000D01*
X8851Y117032D01*
X8453Y117993D01*
X7819Y118819D01*
X6993Y119453D01*
X6032Y119851D01*
X5000Y119987D01*
X3968Y119851D01*
X3007Y119453D01*
X2181Y118819D01*
X1547Y117993D01*
X1149Y117032D01*
X1013Y116000D01*
X1149Y114968D01*
X1547Y114007D01*
X2181Y113181D01*
X3007Y112547D01*
X3968Y112149D01*
X5000Y112013D01*
X5975Y112142D01*
X8761Y109355D01*
Y108413D01*
X8261Y108244D01*
X7819Y108819D01*
X6993Y109453D01*
X6032Y109851D01*
X5500Y109921D01*
Y106000D01*
X5000D01*
Y105500D01*
X1079D01*
X1149Y104968D01*
X1547Y104007D01*
X2181Y103181D01*
X3007Y102547D01*
X3968Y102149D01*
X4942Y102021D01*
X5076Y101851D01*
X5221Y101538D01*
X5116Y101380D01*
X4961Y100600D01*
Y26200D01*
X5116Y25420D01*
X5558Y24758D01*
X9458Y20858D01*
X10120Y20416D01*
X10900Y20261D01*
X62800D01*
X63580Y20416D01*
X64242Y20858D01*
X72531Y29147D01*
X77553D01*
Y37053D01*
X69647D01*
Y32031D01*
X61955Y24339D01*
X17976D01*
X17806Y24839D01*
X18435Y25321D01*
X19037Y26106D01*
X19415Y27020D01*
X19544Y28000D01*
X19415Y28980D01*
X19037Y29894D01*
X18435Y30679D01*
X17650Y31281D01*
X16736Y31659D01*
X15756Y31788D01*
X14775Y31659D01*
X13862Y31281D01*
X13077Y30679D01*
X12475Y29894D01*
X12097Y28980D01*
X11968Y28000D01*
X12097Y27020D01*
X12475Y26106D01*
X13077Y25321D01*
X13705Y24839D01*
X13536Y24339D01*
X11745D01*
X9039Y27045D01*
Y45256D01*
X9539Y45407D01*
X9727Y45127D01*
X12827Y42027D01*
X13273Y41728D01*
X13552Y41673D01*
X13676Y41138D01*
X13077Y40679D01*
X12475Y39894D01*
X12097Y38980D01*
X11968Y38000D01*
X12097Y37020D01*
X12475Y36106D01*
X13077Y35321D01*
X13862Y34719D01*
X14775Y34341D01*
X15756Y34212D01*
X16736Y34341D01*
X17650Y34719D01*
X18435Y35321D01*
X19037Y36106D01*
X19415Y37020D01*
X19544Y38000D01*
X19415Y38980D01*
X19037Y39894D01*
X18435Y40679D01*
X17855Y41124D01*
X18025Y41624D01*
X46600D01*
X47127Y41728D01*
X47573Y42027D01*
X50270Y44724D01*
X60625D01*
X60776Y44224D01*
X60657Y44144D01*
X60153Y43389D01*
X59976Y42500D01*
X60153Y41611D01*
X60657Y40857D01*
X61411Y40353D01*
X62300Y40176D01*
X63189Y40353D01*
X63943Y40857D01*
X64122Y41124D01*
X95174D01*
X106799Y29498D01*
X106585Y28980D01*
X106456Y28000D01*
X106585Y27020D01*
X106963Y26106D01*
X107565Y25321D01*
X108350Y24719D01*
X109264Y24341D01*
X110244Y24212D01*
X111225Y24341D01*
X112138Y24719D01*
X112923Y25321D01*
X113525Y26106D01*
X113903Y27020D01*
X114032Y28000D01*
X113903Y28980D01*
X113525Y29894D01*
X112923Y30679D01*
X112138Y31281D01*
X111225Y31659D01*
X110244Y31788D01*
X109264Y31659D01*
X108746Y31445D01*
X96717Y43473D01*
X96271Y43772D01*
X95744Y43876D01*
X64136D01*
X64046Y43991D01*
X63943Y44144D01*
X63902Y44171D01*
X63834Y44257D01*
X63975Y44724D01*
X72100D01*
X72627Y44828D01*
X73073Y45127D01*
X81485Y53539D01*
X81800Y53476D01*
X82689Y53653D01*
X83443Y54157D01*
X83947Y54911D01*
X84124Y55800D01*
X83947Y56689D01*
X83443Y57443D01*
X82689Y57947D01*
X81800Y58124D01*
X80911Y57947D01*
X80157Y57443D01*
X79653Y56689D01*
X79476Y55800D01*
X79539Y55485D01*
X71530Y47476D01*
X49700D01*
X49173Y47372D01*
X48727Y47073D01*
X46030Y44376D01*
X18025D01*
X17855Y44876D01*
X18435Y45321D01*
X19037Y46106D01*
X19415Y47019D01*
X19544Y48000D01*
X19415Y48981D01*
X19201Y49498D01*
X38573Y68871D01*
X38872Y69317D01*
X38976Y69844D01*
X38976Y69844D01*
Y89321D01*
X39222Y89452D01*
X39476Y89540D01*
X40300Y89376D01*
X41189Y89553D01*
X41943Y90057D01*
X42447Y90811D01*
X42624Y91700D01*
X42447Y92589D01*
X41943Y93343D01*
X41676Y93522D01*
Y110178D01*
X41943Y110356D01*
X42162Y110683D01*
X42632Y110488D01*
X42476Y109700D01*
X42653Y108811D01*
X43156Y108056D01*
X43424Y107878D01*
Y99222D01*
X43156Y99043D01*
X42653Y98289D01*
X42476Y97400D01*
X42653Y96511D01*
X43156Y95757D01*
X43911Y95253D01*
X44800Y95076D01*
X45689Y95253D01*
X46444Y95757D01*
X46947Y96511D01*
X47124Y97400D01*
X46947Y98289D01*
X46444Y99043D01*
X46176Y99222D01*
Y107878D01*
X46444Y108056D01*
X46947Y108811D01*
X47124Y109700D01*
X46947Y110589D01*
X46444Y111344D01*
X45689Y111847D01*
X44800Y112024D01*
X43911Y111847D01*
X43156Y111344D01*
X42939Y111017D01*
X42467Y111212D01*
X42624Y112000D01*
X42447Y112889D01*
X41943Y113644D01*
X41189Y114147D01*
X40300Y114324D01*
X39593Y114184D01*
X39236Y114556D01*
X39248Y114801D01*
X43335Y118888D01*
X43650Y118826D01*
X44539Y119003D01*
X45294Y119507D01*
X45797Y120261D01*
X45974Y121150D01*
X45797Y122039D01*
X45294Y122793D01*
X44539Y123297D01*
X43650Y123474D01*
X42761Y123297D01*
X42006Y122793D01*
X41503Y122039D01*
X41326Y121150D01*
X41388Y120835D01*
X36806Y116253D01*
X36306Y116460D01*
Y121859D01*
X43335Y128888D01*
X43650Y128826D01*
X44539Y129003D01*
X45294Y129507D01*
X45797Y130261D01*
X45974Y131150D01*
X45797Y132039D01*
X45294Y132793D01*
X44539Y133297D01*
X44048Y133395D01*
Y133905D01*
X44539Y134003D01*
X45294Y134506D01*
X45797Y135261D01*
X45974Y136150D01*
X45797Y137039D01*
X45294Y137794D01*
X44539Y138297D01*
X43748Y138455D01*
Y138965D01*
X43939Y139003D01*
X44693Y139506D01*
X45197Y140261D01*
X45374Y141150D01*
X45197Y142039D01*
X44693Y142794D01*
X43939Y143297D01*
X43050Y143474D01*
X42161Y143297D01*
X41407Y142794D01*
X40903Y142039D01*
X40726Y141150D01*
X40788Y140835D01*
X30038Y130085D01*
X29576Y130276D01*
Y161687D01*
X30077Y162080D01*
X30600Y161976D01*
X30915Y162039D01*
X35627Y157327D01*
X36073Y157028D01*
X36600Y156924D01*
X54430D01*
X60524Y150830D01*
Y132822D01*
X60257Y132643D01*
X59753Y131889D01*
X59576Y131000D01*
X59753Y130111D01*
X60257Y129357D01*
X61011Y128853D01*
X61900Y128676D01*
X62789Y128853D01*
X63124Y129076D01*
X63624Y128809D01*
Y83822D01*
X63357Y83643D01*
X62853Y82889D01*
X62676Y82000D01*
X62853Y81111D01*
X63357Y80357D01*
X64111Y79853D01*
X65000Y79676D01*
X65889Y79853D01*
X66643Y80357D01*
X67147Y81111D01*
X67324Y82000D01*
X67147Y82889D01*
X66643Y83643D01*
X66376Y83822D01*
Y134378D01*
X66643Y134556D01*
X67147Y135311D01*
X67324Y136200D01*
X67147Y137089D01*
X66643Y137844D01*
X66376Y138022D01*
Y154500D01*
X66377Y154500D01*
X66272Y155027D01*
X65973Y155473D01*
X65973Y155473D01*
X57373Y164073D01*
X57298Y164124D01*
X57450Y164624D01*
X60830D01*
X81473Y143980D01*
X81227Y143519D01*
X80700Y143624D01*
X79811Y143447D01*
X79057Y142944D01*
X78553Y142189D01*
X78376Y141300D01*
X78553Y140411D01*
X78916Y139867D01*
Y112833D01*
X78553Y112289D01*
X78376Y111400D01*
X78553Y110511D01*
X78916Y109967D01*
Y82968D01*
X78811Y82947D01*
X78057Y82443D01*
X77553Y81689D01*
X77376Y80800D01*
X77553Y79911D01*
X78057Y79157D01*
X78811Y78653D01*
X79451Y78525D01*
X86400Y71576D01*
X86205Y71076D01*
X55970D01*
X46262Y80785D01*
X46324Y81100D01*
X46147Y81989D01*
X45643Y82743D01*
X44889Y83247D01*
X44000Y83424D01*
X43111Y83247D01*
X42357Y82743D01*
X41853Y81989D01*
X41676Y81100D01*
X41853Y80211D01*
X42357Y79457D01*
X43111Y78953D01*
X44000Y78776D01*
X44315Y78838D01*
X44698Y78455D01*
X44452Y77995D01*
X43800Y78124D01*
X42911Y77947D01*
X42156Y77443D01*
X41653Y76689D01*
X41476Y75800D01*
X41653Y74911D01*
X42156Y74157D01*
X42911Y73653D01*
X43800Y73476D01*
X44115Y73539D01*
X50015Y67638D01*
X49824Y67176D01*
X46022D01*
X45843Y67443D01*
X45089Y67947D01*
X44200Y68124D01*
X43311Y67947D01*
X42557Y67443D01*
X42053Y66689D01*
X41876Y65800D01*
X42053Y64911D01*
X42557Y64157D01*
X43311Y63653D01*
X44200Y63476D01*
X45089Y63653D01*
X45843Y64157D01*
X46022Y64424D01*
X101874D01*
X106799Y59498D01*
X106585Y58981D01*
X106456Y58000D01*
X106585Y57020D01*
X106963Y56106D01*
X107565Y55321D01*
X107648Y55258D01*
X107487Y54784D01*
X101039D01*
X94975Y60849D01*
X94847Y61489D01*
X94343Y62243D01*
X93589Y62747D01*
X92700Y62924D01*
X91811Y62747D01*
X91057Y62243D01*
X90553Y61489D01*
X90376Y60600D01*
X90553Y59711D01*
X91057Y58957D01*
X91811Y58453D01*
X92451Y58325D01*
X99038Y51738D01*
X99038Y51738D01*
X99617Y51351D01*
X100300Y51216D01*
X107487D01*
X107648Y50742D01*
X107565Y50679D01*
X106963Y49894D01*
X106585Y48981D01*
X106456Y48000D01*
X106585Y47019D01*
X106963Y46106D01*
X107565Y45321D01*
X108350Y44719D01*
X109264Y44341D01*
X110244Y44212D01*
X111225Y44341D01*
X112138Y44719D01*
X112923Y45321D01*
X113525Y46106D01*
X113903Y47019D01*
X114032Y48000D01*
X113903Y48981D01*
X113525Y49894D01*
X112923Y50679D01*
X112840Y50742D01*
X113001Y51216D01*
X134367D01*
X134911Y50853D01*
X135800Y50676D01*
X136689Y50853D01*
X137443Y51357D01*
X137947Y52111D01*
X138124Y53000D01*
X137947Y53889D01*
X137443Y54643D01*
X136689Y55147D01*
X135800Y55324D01*
X134911Y55147D01*
X134367Y54784D01*
X113001D01*
X112840Y55258D01*
X112923Y55321D01*
X113525Y56106D01*
X113903Y57020D01*
X114032Y58000D01*
X113903Y58981D01*
X113689Y59498D01*
X121316Y67125D01*
X122673Y68483D01*
X122673Y68483D01*
X122972Y68929D01*
X123076Y69456D01*
X123076Y69456D01*
Y93678D01*
X123344Y93857D01*
X123847Y94611D01*
X124024Y95500D01*
X123847Y96389D01*
X123344Y97143D01*
X122589Y97647D01*
X121700Y97824D01*
X120811Y97647D01*
X120056Y97143D01*
X119553Y96389D01*
X119376Y95500D01*
X119477Y94992D01*
X119132Y94609D01*
X118666Y94640D01*
X118376Y94950D01*
Y98830D01*
X121670Y102124D01*
X137680D01*
X138000Y101756D01*
Y94244D01*
X145044D01*
X145346Y94244D01*
X145583Y93774D01*
X143254Y91445D01*
X142736Y91659D01*
X141756Y91788D01*
X140775Y91659D01*
X139862Y91281D01*
X139077Y90679D01*
X138475Y89894D01*
X138097Y88981D01*
X137968Y88000D01*
X138097Y87019D01*
X138475Y86106D01*
X139077Y85321D01*
X139862Y84719D01*
X140775Y84341D01*
X141756Y84212D01*
X142736Y84341D01*
X143650Y84719D01*
X144435Y85321D01*
X145037Y86106D01*
X145415Y87019D01*
X145544Y88000D01*
X145415Y88981D01*
X145201Y89498D01*
X153373Y97671D01*
X153373Y97671D01*
X153672Y98117D01*
X153777Y98644D01*
X153776Y98644D01*
Y162624D01*
X154276Y162776D01*
X154557Y162356D01*
X154824Y162178D01*
Y96270D01*
X147627Y89073D01*
X147328Y88627D01*
X147224Y88100D01*
Y61522D01*
X146957Y61343D01*
X146453Y60589D01*
X146276Y59700D01*
X146453Y58811D01*
X146957Y58057D01*
X147224Y57878D01*
Y45414D01*
X143254Y41445D01*
X142736Y41659D01*
X141756Y41788D01*
X140775Y41659D01*
X139862Y41281D01*
X139077Y40679D01*
X138475Y39894D01*
X138097Y38980D01*
X137968Y38000D01*
X138097Y37020D01*
X138475Y36106D01*
X139077Y35321D01*
X139862Y34719D01*
X140775Y34341D01*
X141756Y34212D01*
X142736Y34341D01*
X143650Y34719D01*
X144435Y35321D01*
X145037Y36106D01*
X145415Y37020D01*
X145544Y38000D01*
X145415Y38980D01*
X145201Y39498D01*
X149573Y43871D01*
X149573Y43871D01*
X149872Y44317D01*
X149976Y44844D01*
Y57878D01*
X150243Y58057D01*
X150747Y58811D01*
X150924Y59700D01*
X150747Y60589D01*
X150243Y61343D01*
X149976Y61522D01*
Y87530D01*
X157173Y94727D01*
X157173Y94727D01*
X157472Y95173D01*
X157576Y95700D01*
Y151414D01*
X158076Y151697D01*
X158124Y151669D01*
Y82722D01*
X157857Y82543D01*
X157353Y81789D01*
X157176Y80900D01*
X157353Y80011D01*
X157857Y79257D01*
X158124Y79078D01*
Y46314D01*
X143254Y31445D01*
X142736Y31659D01*
X141756Y31788D01*
X140775Y31659D01*
X139862Y31281D01*
X139077Y30679D01*
X138475Y29894D01*
X138097Y28980D01*
X137968Y28000D01*
X138097Y27020D01*
X138475Y26106D01*
X139077Y25321D01*
X139862Y24719D01*
X140775Y24341D01*
X141756Y24212D01*
X142736Y24341D01*
X143650Y24719D01*
X144435Y25321D01*
X145037Y26106D01*
X145415Y27020D01*
X145544Y28000D01*
X145415Y28980D01*
X145201Y29498D01*
X160473Y44771D01*
X160772Y45217D01*
X160876Y45744D01*
Y79078D01*
X161144Y79257D01*
X161647Y80011D01*
X161824Y80900D01*
X161647Y81789D01*
X161144Y82543D01*
X160876Y82722D01*
Y152178D01*
X161144Y152357D01*
X161647Y153111D01*
X161824Y154000D01*
X161647Y154889D01*
X161144Y155643D01*
X160389Y156147D01*
X159500Y156324D01*
X158611Y156147D01*
X158076Y155790D01*
X157576Y156056D01*
Y162178D01*
X157843Y162356D01*
X158347Y163111D01*
X158524Y164000D01*
X158347Y164889D01*
X157843Y165644D01*
X157089Y166147D01*
X156200Y166324D01*
X155311Y166147D01*
X154557Y165644D01*
X154276Y165224D01*
X153776Y165376D01*
Y203356D01*
X153777Y203356D01*
X153672Y203883D01*
X153373Y204329D01*
X153373Y204329D01*
X145201Y212502D01*
X145415Y213019D01*
X145544Y214000D01*
X145415Y214981D01*
X145037Y215894D01*
X144435Y216679D01*
X143650Y217281D01*
X142736Y217659D01*
X141756Y217788D01*
X140775Y217659D01*
X139862Y217281D01*
X139077Y216679D01*
X138475Y215894D01*
X138097Y214981D01*
X137968Y214000D01*
X138097Y213019D01*
X138141Y212913D01*
X137717Y212630D01*
X136976Y213370D01*
Y217274D01*
X139947Y220244D01*
X145512D01*
Y227756D01*
D02*
G37*
G36*
X42700Y208824D02*
X41811Y208647D01*
X41057Y208143D01*
X40553Y207389D01*
X40376Y206500D01*
X40553Y205611D01*
X41057Y204856D01*
X41811Y204353D01*
X42700Y204176D01*
X43589Y204353D01*
X44344Y204856D01*
X44847Y205611D01*
X45024Y206500D01*
X44847Y207389D01*
X44344Y208143D01*
X43589Y208647D01*
X42700Y208824D01*
D02*
G37*
G36*
X158700Y213530D02*
X157786Y213410D01*
X156935Y213057D01*
X156204Y212496D01*
X155643Y211765D01*
X155290Y210914D01*
X155170Y210000D01*
X155290Y209086D01*
X155643Y208235D01*
X156204Y207504D01*
X156935Y206943D01*
X157786Y206590D01*
X158700Y206470D01*
X159614Y206590D01*
X160465Y206943D01*
X161196Y207504D01*
X161757Y208235D01*
X162110Y209086D01*
X162230Y210000D01*
X162110Y210914D01*
X161757Y211765D01*
X161196Y212496D01*
X160465Y213057D01*
X159614Y213410D01*
X158700Y213530D01*
D02*
G37*
G36*
X202300Y224093D02*
X201268Y223957D01*
X200307Y223559D01*
X199481Y222925D01*
X198847Y222100D01*
X198449Y221138D01*
X198313Y220106D01*
X198449Y219074D01*
X198847Y218113D01*
X199481Y217287D01*
X200307Y216654D01*
X201268Y216255D01*
X202300Y216119D01*
X203332Y216255D01*
X204293Y216654D01*
X205119Y217287D01*
X205753Y218113D01*
X206151Y219074D01*
X206287Y220106D01*
X206151Y221138D01*
X205753Y222100D01*
X205119Y222925D01*
X204293Y223559D01*
X203332Y223957D01*
X202300Y224093D01*
D02*
G37*
G36*
X19512Y227756D02*
X12000D01*
Y220244D01*
X19512D01*
Y227756D01*
D02*
G37*
G36*
X181800Y224027D02*
X181268Y223957D01*
X180307Y223559D01*
X179481Y222925D01*
X178847Y222100D01*
X178449Y221138D01*
X178379Y220606D01*
X181800D01*
Y224027D01*
D02*
G37*
G36*
X182800D02*
Y220606D01*
X186221D01*
X186151Y221138D01*
X185753Y222100D01*
X185119Y222925D01*
X184293Y223559D01*
X183332Y223957D01*
X182800Y224027D01*
D02*
G37*
G36*
X236244Y227788D02*
X235264Y227659D01*
X234350Y227281D01*
X233565Y226679D01*
X232963Y225894D01*
X232585Y224980D01*
X232456Y224000D01*
X232585Y223020D01*
X232963Y222106D01*
X233565Y221321D01*
X234350Y220719D01*
X235264Y220341D01*
X236244Y220212D01*
X237225Y220341D01*
X238138Y220719D01*
X238923Y221321D01*
X239525Y222106D01*
X239903Y223020D01*
X240032Y224000D01*
X239903Y224980D01*
X239525Y225894D01*
X238923Y226679D01*
X238138Y227281D01*
X237225Y227659D01*
X236244Y227788D01*
D02*
G37*
G36*
X181800Y219606D02*
X178379D01*
X178449Y219074D01*
X178847Y218113D01*
X179481Y217287D01*
X180307Y216654D01*
X181268Y216255D01*
X181800Y216185D01*
Y219606D01*
D02*
G37*
G36*
X186221D02*
X182800D01*
Y216185D01*
X183332Y216255D01*
X184293Y216654D01*
X185119Y217287D01*
X185753Y218113D01*
X186151Y219074D01*
X186221Y219606D01*
D02*
G37*
G36*
X110244Y227788D02*
X109264Y227659D01*
X108350Y227281D01*
X107565Y226679D01*
X106963Y225894D01*
X106585Y224980D01*
X106456Y224000D01*
X106585Y223020D01*
X106963Y222106D01*
X107565Y221321D01*
X108350Y220719D01*
X109264Y220341D01*
X110244Y220212D01*
X111225Y220341D01*
X112138Y220719D01*
X112923Y221321D01*
X113525Y222106D01*
X113903Y223020D01*
X114032Y224000D01*
X113903Y224980D01*
X113525Y225894D01*
X112923Y226679D01*
X112138Y227281D01*
X111225Y227659D01*
X110244Y227788D01*
D02*
G37*
G36*
X185194Y235039D02*
X184413Y234884D01*
X183752Y234442D01*
X183752Y234442D01*
X173369Y224059D01*
X168347D01*
Y222039D01*
X162200D01*
Y223500D01*
X155200D01*
Y216500D01*
X162200D01*
Y217961D01*
X168347D01*
Y216154D01*
X176253D01*
Y221175D01*
X186038Y230961D01*
X235455D01*
X243961Y222455D01*
Y156745D01*
X240434Y153218D01*
X239960Y153451D01*
X240032Y154000D01*
X239903Y154981D01*
X239525Y155894D01*
X238923Y156679D01*
X238138Y157281D01*
X237225Y157659D01*
X236244Y157788D01*
X235264Y157659D01*
X234350Y157281D01*
X233565Y156679D01*
X232963Y155894D01*
X232585Y154981D01*
X232456Y154000D01*
X232585Y153019D01*
X232799Y152502D01*
X227627Y147329D01*
X227328Y146883D01*
X227223Y146356D01*
Y98855D01*
X226724Y98806D01*
X226647Y99189D01*
X226143Y99943D01*
X225876Y100122D01*
Y171686D01*
X234746Y180555D01*
X235264Y180341D01*
X236244Y180212D01*
X237225Y180341D01*
X238138Y180719D01*
X238923Y181321D01*
X239525Y182106D01*
X239903Y183019D01*
X240032Y184000D01*
X239903Y184980D01*
X239525Y185894D01*
X238923Y186679D01*
X238800Y186773D01*
X238924Y187308D01*
X239027Y187328D01*
X239473Y187627D01*
X242673Y190827D01*
X242673Y190827D01*
X242972Y191273D01*
X243076Y191800D01*
Y198544D01*
X242972Y199071D01*
X242673Y199517D01*
X239689Y202502D01*
X239903Y203019D01*
X240032Y204000D01*
X239903Y204980D01*
X239525Y205894D01*
X238923Y206679D01*
X238138Y207281D01*
X237225Y207659D01*
X236244Y207788D01*
X235264Y207659D01*
X234350Y207281D01*
X233565Y206679D01*
X232963Y205894D01*
X232585Y204980D01*
X232456Y204000D01*
X232585Y203019D01*
X232963Y202106D01*
X233565Y201321D01*
X234350Y200719D01*
X235264Y200341D01*
X236244Y200212D01*
X237225Y200341D01*
X237742Y200555D01*
X240323Y197974D01*
Y195273D01*
X239824Y195173D01*
X239525Y195894D01*
X238923Y196679D01*
X238138Y197281D01*
X237225Y197659D01*
X236244Y197788D01*
X235264Y197659D01*
X234350Y197281D01*
X233565Y196679D01*
X232963Y195894D01*
X232585Y194981D01*
X232456Y194000D01*
X232585Y193019D01*
X232963Y192106D01*
X233565Y191321D01*
X234350Y190719D01*
X234936Y190476D01*
X234837Y189976D01*
X231700D01*
X231173Y189872D01*
X230727Y189573D01*
X218827Y177673D01*
X218528Y177227D01*
X218424Y176700D01*
Y94322D01*
X218157Y94143D01*
X217653Y93389D01*
X217476Y92500D01*
X217653Y91611D01*
X218157Y90857D01*
X218424Y90678D01*
Y79922D01*
X218157Y79743D01*
X217653Y78989D01*
X217476Y78100D01*
X217653Y77211D01*
X218157Y76457D01*
X218911Y75953D01*
X219800Y75776D01*
X220689Y75953D01*
X221443Y76457D01*
X221947Y77211D01*
X222124Y78100D01*
X221947Y78989D01*
X221443Y79743D01*
X221177Y79922D01*
Y90678D01*
X221443Y90857D01*
X221947Y91611D01*
X222124Y92500D01*
X221947Y93389D01*
X221443Y94143D01*
X221177Y94322D01*
Y176130D01*
X232270Y187224D01*
X233498D01*
X233658Y186750D01*
X233565Y186679D01*
X232963Y185894D01*
X232585Y184980D01*
X232456Y184000D01*
X232585Y183019D01*
X232799Y182502D01*
X223527Y173229D01*
X223228Y172783D01*
X223124Y172256D01*
Y100122D01*
X222857Y99943D01*
X222353Y99189D01*
X222176Y98300D01*
X222353Y97411D01*
X222857Y96657D01*
X223124Y96478D01*
Y69744D01*
X223228Y69217D01*
X223527Y68771D01*
X232799Y59498D01*
X232585Y58981D01*
X232456Y58000D01*
X232585Y57020D01*
X232963Y56106D01*
X233565Y55321D01*
X234350Y54719D01*
X235264Y54341D01*
X236244Y54212D01*
X237225Y54341D01*
X238138Y54719D01*
X238923Y55321D01*
X239525Y56106D01*
X239903Y57020D01*
X239924Y57173D01*
X240423Y57140D01*
Y48860D01*
X239924Y48827D01*
X239903Y48981D01*
X239525Y49894D01*
X238923Y50679D01*
X238138Y51281D01*
X237225Y51659D01*
X236244Y51788D01*
X235264Y51659D01*
X234350Y51281D01*
X233565Y50679D01*
X232963Y49894D01*
X232585Y48981D01*
X232456Y48000D01*
X232585Y47019D01*
X232963Y46106D01*
X233565Y45321D01*
X234350Y44719D01*
X235264Y44341D01*
X236244Y44212D01*
X237225Y44341D01*
X238138Y44719D01*
X238923Y45321D01*
X239525Y46106D01*
X239903Y47019D01*
X239924Y47173D01*
X240423Y47140D01*
Y38860D01*
X239924Y38827D01*
X239903Y38980D01*
X239525Y39894D01*
X238923Y40679D01*
X238138Y41281D01*
X237225Y41659D01*
X236244Y41788D01*
X235264Y41659D01*
X234350Y41281D01*
X233565Y40679D01*
X232963Y39894D01*
X232585Y38980D01*
X232456Y38000D01*
X232585Y37020D01*
X232963Y36106D01*
X233565Y35321D01*
X234350Y34719D01*
X235264Y34341D01*
X236244Y34212D01*
X237225Y34341D01*
X238138Y34719D01*
X238923Y35321D01*
X239525Y36106D01*
X239903Y37020D01*
X239924Y37173D01*
X240423Y37140D01*
Y34126D01*
X237742Y31445D01*
X237225Y31659D01*
X236244Y31788D01*
X235264Y31659D01*
X234350Y31281D01*
X233565Y30679D01*
X232963Y29894D01*
X232585Y28980D01*
X232456Y28000D01*
X232585Y27020D01*
X232963Y26106D01*
X233565Y25321D01*
X234350Y24719D01*
X235264Y24341D01*
X236047Y24238D01*
X236252Y23735D01*
X230255Y17739D01*
X197944D01*
X197775Y18239D01*
X198105Y18492D01*
X198612Y19154D01*
X198931Y19924D01*
X198974Y20250D01*
X192720D01*
X192763Y19924D01*
X193082Y19154D01*
X193590Y18492D01*
X193920Y18239D01*
X193750Y17739D01*
X190200D01*
X189420Y17584D01*
X188832Y17191D01*
X188611Y17147D01*
X188449Y17039D01*
X184551D01*
X184389Y17147D01*
X183500Y17324D01*
X182611Y17147D01*
X182449Y17039D01*
X179551D01*
X179389Y17147D01*
X178500Y17324D01*
X177611Y17147D01*
X176857Y16644D01*
X176353Y15889D01*
X176176Y15000D01*
X176353Y14111D01*
X176857Y13356D01*
X177611Y12853D01*
X178500Y12676D01*
X179389Y12853D01*
X179551Y12961D01*
X182449D01*
X182611Y12853D01*
X183500Y12676D01*
X184389Y12853D01*
X184551Y12961D01*
X188449D01*
X188611Y12853D01*
X189500Y12676D01*
X190389Y12853D01*
X191144Y13356D01*
X191347Y13661D01*
X198262D01*
X198431Y13161D01*
X197946Y12788D01*
X197344Y12004D01*
X196965Y11090D01*
X196836Y10109D01*
Y9428D01*
X204413D01*
Y10109D01*
X204284Y11090D01*
X203905Y12004D01*
X203303Y12788D01*
X202818Y13161D01*
X202987Y13661D01*
X231100D01*
X231880Y13816D01*
X232542Y14258D01*
X245642Y27358D01*
X246084Y28020D01*
X246239Y28800D01*
Y98300D01*
X246084Y99080D01*
X245642Y99742D01*
X245642Y99742D01*
X242939Y102445D01*
Y104168D01*
X243439Y104268D01*
X243547Y104007D01*
X244181Y103181D01*
X245007Y102547D01*
X245968Y102149D01*
X246500Y102079D01*
Y106000D01*
Y109921D01*
X245968Y109851D01*
X245007Y109453D01*
X244181Y108819D01*
X243547Y107993D01*
X243439Y107732D01*
X242939Y107832D01*
Y109055D01*
X246025Y112142D01*
X247000Y112013D01*
X248032Y112149D01*
X248993Y112547D01*
X249819Y113181D01*
X250453Y114007D01*
X250851Y114968D01*
X250987Y116000D01*
X250851Y117032D01*
X250453Y117993D01*
X249819Y118819D01*
X248993Y119453D01*
X248032Y119851D01*
X247000Y119987D01*
X246025Y119859D01*
X240139Y125745D01*
Y147155D01*
X242547Y149563D01*
X243047Y149356D01*
Y142047D01*
X250953D01*
Y149953D01*
X243644D01*
X243437Y150453D01*
X247442Y154458D01*
X247884Y155120D01*
X248039Y155900D01*
Y223300D01*
X247884Y224080D01*
X247442Y224742D01*
X237742Y234442D01*
X237080Y234884D01*
X236300Y235039D01*
X185194D01*
X185194Y235039D01*
D02*
G37*
G36*
X169457Y182368D02*
X168567Y182191D01*
X167813Y181687D01*
X167309Y180933D01*
X167132Y180043D01*
X167309Y179154D01*
X167813Y178400D01*
X168080Y178221D01*
Y138010D01*
X167756Y137794D01*
X167253Y137039D01*
X167076Y136150D01*
X167253Y135261D01*
X167756Y134506D01*
X168511Y134003D01*
X169400Y133826D01*
X170289Y134003D01*
X171044Y134506D01*
X171547Y135261D01*
X171724Y136150D01*
X171547Y137039D01*
X171044Y137794D01*
X170833Y137934D01*
Y178221D01*
X171100Y178400D01*
X171604Y179154D01*
X171781Y180043D01*
X171604Y180933D01*
X171100Y181687D01*
X170346Y182191D01*
X169457Y182368D01*
D02*
G37*
G36*
X8953Y149953D02*
X1047D01*
Y142047D01*
X8953D01*
Y149953D01*
D02*
G37*
G36*
X181598Y184927D02*
X180708Y184750D01*
X179954Y184246D01*
X179450Y183492D01*
X179273Y182602D01*
X179450Y181713D01*
X179954Y180959D01*
X180221Y180780D01*
Y148253D01*
X180057Y148143D01*
X179553Y147389D01*
X179376Y146500D01*
X179553Y145611D01*
X180057Y144857D01*
X180811Y144353D01*
X181700Y144176D01*
X182589Y144353D01*
X183344Y144857D01*
X183847Y145611D01*
X184024Y146500D01*
X183847Y147389D01*
X183344Y148143D01*
X182974Y148390D01*
Y180780D01*
X183241Y180959D01*
X183745Y181713D01*
X183922Y182602D01*
X183745Y183492D01*
X183241Y184246D01*
X182487Y184750D01*
X181598Y184927D01*
D02*
G37*
G36*
X247000Y139987D02*
X245968Y139851D01*
X245007Y139453D01*
X244181Y138819D01*
X243547Y137993D01*
X243149Y137032D01*
X243013Y136000D01*
X243149Y134968D01*
X243547Y134007D01*
X244181Y133181D01*
X245007Y132547D01*
X245968Y132149D01*
X247000Y132013D01*
X248032Y132149D01*
X248993Y132547D01*
X249819Y133181D01*
X250453Y134007D01*
X250851Y134968D01*
X250987Y136000D01*
X250851Y137032D01*
X250453Y137993D01*
X249819Y138819D01*
X248993Y139453D01*
X248032Y139851D01*
X247000Y139987D01*
D02*
G37*
G36*
Y129987D02*
X245968Y129851D01*
X245007Y129453D01*
X244181Y128819D01*
X243547Y127993D01*
X243149Y127032D01*
X243013Y126000D01*
X243149Y124968D01*
X243547Y124007D01*
X244181Y123181D01*
X245007Y122547D01*
X245968Y122149D01*
X247000Y122013D01*
X248032Y122149D01*
X248993Y122547D01*
X249819Y123181D01*
X250453Y124007D01*
X250851Y124968D01*
X250987Y126000D01*
X250851Y127032D01*
X250453Y127993D01*
X249819Y128819D01*
X248993Y129453D01*
X248032Y129851D01*
X247000Y129987D01*
D02*
G37*
G36*
X214400Y148824D02*
X213511Y148647D01*
X212757Y148143D01*
X212253Y147389D01*
X212076Y146500D01*
X212253Y145611D01*
X212757Y144857D01*
X213023Y144678D01*
Y128746D01*
X212524Y128400D01*
X211900Y128524D01*
X211277Y128400D01*
X210776Y128746D01*
Y134261D01*
X211143Y134506D01*
X211647Y135261D01*
X211824Y136150D01*
X211647Y137039D01*
X211143Y137794D01*
X210389Y138297D01*
X209500Y138474D01*
X208611Y138297D01*
X207857Y137794D01*
X207353Y137039D01*
X207176Y136150D01*
X207353Y135261D01*
X207857Y134506D01*
X208024Y134395D01*
Y86787D01*
X207583Y86551D01*
X207289Y86747D01*
X206400Y86924D01*
X205977Y86840D01*
X205476Y87250D01*
Y124495D01*
X205493Y124506D01*
X205997Y125261D01*
X206174Y126150D01*
X205997Y127039D01*
X205493Y127794D01*
X204739Y128297D01*
X203850Y128474D01*
X202961Y128297D01*
X202206Y127794D01*
X201703Y127039D01*
X201526Y126150D01*
X201703Y125261D01*
X202206Y124506D01*
X202724Y124161D01*
Y85713D01*
X202694Y85565D01*
Y71402D01*
X202456Y71243D01*
X201953Y70489D01*
X201776Y69600D01*
X201953Y68711D01*
X202456Y67957D01*
X203211Y67453D01*
X203702Y67355D01*
Y66845D01*
X203211Y66747D01*
X202456Y66243D01*
X201953Y65489D01*
X201776Y64600D01*
X201953Y63711D01*
X202456Y62957D01*
X202724Y62778D01*
Y55713D01*
X202694Y55565D01*
Y53635D01*
X202724Y53487D01*
Y33978D01*
X202291Y33606D01*
X202200Y33624D01*
X201311Y33447D01*
X200556Y32943D01*
X200053Y32189D01*
X199876Y31300D01*
X200053Y30411D01*
X200556Y29656D01*
X201311Y29153D01*
X202200Y28976D01*
X203089Y29153D01*
X203843Y29656D01*
X204347Y30411D01*
X204524Y31300D01*
X204462Y31615D01*
X205073Y32227D01*
X205073Y32227D01*
X205372Y32673D01*
X205476Y33200D01*
X205476Y33200D01*
Y52509D01*
X205977Y52776D01*
X206311Y52553D01*
X207200Y52376D01*
X208089Y52553D01*
X208843Y53057D01*
X209347Y53811D01*
X209475Y54451D01*
X210262Y55238D01*
X210262Y55238D01*
X210648Y55817D01*
X210784Y56500D01*
Y69600D01*
X210648Y70283D01*
X210262Y70862D01*
X208184Y72939D01*
Y77115D01*
X208684Y77418D01*
X209400Y77276D01*
X210289Y77453D01*
X211043Y77957D01*
X211547Y78711D01*
X211724Y79600D01*
X211547Y80489D01*
X211043Y81243D01*
X210776Y81422D01*
Y87054D01*
X211277Y87400D01*
X211900Y87276D01*
X212524Y87400D01*
X213023Y87054D01*
Y76422D01*
X212757Y76243D01*
X212253Y75489D01*
X212076Y74600D01*
X212253Y73711D01*
X212757Y72957D01*
X213511Y72453D01*
X214400Y72276D01*
X215289Y72453D01*
X216043Y72957D01*
X216547Y73711D01*
X216724Y74600D01*
X216547Y75489D01*
X216043Y76243D01*
X215776Y76422D01*
Y144678D01*
X216043Y144857D01*
X216547Y145611D01*
X216724Y146500D01*
X216547Y147389D01*
X216043Y148143D01*
X215289Y148647D01*
X214400Y148824D01*
D02*
G37*
G36*
X5000Y139987D02*
X3968Y139851D01*
X3007Y139453D01*
X2181Y138819D01*
X1547Y137993D01*
X1149Y137032D01*
X1013Y136000D01*
X1149Y134968D01*
X1547Y134007D01*
X2181Y133181D01*
X3007Y132547D01*
X3968Y132149D01*
X5000Y132013D01*
X6032Y132149D01*
X6993Y132547D01*
X7819Y133181D01*
X8453Y134007D01*
X8851Y134968D01*
X8987Y136000D01*
X8851Y137032D01*
X8453Y137993D01*
X7819Y138819D01*
X6993Y139453D01*
X6032Y139851D01*
X5000Y139987D01*
D02*
G37*
G36*
X176500Y176824D02*
X175611Y176647D01*
X174856Y176144D01*
X174353Y175389D01*
X174176Y174500D01*
X174239Y174185D01*
X174127Y174073D01*
X173828Y173627D01*
X173724Y173100D01*
Y151222D01*
X173457Y151043D01*
X172953Y150289D01*
X172776Y149400D01*
X172953Y148511D01*
X173457Y147757D01*
X174211Y147253D01*
X175100Y147076D01*
X175989Y147253D01*
X176743Y147757D01*
X177247Y148511D01*
X177424Y149400D01*
X177247Y150289D01*
X176743Y151043D01*
X176476Y151222D01*
Y172157D01*
X176500Y172176D01*
X177389Y172353D01*
X178144Y172856D01*
X178647Y173611D01*
X178824Y174500D01*
X178647Y175389D01*
X178144Y176144D01*
X177389Y176647D01*
X176500Y176824D01*
D02*
G37*
G36*
X236244Y167788D02*
X235264Y167659D01*
X234350Y167281D01*
X233565Y166679D01*
X232963Y165894D01*
X232585Y164980D01*
X232456Y164000D01*
X232585Y163020D01*
X232963Y162106D01*
X233565Y161321D01*
X234350Y160719D01*
X235264Y160341D01*
X236244Y160212D01*
X237225Y160341D01*
X238138Y160719D01*
X238923Y161321D01*
X239525Y162106D01*
X239903Y163020D01*
X240032Y164000D01*
X239903Y164980D01*
X239525Y165894D01*
X238923Y166679D01*
X238138Y167281D01*
X237225Y167659D01*
X236244Y167788D01*
D02*
G37*
G36*
Y177788D02*
X235264Y177659D01*
X234350Y177281D01*
X233565Y176679D01*
X232963Y175894D01*
X232585Y174980D01*
X232456Y174000D01*
X232585Y173020D01*
X232963Y172106D01*
X233565Y171321D01*
X234350Y170719D01*
X235264Y170341D01*
X236244Y170212D01*
X237225Y170341D01*
X238138Y170719D01*
X238923Y171321D01*
X239525Y172106D01*
X239903Y173020D01*
X240032Y174000D01*
X239903Y174980D01*
X239525Y175894D01*
X238923Y176679D01*
X238138Y177281D01*
X237225Y177659D01*
X236244Y177788D01*
D02*
G37*
%LPD*%
G36*
X137727Y187927D02*
X137727Y187927D01*
X138173Y187628D01*
X138700Y187523D01*
X138700Y187524D01*
X139357D01*
X139526Y187024D01*
X139077Y186679D01*
X138475Y185894D01*
X138097Y184980D01*
X137968Y184000D01*
X138097Y183019D01*
X138475Y182106D01*
X139077Y181321D01*
X139862Y180719D01*
X140775Y180341D01*
X141756Y180212D01*
X142736Y180341D01*
X143254Y180555D01*
X145424Y178386D01*
Y176211D01*
X144924Y176042D01*
X144435Y176679D01*
X143650Y177281D01*
X142736Y177659D01*
X141756Y177788D01*
X140775Y177659D01*
X140258Y177445D01*
X138029Y179673D01*
X137583Y179972D01*
X137056Y180076D01*
X111893D01*
X111794Y180576D01*
X112138Y180719D01*
X112923Y181321D01*
X113525Y182106D01*
X113903Y183019D01*
X114032Y184000D01*
X113903Y184980D01*
X113525Y185894D01*
X112923Y186679D01*
X112138Y187281D01*
X111225Y187659D01*
X110244Y187788D01*
X109264Y187659D01*
X108350Y187281D01*
X107565Y186679D01*
X106963Y185894D01*
X106585Y184980D01*
X106456Y184000D01*
X106585Y183019D01*
X106963Y182106D01*
X107565Y181321D01*
X108350Y180719D01*
X108695Y180576D01*
X108595Y180076D01*
X105000D01*
X105000Y180077D01*
X104473Y179972D01*
X104027Y179673D01*
X104027Y179673D01*
X99630Y175276D01*
X94174D01*
X93967Y175776D01*
X108746Y190555D01*
X109264Y190341D01*
X110244Y190212D01*
X111225Y190341D01*
X112138Y190719D01*
X112923Y191321D01*
X113525Y192106D01*
X113903Y193019D01*
X114032Y194000D01*
X113903Y194981D01*
X113525Y195894D01*
X113195Y196324D01*
X113442Y196824D01*
X128830D01*
X137727Y187927D01*
D02*
G37*
G36*
X138311Y175498D02*
X138097Y174980D01*
X137968Y174000D01*
X138097Y173020D01*
X138475Y172106D01*
X139077Y171321D01*
X139862Y170719D01*
X140775Y170341D01*
X141756Y170212D01*
X142736Y170341D01*
X143650Y170719D01*
X144435Y171321D01*
X144924Y171958D01*
X145424Y171789D01*
Y166211D01*
X144924Y166042D01*
X144435Y166679D01*
X143650Y167281D01*
X142736Y167659D01*
X141756Y167788D01*
X140775Y167659D01*
X139862Y167281D01*
X139077Y166679D01*
X138475Y165894D01*
X138097Y164980D01*
X137968Y164000D01*
X138097Y163020D01*
X138475Y162106D01*
X139077Y161321D01*
X139862Y160719D01*
X140775Y160341D01*
X141756Y160212D01*
X142736Y160341D01*
X143650Y160719D01*
X144435Y161321D01*
X144924Y161958D01*
X145424Y161789D01*
Y156211D01*
X144924Y156042D01*
X144435Y156679D01*
X143650Y157281D01*
X142736Y157659D01*
X141756Y157788D01*
X140775Y157659D01*
X139862Y157281D01*
X139077Y156679D01*
X138475Y155894D01*
X138097Y154981D01*
X137968Y154000D01*
X138097Y153019D01*
X138450Y152167D01*
X138220Y151742D01*
X137753Y151693D01*
X132902Y156545D01*
X133148Y157005D01*
X133800Y156876D01*
X134689Y157053D01*
X135443Y157556D01*
X135947Y158311D01*
X136124Y159200D01*
X135947Y160089D01*
X135443Y160844D01*
X134689Y161347D01*
X133800Y161524D01*
X133485Y161461D01*
X129973Y164973D01*
X129527Y165272D01*
X129000Y165376D01*
X113739D01*
X113525Y165894D01*
X112923Y166679D01*
X112138Y167281D01*
X111225Y167659D01*
X110244Y167788D01*
X109264Y167659D01*
X108350Y167281D01*
X107565Y166679D01*
X106963Y165894D01*
X106585Y164980D01*
X106456Y164000D01*
X106585Y163020D01*
X106963Y162106D01*
X107523Y161376D01*
X107412Y160876D01*
X76370D01*
X65193Y172053D01*
X65355Y172528D01*
X65375Y172553D01*
X81446D01*
X81594Y172524D01*
X100200D01*
X100727Y172628D01*
X101173Y172927D01*
X105570Y177324D01*
X107584D01*
X107754Y176824D01*
X107565Y176679D01*
X106963Y175894D01*
X106585Y174980D01*
X106456Y174000D01*
X106585Y173020D01*
X106963Y172106D01*
X107565Y171321D01*
X108350Y170719D01*
X109264Y170341D01*
X110244Y170212D01*
X111225Y170341D01*
X111742Y170555D01*
X114271Y168027D01*
X114717Y167728D01*
X115244Y167623D01*
X115244Y167624D01*
X131978D01*
X132157Y167357D01*
X132911Y166853D01*
X133800Y166676D01*
X134689Y166853D01*
X135443Y167357D01*
X135947Y168111D01*
X136124Y169000D01*
X135947Y169889D01*
X135443Y170643D01*
X134689Y171147D01*
X133800Y171324D01*
X132911Y171147D01*
X132157Y170643D01*
X131978Y170376D01*
X115814D01*
X113689Y172502D01*
X113903Y173020D01*
X114032Y174000D01*
X113903Y174980D01*
X113525Y175894D01*
X112923Y176679D01*
X112734Y176824D01*
X112904Y177324D01*
X136486D01*
X138311Y175498D01*
D02*
G37*
G36*
X120324Y89700D02*
Y70026D01*
X119369Y69072D01*
X111742Y61445D01*
X111225Y61659D01*
X110244Y61788D01*
X109264Y61659D01*
X108746Y61445D01*
X103417Y66773D01*
X102971Y67072D01*
X102444Y67176D01*
X102020D01*
X101829Y67638D01*
X108746Y74555D01*
X109264Y74341D01*
X110244Y74212D01*
X111225Y74341D01*
X112138Y74719D01*
X112923Y75321D01*
X113525Y76106D01*
X113903Y77020D01*
X114032Y78000D01*
X113903Y78980D01*
X113525Y79894D01*
X112923Y80679D01*
X112138Y81281D01*
X111225Y81659D01*
X110244Y81788D01*
X109264Y81659D01*
X108749Y81446D01*
X108466Y81870D01*
X109114Y82518D01*
X111945D01*
X112472Y82622D01*
X112918Y82921D01*
X119773Y89776D01*
X119824Y89851D01*
X120324Y89700D01*
D02*
G37*
G36*
X36224Y85814D02*
Y70414D01*
X17254Y51445D01*
X16736Y51659D01*
X15756Y51788D01*
X14775Y51659D01*
X13862Y51281D01*
X13077Y50679D01*
X12576Y50026D01*
X12076Y50191D01*
Y52374D01*
X14258Y54555D01*
X14775Y54341D01*
X15756Y54212D01*
X16736Y54341D01*
X17650Y54719D01*
X18435Y55321D01*
X19037Y56106D01*
X19415Y57020D01*
X19544Y58000D01*
X19415Y58981D01*
X19037Y59894D01*
X18435Y60679D01*
X17650Y61281D01*
X16736Y61659D01*
X15756Y61788D01*
X14775Y61659D01*
X14258Y61445D01*
X12876Y62826D01*
Y64845D01*
X13376Y65092D01*
X13862Y64719D01*
X14775Y64341D01*
X15756Y64212D01*
X16736Y64341D01*
X17650Y64719D01*
X18435Y65321D01*
X19037Y66106D01*
X19415Y67019D01*
X19544Y68000D01*
X19415Y68980D01*
X19201Y69498D01*
X35724Y86021D01*
X36224Y85814D01*
D02*
G37*
G36*
X135838Y149715D02*
X135776Y149400D01*
X135953Y148511D01*
X136457Y147757D01*
X137211Y147253D01*
X138100Y147076D01*
X138989Y147253D01*
X139743Y147757D01*
X140247Y148511D01*
X140424Y149400D01*
X140306Y149994D01*
X140744Y150354D01*
X140775Y150341D01*
X141756Y150212D01*
X142736Y150341D01*
X143650Y150719D01*
X144435Y151321D01*
X144924Y151958D01*
X145424Y151789D01*
Y123770D01*
X140230Y118576D01*
X133922D01*
X133744Y118843D01*
X132989Y119347D01*
X132100Y119524D01*
X131211Y119347D01*
X130456Y118843D01*
X129953Y118089D01*
X129776Y117200D01*
X129925Y116450D01*
X129678Y116109D01*
X129549Y116015D01*
X129000Y116124D01*
X128111Y115947D01*
X127357Y115444D01*
X127178Y115176D01*
X109700D01*
X109700Y115176D01*
X109173Y115072D01*
X108727Y114773D01*
X103515Y109562D01*
X103200Y109624D01*
X102311Y109447D01*
X101557Y108943D01*
X101053Y108189D01*
X100876Y107300D01*
X101053Y106411D01*
X101398Y105894D01*
X101415Y105479D01*
X101254Y105278D01*
X100664Y104884D01*
X100160Y104130D01*
X99984Y103241D01*
X100160Y102351D01*
X100664Y101597D01*
X101418Y101094D01*
X101828Y101012D01*
X102221Y100429D01*
X102176Y100200D01*
X102353Y99311D01*
X102857Y98557D01*
X103611Y98053D01*
X104500Y97876D01*
X105389Y98053D01*
X106013Y98470D01*
X106464Y98251D01*
X106486Y98230D01*
X106456Y98000D01*
X106585Y97019D01*
X106963Y96106D01*
X107565Y95321D01*
X108350Y94719D01*
X109264Y94341D01*
X110244Y94212D01*
X111225Y94341D01*
X112138Y94719D01*
X112923Y95321D01*
X113525Y96106D01*
X113903Y97019D01*
X114032Y98000D01*
X113903Y98980D01*
X113689Y99498D01*
X119614Y105424D01*
X138914D01*
X139197Y104924D01*
X139169Y104876D01*
X121100D01*
X121100Y104876D01*
X120573Y104772D01*
X120127Y104473D01*
X120127Y104473D01*
X116027Y100373D01*
X115728Y99927D01*
X115624Y99400D01*
Y95326D01*
X111742Y91445D01*
X111225Y91659D01*
X110244Y91788D01*
X109264Y91659D01*
X108350Y91281D01*
X107565Y90679D01*
X106963Y89894D01*
X106585Y88981D01*
X106456Y88000D01*
X106585Y87019D01*
X106963Y86106D01*
X107492Y85417D01*
X107532Y85133D01*
X107468Y84765D01*
X95512Y72809D01*
X94970Y72974D01*
X94847Y73589D01*
X94343Y74343D01*
X93663Y74798D01*
X93656Y75096D01*
X93715Y75319D01*
X94389Y75453D01*
X95143Y75957D01*
X95647Y76711D01*
X95824Y77600D01*
X95762Y77915D01*
X96473Y78627D01*
X96772Y79073D01*
X96877Y79600D01*
X96876Y79600D01*
Y117078D01*
X97143Y117256D01*
X97647Y118011D01*
X97824Y118900D01*
X97647Y119789D01*
X97143Y120544D01*
X96389Y121047D01*
X95500Y121224D01*
X94611Y121047D01*
X93857Y120544D01*
X93353Y119789D01*
X93176Y118900D01*
X93353Y118011D01*
X93857Y117256D01*
X94124Y117078D01*
Y80211D01*
X93746Y79875D01*
X93500Y79924D01*
X92759Y79777D01*
X92199Y80028D01*
X92147Y80289D01*
X91643Y81043D01*
X91376Y81222D01*
Y120930D01*
X93285Y122838D01*
X93600Y122776D01*
X94489Y122953D01*
X95243Y123457D01*
X95422Y123724D01*
X132800D01*
X133327Y123828D01*
X133444Y123907D01*
X133850Y123826D01*
X134739Y124003D01*
X135494Y124506D01*
X135997Y125261D01*
X136174Y126150D01*
X135997Y127039D01*
X135494Y127794D01*
X134739Y128297D01*
X133850Y128474D01*
X132961Y128297D01*
X132206Y127794D01*
X131703Y127039D01*
X131591Y126476D01*
X95422D01*
X95243Y126743D01*
X94489Y127247D01*
X93600Y127424D01*
X92711Y127247D01*
X91957Y126743D01*
X91453Y125989D01*
X91276Y125100D01*
X91338Y124785D01*
X89027Y122473D01*
X88728Y122027D01*
X88676Y121766D01*
X88176Y121815D01*
Y129645D01*
X88343Y129756D01*
X88847Y130511D01*
X89024Y131400D01*
X88847Y132289D01*
X88725Y132473D01*
X91356Y135104D01*
X92000Y135041D01*
X92257Y134657D01*
X93011Y134153D01*
X93900Y133976D01*
X94789Y134153D01*
X95543Y134657D01*
X95722Y134924D01*
X133528D01*
X133807Y134506D01*
X134561Y134003D01*
X135450Y133826D01*
X136339Y134003D01*
X137093Y134506D01*
X137597Y135261D01*
X137774Y136150D01*
X137597Y137039D01*
X137093Y137794D01*
X136339Y138297D01*
X135450Y138474D01*
X134561Y138297D01*
X133807Y137794D01*
X133728Y137676D01*
X95722D01*
X95543Y137943D01*
X95159Y138200D01*
X95096Y138844D01*
X101076Y144824D01*
X128878D01*
X129057Y144556D01*
X129811Y144053D01*
X130700Y143876D01*
X131589Y144053D01*
X132343Y144556D01*
X132847Y145311D01*
X133024Y146200D01*
X132847Y147089D01*
X132343Y147844D01*
X131589Y148347D01*
X130700Y148524D01*
X129811Y148347D01*
X129057Y147844D01*
X128878Y147576D01*
X100506D01*
X100506Y147576D01*
X99979Y147472D01*
X99532Y147173D01*
X99532Y147173D01*
X94754Y142396D01*
X94312Y142660D01*
X94147Y143489D01*
X93643Y144244D01*
X92889Y144747D01*
X92000Y144924D01*
X91111Y144747D01*
X90357Y144244D01*
X90178Y143976D01*
X89670D01*
X76023Y157624D01*
X76230Y158124D01*
X109144D01*
X109264Y157659D01*
X108350Y157281D01*
X107565Y156679D01*
X106963Y155894D01*
X106585Y154981D01*
X106456Y154000D01*
X106585Y153019D01*
X106963Y152106D01*
X107565Y151321D01*
X108350Y150719D01*
X109264Y150341D01*
X110244Y150212D01*
X111225Y150341D01*
X112138Y150719D01*
X112923Y151321D01*
X113525Y152106D01*
X113903Y153019D01*
X114032Y154000D01*
X113903Y154981D01*
X113525Y155894D01*
X112923Y156679D01*
X112138Y157281D01*
X111225Y157659D01*
X111344Y158124D01*
X127430D01*
X135838Y149715D01*
D02*
G37*
%LPC*%
G36*
X110244Y71788D02*
X109264Y71659D01*
X108350Y71281D01*
X107565Y70679D01*
X106963Y69894D01*
X106585Y68980D01*
X106456Y68000D01*
X106585Y67019D01*
X106963Y66106D01*
X107565Y65321D01*
X108350Y64719D01*
X109264Y64341D01*
X110244Y64212D01*
X111225Y64341D01*
X112138Y64719D01*
X112923Y65321D01*
X113525Y66106D01*
X113903Y67019D01*
X114032Y68000D01*
X113903Y68980D01*
X113525Y69894D01*
X112923Y70679D01*
X112138Y71281D01*
X111225Y71659D01*
X110244Y71788D01*
D02*
G37*
%LPD*%
D10*
X92744Y176500D02*
X110244Y194000D01*
X80200Y176500D02*
X92744D01*
X86700Y132395D02*
X100506Y146200D01*
X130700D01*
X146800Y123200D02*
Y178956D01*
X140800Y117200D02*
X146800Y123200D01*
X132100Y117200D02*
X140800D01*
X102600Y199800D02*
X135956D01*
X89300Y186500D02*
X102600Y199800D01*
X79900Y186500D02*
X89300D01*
X106300Y198200D02*
X129400D01*
X89700Y181600D02*
X106300Y198200D01*
X65700Y181600D02*
X89700D01*
X204100Y55594D02*
Y64600D01*
X204070Y55565D02*
X204100Y55594D01*
X204070Y53635D02*
Y55565D01*
Y53635D02*
X204100Y53606D01*
Y33200D02*
Y53606D01*
X202200Y31300D02*
X204100Y33200D01*
X120343Y68098D02*
X121700Y69456D01*
Y95500D01*
X110244Y58000D02*
X120343Y68098D01*
X40300Y91700D02*
Y112000D01*
X15756Y68000D02*
X34929Y87174D01*
Y122430D02*
X43650Y131150D01*
X34929Y100871D02*
Y122430D01*
Y87174D02*
Y100871D01*
X32600Y94844D02*
Y125100D01*
X43650Y136150D01*
X133100Y110871D02*
X135977Y113747D01*
X136111D01*
X111071Y110871D02*
X133100D01*
X109700Y113800D02*
X129000D01*
X103200Y107300D02*
X109700Y113800D01*
X119044Y106800D02*
X143300D01*
X110244Y98000D02*
X119044Y106800D01*
X138924Y109285D02*
X138938D01*
X138924Y109271D02*
X138938Y109285D01*
X113371Y109271D02*
X138924D01*
X62730Y173930D02*
X81565D01*
X62700Y173900D02*
X62730Y173930D01*
X81594Y173900D02*
X100200D01*
X81565Y173930D02*
X81594Y173900D01*
X62300Y42500D02*
X95744D01*
X110244Y28000D01*
X94349Y69700D02*
X108543Y83894D01*
X55400Y69700D02*
X94349D01*
X51700Y67900D02*
X100144D01*
X44200Y65800D02*
X102444D01*
X44000Y81100D02*
X55400Y69700D01*
X43800Y75800D02*
X51700Y67900D01*
X100144D02*
X110244Y78000D01*
X108543Y83894D02*
X111945D01*
X15856Y173900D02*
X62700D01*
X27000Y181600D02*
X65700D01*
X59800Y171200D02*
X64100D01*
X47800Y168500D02*
X63200D01*
X61400Y166000D02*
X86700Y140700D01*
X34700Y166000D02*
X61400D01*
X56400Y163100D02*
X65000Y154500D01*
X37900Y163100D02*
X56400D01*
X63200Y168500D02*
X89100Y142600D01*
X23300Y164900D02*
X25500Y162700D01*
X175100Y173100D02*
X176500Y174500D01*
X175100Y149400D02*
Y173100D01*
X128000Y159500D02*
X138100Y149400D01*
X75800Y159500D02*
X128000D01*
X64100Y171200D02*
X75800Y159500D01*
X89100Y142600D02*
X92000D01*
X86700Y131400D02*
Y140700D01*
X236244Y28000D02*
X241800Y33556D01*
X23030Y113429D02*
Y160571D01*
X11500Y101900D02*
X23030Y113429D01*
X11500Y62256D02*
Y101900D01*
Y62256D02*
X15756Y58000D01*
Y88000D02*
X25500Y97744D01*
Y99000D01*
Y112400D02*
Y162700D01*
X28200Y110444D02*
Y165900D01*
X15756Y98000D02*
X28200Y110444D01*
X214400Y74600D02*
Y146500D01*
X211900Y89600D02*
Y126200D01*
X95500Y79600D02*
Y118900D01*
X93500Y77600D02*
X95500Y79600D01*
X90000Y121500D02*
X93600Y125100D01*
X90000Y79400D02*
Y121500D01*
X86800Y82000D02*
Y131300D01*
X86700Y131400D02*
X86800Y131300D01*
X93900Y136300D02*
X135300D01*
X135450Y136150D01*
X86700Y131400D02*
Y132395D01*
X93600Y125100D02*
X132800D01*
X133850Y126150D01*
X44800Y171500D02*
X47800Y168500D01*
X203850Y126150D02*
X204100Y125900D01*
Y85594D02*
Y125900D01*
X204070Y85565D02*
X204100Y85594D01*
X204070Y69630D02*
Y85565D01*
Y69630D02*
X204100Y69600D01*
X61900Y131000D02*
Y151400D01*
X55000Y158300D02*
X61900Y151400D01*
X36600Y158300D02*
X55000D01*
X30600Y164300D02*
X36600Y158300D01*
X209400Y79600D02*
Y136100D01*
X169457Y136207D02*
Y180043D01*
X65000Y136200D02*
Y154500D01*
Y82000D02*
Y136200D01*
X26200Y167900D02*
X28200Y165900D01*
X26100Y167900D02*
X26200D01*
X20900Y162700D02*
X23030Y160571D01*
X20900Y162700D02*
Y168200D01*
X20700Y120500D02*
Y159056D01*
X17000Y116300D02*
Y152756D01*
X141756Y184000D02*
X146800Y178956D01*
X118800Y90749D02*
Y92200D01*
X111945Y83894D02*
X118800Y90749D01*
X37600Y69844D02*
Y105900D01*
X15756Y48000D02*
X37600Y69844D01*
Y105900D02*
Y115100D01*
X43650Y121150D01*
X15756Y78000D02*
X32600Y94844D01*
X72100Y46100D02*
X81800Y55800D01*
X49700Y46100D02*
X72100D01*
X46600Y43000D02*
X49700Y46100D01*
X13800Y43000D02*
X46600D01*
X10700Y46100D02*
X13800Y43000D01*
X10700Y46100D02*
Y52944D01*
X15756Y58000D01*
X102444Y65800D02*
X110244Y58000D01*
X15756Y154000D02*
X17000Y152756D01*
X15756Y164000D02*
X20700Y159056D01*
X15756Y174000D02*
X15856Y173900D01*
X27700Y186500D02*
X79900D01*
X20200Y194000D02*
X27700Y186500D01*
X15756Y194000D02*
X20200D01*
X10300Y198544D02*
X15756Y204000D01*
X10300Y192500D02*
Y198544D01*
Y192500D02*
X13700Y189100D01*
X19500D01*
X27000Y181600D01*
X15756Y204000D02*
X16356Y203400D01*
X30400Y128500D02*
X43050Y141150D01*
X30400Y96700D02*
Y128500D01*
X26500Y92800D02*
X30400Y96700D01*
X59631Y88800D02*
Y125831D01*
X59950Y126150D01*
X44800Y97400D02*
Y109700D01*
X104500Y100200D02*
Y100400D01*
X102308Y103241D02*
X103441D01*
X135600Y217844D02*
X141756Y224000D01*
X135600Y212800D02*
Y217844D01*
Y212800D02*
X139500Y208900D01*
X144000D01*
X103441Y103241D02*
X111071Y110871D01*
X141756Y88000D02*
X152400Y98644D01*
Y203356D01*
X141756Y214000D02*
X152400Y203356D01*
X141756Y38000D02*
X148600Y44844D01*
Y59700D01*
X144000Y208900D02*
X149300Y203600D01*
X141756Y98000D02*
X149300Y105544D01*
X148600Y59700D02*
Y88100D01*
X156200Y95700D01*
Y164000D01*
X141756Y28000D02*
X159500Y45744D01*
X164800Y54600D02*
X164900Y54700D01*
Y67500D01*
X159500Y45744D02*
Y80900D01*
Y154000D01*
X228600Y146356D02*
X236244Y154000D01*
X228600Y95500D02*
Y146356D01*
Y69837D02*
Y95500D01*
X241800Y33556D02*
Y60100D01*
X228600Y69837D02*
X235737Y62700D01*
X239200D01*
X241800Y60100D01*
X224500Y172256D02*
X236244Y184000D01*
X224500Y69744D02*
X236244Y58000D01*
X224500Y69744D02*
Y98300D01*
Y172256D01*
X167900Y69600D02*
Y98400D01*
X236244Y204000D02*
X241700Y198544D01*
Y191800D02*
Y198544D01*
X238500Y188600D02*
X241700Y191800D01*
X231700Y188600D02*
X238500D01*
X219800Y176700D02*
X231700Y188600D01*
X219800Y78100D02*
Y92500D01*
Y176700D01*
X149300Y105544D02*
Y203600D01*
X104500Y100400D02*
X113371Y109271D01*
X110244Y88000D02*
X117000Y94756D01*
Y99400D01*
X121100Y103500D01*
X141500D01*
X135956Y199800D02*
X141756Y194000D01*
X129400Y198200D02*
X138700Y188900D01*
X143700D01*
X147000Y192200D01*
Y198756D01*
X141756Y204000D02*
X147000Y198756D01*
X100200Y173900D02*
X105000Y178700D01*
X137056D01*
X141756Y182956D02*
Y184000D01*
X137056Y178700D02*
X141756Y174000D01*
X110244Y164000D02*
X129000D01*
X133800Y159200D01*
X110244Y174000D02*
X115244Y169000D01*
X133800D01*
X181598Y146602D02*
Y182602D01*
Y146602D02*
X181700Y146500D01*
D11*
X209000Y56500D02*
Y69600D01*
X207200Y54700D02*
X209000Y56500D01*
X92700Y60600D02*
X100300Y53000D01*
X135800D01*
X206400Y72200D02*
X209000Y69600D01*
X206400Y72200D02*
Y84600D01*
X79700Y80800D02*
X80700Y79800D01*
Y111400D01*
Y141300D01*
X87800Y72700D02*
X92700D01*
X79700Y80800D02*
X87800Y72700D01*
X42700Y176500D02*
X43600Y177400D01*
X65400D01*
X31200Y176500D02*
X42700D01*
X28900Y178800D02*
X31200Y176500D01*
D12*
X178500Y15000D02*
X189500D01*
X190200Y15700D01*
X231100D01*
X244200Y28800D01*
Y98300D01*
X240900Y101600D02*
X244200Y98300D01*
X240900Y101600D02*
Y109900D01*
X247000Y116000D01*
X62800Y22300D02*
X73600Y33100D01*
X10900Y22300D02*
X62800D01*
X7000Y26200D02*
X10900Y22300D01*
X7000Y26200D02*
Y100600D01*
X10800Y104400D01*
Y110200D01*
X5000Y116000D02*
X10800Y110200D01*
X238100Y124900D02*
X247000Y116000D01*
X238100Y124900D02*
Y148000D01*
X246000Y155900D01*
Y223300D01*
X236300Y233000D02*
X246000Y223300D01*
X185194Y233000D02*
X236300D01*
X172300Y220106D02*
X185194Y233000D01*
X158700Y220000D02*
X172194D01*
D13*
X0Y252000D02*
X252000D01*
Y0D02*
Y252000D01*
X0Y0D02*
X252000D01*
X0D02*
Y252000D01*
D14*
X200624Y8928D02*
D03*
X172081D02*
D03*
D15*
X176753Y20750D02*
D03*
X195847D02*
D03*
D16*
X73600Y33100D02*
D03*
X172300Y220106D02*
D03*
D17*
X63600Y33100D02*
D03*
X53600D02*
D03*
X5000Y106000D02*
D03*
Y116000D02*
D03*
Y126000D02*
D03*
Y136000D02*
D03*
X247000Y106000D02*
D03*
Y116000D02*
D03*
Y126000D02*
D03*
Y136000D02*
D03*
X202300Y220106D02*
D03*
X192300D02*
D03*
X182300D02*
D03*
D18*
X158700Y210000D02*
D03*
D19*
Y220000D02*
D03*
D20*
X5000Y146000D02*
D03*
X247000D02*
D03*
D21*
X236244Y98000D02*
D03*
Y88000D02*
D03*
X141756D02*
D03*
Y78000D02*
D03*
Y68000D02*
D03*
Y58000D02*
D03*
Y48000D02*
D03*
Y38000D02*
D03*
X236244Y78000D02*
D03*
Y68000D02*
D03*
Y58000D02*
D03*
Y48000D02*
D03*
Y38000D02*
D03*
Y28000D02*
D03*
X141756D02*
D03*
X236244Y224000D02*
D03*
Y214000D02*
D03*
X141756D02*
D03*
Y204000D02*
D03*
Y194000D02*
D03*
Y184000D02*
D03*
Y174000D02*
D03*
Y164000D02*
D03*
X236244Y204000D02*
D03*
Y194000D02*
D03*
Y184000D02*
D03*
Y174000D02*
D03*
Y164000D02*
D03*
Y154000D02*
D03*
X141756D02*
D03*
X110244Y224000D02*
D03*
Y214000D02*
D03*
X15756D02*
D03*
Y204000D02*
D03*
Y194000D02*
D03*
Y184000D02*
D03*
Y174000D02*
D03*
Y164000D02*
D03*
X110244Y204000D02*
D03*
Y194000D02*
D03*
Y184000D02*
D03*
Y174000D02*
D03*
Y164000D02*
D03*
Y154000D02*
D03*
X15756D02*
D03*
X110244Y98000D02*
D03*
Y88000D02*
D03*
X15756D02*
D03*
Y78000D02*
D03*
Y68000D02*
D03*
Y58000D02*
D03*
Y48000D02*
D03*
Y38000D02*
D03*
X110244Y78000D02*
D03*
Y68000D02*
D03*
Y58000D02*
D03*
Y48000D02*
D03*
Y38000D02*
D03*
Y28000D02*
D03*
X15756D02*
D03*
D22*
X141756Y98000D02*
D03*
Y224000D02*
D03*
X15756D02*
D03*
Y98000D02*
D03*
D23*
X130100Y188200D02*
D03*
X121700Y192500D02*
D03*
X89300Y152900D02*
D03*
X99800D02*
D03*
X129500Y151700D02*
D03*
X130700Y146200D02*
D03*
X131500Y131200D02*
D03*
X131300Y141400D02*
D03*
X109000D02*
D03*
X108800Y130800D02*
D03*
X108500Y119900D02*
D03*
X139000Y121700D02*
D03*
X207200Y54700D02*
D03*
X121700Y95500D02*
D03*
X40300Y112000D02*
D03*
X34929Y100871D02*
D03*
X143300Y106800D02*
D03*
X138938Y109285D02*
D03*
X129000Y113800D02*
D03*
X80600Y170564D02*
D03*
X136111Y113747D02*
D03*
X117700Y74500D02*
D03*
X121400Y46900D02*
D03*
X130300Y27000D02*
D03*
X130600Y38000D02*
D03*
X120200Y37900D02*
D03*
X119100Y27700D02*
D03*
X32500Y52600D02*
D03*
X36200Y58600D02*
D03*
X23200Y68700D02*
D03*
X33900Y78300D02*
D03*
X92700Y60600D02*
D03*
X135800Y53000D02*
D03*
X80700Y111400D02*
D03*
Y141300D02*
D03*
X92700Y72700D02*
D03*
X65400Y177400D02*
D03*
X62700Y173900D02*
D03*
X65700Y181600D02*
D03*
X80200Y176500D02*
D03*
X59800Y171200D02*
D03*
X42700Y176500D02*
D03*
X28900Y178800D02*
D03*
X176500Y174500D02*
D03*
X175100Y149400D02*
D03*
X138100D02*
D03*
X92000Y142600D02*
D03*
X183500Y15000D02*
D03*
X178500D02*
D03*
X189500D02*
D03*
X25500Y99000D02*
D03*
Y112400D02*
D03*
X214400Y146500D02*
D03*
Y74600D02*
D03*
X211900Y126200D02*
D03*
Y89600D02*
D03*
X204100Y64600D02*
D03*
X202200Y31300D02*
D03*
X93500Y77600D02*
D03*
X90000Y79400D02*
D03*
X86800Y82000D02*
D03*
X79700Y80800D02*
D03*
X95500Y118900D02*
D03*
X93900Y136300D02*
D03*
X93600Y125100D02*
D03*
X44800Y171500D02*
D03*
X203850Y126150D02*
D03*
X204100Y69600D02*
D03*
X133850Y126150D02*
D03*
X61900Y131000D02*
D03*
X209500Y136150D02*
D03*
X209400Y79600D02*
D03*
X169400Y136150D02*
D03*
X169457Y180043D02*
D03*
X135450Y136150D02*
D03*
X65000Y136200D02*
D03*
Y82000D02*
D03*
X34700Y166000D02*
D03*
X37900Y163100D02*
D03*
X30600Y164300D02*
D03*
X26100Y167900D02*
D03*
X23300Y164900D02*
D03*
X20900Y168200D02*
D03*
X20700Y120500D02*
D03*
X17000Y116300D02*
D03*
X59950Y126150D02*
D03*
X32600Y94844D02*
D03*
X37600Y105900D02*
D03*
X43650Y121150D02*
D03*
Y131150D02*
D03*
Y136150D02*
D03*
X62300Y42500D02*
D03*
X44000Y81100D02*
D03*
X118800Y92200D02*
D03*
X43800Y75800D02*
D03*
X44200Y65800D02*
D03*
X81800Y55800D02*
D03*
X79900Y186500D02*
D03*
X42700Y146150D02*
D03*
Y206500D02*
D03*
X206400Y84600D02*
D03*
X42700Y85800D02*
D03*
X181300Y29600D02*
D03*
X43050Y141150D02*
D03*
X59631Y88800D02*
D03*
X26500Y92800D02*
D03*
X40300Y91700D02*
D03*
X44800Y97400D02*
D03*
Y109700D02*
D03*
X102308Y103241D02*
D03*
X104500Y100200D02*
D03*
X103200Y107300D02*
D03*
X164800Y54600D02*
D03*
X132100Y117200D02*
D03*
X148600Y59700D02*
D03*
X156200Y164000D02*
D03*
X159500Y154000D02*
D03*
X164900Y67500D02*
D03*
X159500Y80900D02*
D03*
X228600Y95500D02*
D03*
X165300Y89500D02*
D03*
X224500Y98300D02*
D03*
X167900Y98400D02*
D03*
Y69600D02*
D03*
X219800Y78100D02*
D03*
Y92500D02*
D03*
X141500Y103500D02*
D03*
X133800Y159200D02*
D03*
Y169000D02*
D03*
X175200Y204500D02*
D03*
X181700Y146500D02*
D03*
X181598Y182602D02*
D03*
X86700Y131400D02*
D03*
M02*
