G04 Layer_Physical_Order=2*
G04 Layer_Color=16711680*
%FSLAX25Y25*%
%MOIN*%
G70*
G01*
G75*
%ADD10C,0.00700*%
%ADD11C,0.01500*%
%ADD12C,0.02000*%
%ADD13C,0.01000*%
%ADD14O,0.05512X0.07874*%
%ADD15C,0.04331*%
%ADD16R,0.05905X0.05905*%
%ADD17C,0.05905*%
%ADD18C,0.05000*%
%ADD19R,0.05000X0.05000*%
%ADD20R,0.05905X0.05905*%
%ADD21C,0.05512*%
%ADD22R,0.05512X0.05512*%
%ADD23C,0.02559*%
%ADD24R,0.01575X0.06299*%
%ADD25O,0.08661X0.02362*%
%ADD26O,0.05905X0.01378*%
G36*
X252000Y0D02*
X0D01*
Y252000D01*
X252000D01*
Y0D01*
D02*
G37*
%LPC*%
G36*
X236244Y61788D02*
X235264Y61659D01*
X234350Y61281D01*
X233565Y60679D01*
X232963Y59894D01*
X232585Y58981D01*
X232456Y58000D01*
X232585Y57020D01*
X232963Y56106D01*
X233565Y55321D01*
X234350Y54719D01*
X235264Y54341D01*
X236244Y54212D01*
X237225Y54341D01*
X238138Y54719D01*
X238923Y55321D01*
X239525Y56106D01*
X239903Y57020D01*
X240032Y58000D01*
X239903Y58981D01*
X239525Y59894D01*
X238923Y60679D01*
X238138Y61281D01*
X237225Y61659D01*
X236244Y61788D01*
D02*
G37*
G36*
Y81788D02*
X235264Y81659D01*
X234350Y81281D01*
X233565Y80679D01*
X232963Y79894D01*
X232790Y79476D01*
X221622D01*
X221443Y79743D01*
X220689Y80247D01*
X219800Y80424D01*
X218911Y80247D01*
X218157Y79743D01*
X217653Y78989D01*
X217476Y78100D01*
X217653Y77211D01*
X218157Y76457D01*
X218911Y75953D01*
X219800Y75776D01*
X220689Y75953D01*
X221443Y76457D01*
X221622Y76724D01*
X232708D01*
X232963Y76106D01*
X233565Y75321D01*
X234350Y74719D01*
X235264Y74341D01*
X236244Y74212D01*
X237225Y74341D01*
X238138Y74719D01*
X238923Y75321D01*
X239525Y76106D01*
X239903Y77020D01*
X240032Y78000D01*
X239903Y78980D01*
X239525Y79894D01*
X238923Y80679D01*
X238138Y81281D01*
X237225Y81659D01*
X236244Y81788D01*
D02*
G37*
G36*
X25500Y114724D02*
X24611Y114547D01*
X23856Y114043D01*
X23353Y113289D01*
X23176Y112400D01*
X23353Y111511D01*
X23856Y110757D01*
X24124Y110578D01*
Y100822D01*
X23856Y100643D01*
X23353Y99889D01*
X23176Y99000D01*
X23353Y98111D01*
X23856Y97357D01*
X24611Y96853D01*
X25500Y96676D01*
X26389Y96853D01*
X27143Y97357D01*
X27647Y98111D01*
X27824Y99000D01*
X27647Y99889D01*
X27143Y100643D01*
X26876Y100822D01*
Y110578D01*
X27143Y110757D01*
X27647Y111511D01*
X27824Y112400D01*
X27647Y113289D01*
X27143Y114043D01*
X26389Y114547D01*
X25500Y114724D01*
D02*
G37*
G36*
X57521Y32600D02*
X54100D01*
Y29179D01*
X54632Y29249D01*
X55593Y29647D01*
X56419Y30281D01*
X57053Y31107D01*
X57451Y32068D01*
X57521Y32600D01*
D02*
G37*
G36*
X53100Y37021D02*
X52568Y36951D01*
X51607Y36553D01*
X50781Y35919D01*
X50147Y35093D01*
X49749Y34132D01*
X49679Y33600D01*
X53100D01*
Y37021D01*
D02*
G37*
G36*
X54100D02*
Y33600D01*
X57521D01*
X57451Y34132D01*
X57053Y35093D01*
X56419Y35919D01*
X55593Y36553D01*
X54632Y36951D01*
X54100Y37021D01*
D02*
G37*
G36*
X4500Y109921D02*
X3968Y109851D01*
X3007Y109453D01*
X2181Y108819D01*
X1547Y107993D01*
X1149Y107032D01*
X1079Y106500D01*
X4500D01*
Y109921D01*
D02*
G37*
G36*
X246500D02*
X245968Y109851D01*
X245007Y109453D01*
X244181Y108819D01*
X243547Y107993D01*
X243149Y107032D01*
X243079Y106500D01*
X246500D01*
Y109921D01*
D02*
G37*
G36*
X5500D02*
Y106500D01*
X8921D01*
X8851Y107032D01*
X8453Y107993D01*
X7819Y108819D01*
X6993Y109453D01*
X6032Y109851D01*
X5500Y109921D01*
D02*
G37*
G36*
X4500Y105500D02*
X1079D01*
X1149Y104968D01*
X1547Y104007D01*
X2181Y103181D01*
X3007Y102547D01*
X3968Y102149D01*
X4500Y102079D01*
Y105500D01*
D02*
G37*
G36*
X246500D02*
X243079D01*
X243149Y104968D01*
X243547Y104007D01*
X244181Y103181D01*
X245007Y102547D01*
X245968Y102149D01*
X246500Y102079D01*
Y105500D01*
D02*
G37*
G36*
X250921D02*
X247500D01*
Y102079D01*
X248032Y102149D01*
X248993Y102547D01*
X249819Y103181D01*
X250453Y104007D01*
X250851Y104968D01*
X250921Y105500D01*
D02*
G37*
G36*
X53100Y32600D02*
X49679D01*
X49749Y32068D01*
X50147Y31107D01*
X50781Y30281D01*
X51607Y29647D01*
X52568Y29249D01*
X53100Y29179D01*
Y32600D01*
D02*
G37*
G36*
X204413Y8428D02*
X201124D01*
Y4025D01*
X201605Y4088D01*
X202519Y4467D01*
X203303Y5068D01*
X203905Y5853D01*
X204284Y6767D01*
X204413Y7747D01*
Y8428D01*
D02*
G37*
G36*
X200124Y13832D02*
X199644Y13769D01*
X198730Y13390D01*
X197946Y12788D01*
X197344Y12004D01*
X196965Y11090D01*
X196836Y10109D01*
Y9428D01*
X200124D01*
Y13832D01*
D02*
G37*
G36*
X201124D02*
Y9428D01*
X204413D01*
Y10109D01*
X204284Y11090D01*
X203905Y12004D01*
X203303Y12788D01*
X202519Y13390D01*
X201605Y13769D01*
X201124Y13832D01*
D02*
G37*
G36*
X171581Y8428D02*
X168293D01*
Y7747D01*
X168422Y6767D01*
X168800Y5853D01*
X169402Y5068D01*
X170187Y4467D01*
X171101Y4088D01*
X171581Y4025D01*
Y8428D01*
D02*
G37*
G36*
X175869D02*
X172581D01*
Y4025D01*
X173062Y4088D01*
X173975Y4467D01*
X174760Y5068D01*
X175362Y5853D01*
X175740Y6767D01*
X175869Y7747D01*
Y8428D01*
D02*
G37*
G36*
X200124D02*
X196836D01*
Y7747D01*
X196965Y6767D01*
X197344Y5853D01*
X197946Y5068D01*
X198730Y4467D01*
X199644Y4088D01*
X200124Y4025D01*
Y8428D01*
D02*
G37*
G36*
X196347Y23877D02*
Y21250D01*
X198974D01*
X198931Y21576D01*
X198612Y22346D01*
X198105Y23008D01*
X197444Y23515D01*
X196674Y23834D01*
X196347Y23877D01*
D02*
G37*
G36*
X180582Y26550D02*
X179394D01*
Y23266D01*
X178894Y23096D01*
X178349Y23515D01*
X177579Y23834D01*
X177253Y23877D01*
Y20750D01*
Y17623D01*
X177579Y17666D01*
X178349Y17985D01*
X178894Y18404D01*
X179394Y18250D01*
Y18250D01*
X180582D01*
Y22400D01*
Y26550D01*
D02*
G37*
G36*
X236244Y31788D02*
X235264Y31659D01*
X234350Y31281D01*
X233565Y30679D01*
X232963Y29894D01*
X232585Y28980D01*
X232456Y28000D01*
X232585Y27020D01*
X232963Y26106D01*
X233565Y25321D01*
X234350Y24719D01*
X235264Y24341D01*
X236244Y24212D01*
X237225Y24341D01*
X238138Y24719D01*
X238923Y25321D01*
X239525Y26106D01*
X239903Y27020D01*
X240032Y28000D01*
X239903Y28980D01*
X239525Y29894D01*
X238923Y30679D01*
X238138Y31281D01*
X237225Y31659D01*
X236244Y31788D01*
D02*
G37*
G36*
X176253Y20250D02*
X173626D01*
X173669Y19924D01*
X173988Y19154D01*
X174495Y18492D01*
X175156Y17985D01*
X175926Y17666D01*
X176253Y17623D01*
Y20250D01*
D02*
G37*
G36*
X198974D02*
X196347D01*
Y17623D01*
X196674Y17666D01*
X197444Y17985D01*
X198105Y18492D01*
X198612Y19154D01*
X198931Y19924D01*
X198974Y20250D01*
D02*
G37*
G36*
X176253Y23877D02*
X175926Y23834D01*
X175156Y23515D01*
X174495Y23008D01*
X173988Y22346D01*
X173669Y21576D01*
X173626Y21250D01*
X176253D01*
Y23877D01*
D02*
G37*
G36*
X247500Y109921D02*
Y106500D01*
X250921D01*
X250851Y107032D01*
X250453Y107993D01*
X249819Y108819D01*
X248993Y109453D01*
X248032Y109851D01*
X247500Y109921D01*
D02*
G37*
G36*
X176253Y224059D02*
X168347D01*
Y216154D01*
X176253D01*
Y224059D01*
D02*
G37*
G36*
X141756Y217788D02*
X140775Y217659D01*
X139862Y217281D01*
X139077Y216679D01*
X138475Y215894D01*
X138097Y214981D01*
X137968Y214000D01*
X138097Y213019D01*
X138475Y212106D01*
X139077Y211321D01*
X139862Y210719D01*
X140775Y210341D01*
X141756Y210212D01*
X142736Y210341D01*
X143650Y210719D01*
X144435Y211321D01*
X145037Y212106D01*
X145415Y213019D01*
X145544Y214000D01*
X145415Y214981D01*
X145037Y215894D01*
X144435Y216679D01*
X143650Y217281D01*
X142736Y217659D01*
X141756Y217788D01*
D02*
G37*
G36*
X15756Y197788D02*
X14775Y197659D01*
X13862Y197281D01*
X13077Y196679D01*
X12475Y195894D01*
X12097Y194981D01*
X11968Y194000D01*
X12097Y193019D01*
X12475Y192106D01*
X13077Y191321D01*
X13862Y190719D01*
X14775Y190341D01*
X15756Y190212D01*
X16736Y190341D01*
X17650Y190719D01*
X18435Y191321D01*
X19037Y192106D01*
X19415Y193019D01*
X19544Y194000D01*
X19415Y194981D01*
X19037Y195894D01*
X18435Y196679D01*
X17650Y197281D01*
X16736Y197659D01*
X15756Y197788D01*
D02*
G37*
G36*
X162200Y223500D02*
X155200D01*
Y216500D01*
X162200D01*
Y223500D01*
D02*
G37*
G36*
X186221Y219606D02*
X182800D01*
Y216185D01*
X183332Y216255D01*
X184293Y216654D01*
X185119Y217287D01*
X185753Y218113D01*
X186151Y219074D01*
X186221Y219606D01*
D02*
G37*
G36*
X181800D02*
X178379D01*
X178449Y219074D01*
X178847Y218113D01*
X179481Y217287D01*
X180307Y216654D01*
X181268Y216255D01*
X181800Y216185D01*
Y219606D01*
D02*
G37*
G36*
X141756Y197788D02*
X140775Y197659D01*
X139862Y197281D01*
X139077Y196679D01*
X138475Y195894D01*
X138097Y194981D01*
X137968Y194000D01*
X138097Y193019D01*
X138475Y192106D01*
X139077Y191321D01*
X139862Y190719D01*
X140775Y190341D01*
X141756Y190212D01*
X142736Y190341D01*
X143650Y190719D01*
X144435Y191321D01*
X145037Y192106D01*
X145415Y193019D01*
X145544Y194000D01*
X145415Y194981D01*
X145037Y195894D01*
X144435Y196679D01*
X143650Y197281D01*
X142736Y197659D01*
X141756Y197788D01*
D02*
G37*
G36*
X236244Y207788D02*
X235264Y207659D01*
X234350Y207281D01*
X233565Y206679D01*
X232963Y205894D01*
X232585Y204980D01*
X232456Y204000D01*
X232585Y203019D01*
X232963Y202106D01*
X233565Y201321D01*
X234350Y200719D01*
X235264Y200341D01*
X236244Y200212D01*
X237225Y200341D01*
X238138Y200719D01*
X238923Y201321D01*
X239525Y202106D01*
X239903Y203019D01*
X240032Y204000D01*
X239903Y204980D01*
X239525Y205894D01*
X238923Y206679D01*
X238138Y207281D01*
X237225Y207659D01*
X236244Y207788D01*
D02*
G37*
G36*
X174586Y202238D02*
X172922D01*
X172263Y202107D01*
X171704Y201733D01*
X171331Y201175D01*
X171319Y201116D01*
X174586D01*
Y202238D01*
D02*
G37*
G36*
X177450D02*
X175786D01*
Y201116D01*
X179052D01*
X179041Y201175D01*
X178667Y201733D01*
X178109Y202107D01*
X177450Y202238D01*
D02*
G37*
G36*
X15756Y207788D02*
X14775Y207659D01*
X13862Y207281D01*
X13077Y206679D01*
X12475Y205894D01*
X12097Y204980D01*
X11968Y204000D01*
X12097Y203019D01*
X12475Y202106D01*
X13077Y201321D01*
X13862Y200719D01*
X14775Y200341D01*
X15756Y200212D01*
X16736Y200341D01*
X17650Y200719D01*
X18435Y201321D01*
X19037Y202106D01*
X19415Y203019D01*
X19544Y204000D01*
X19415Y204980D01*
X19037Y205894D01*
X18435Y206679D01*
X17650Y207281D01*
X16736Y207659D01*
X15756Y207788D01*
D02*
G37*
G36*
X141756D02*
X140775Y207659D01*
X139862Y207281D01*
X139077Y206679D01*
X138475Y205894D01*
X138097Y204980D01*
X137968Y204000D01*
X138097Y203019D01*
X138475Y202106D01*
X139077Y201321D01*
X139862Y200719D01*
X140775Y200341D01*
X141756Y200212D01*
X142736Y200341D01*
X143650Y200719D01*
X144435Y201321D01*
X145037Y202106D01*
X145415Y203019D01*
X145544Y204000D01*
X145415Y204980D01*
X145037Y205894D01*
X144435Y206679D01*
X143650Y207281D01*
X142736Y207659D01*
X141756Y207788D01*
D02*
G37*
G36*
X202300Y224093D02*
X201268Y223957D01*
X200307Y223559D01*
X199481Y222925D01*
X198847Y222100D01*
X198449Y221138D01*
X198313Y220106D01*
X198449Y219074D01*
X198736Y218382D01*
X196653Y216300D01*
X196355Y215854D01*
X196250Y215327D01*
Y202238D01*
X195363D01*
X194704Y202107D01*
X194176Y201754D01*
X194011Y201790D01*
X193676Y201932D01*
Y216398D01*
X194293Y216654D01*
X195119Y217287D01*
X195753Y218113D01*
X196151Y219074D01*
X196287Y220106D01*
X196151Y221138D01*
X195753Y222100D01*
X195119Y222925D01*
X194293Y223559D01*
X193332Y223957D01*
X192300Y224093D01*
X191268Y223957D01*
X190307Y223559D01*
X189481Y222925D01*
X188847Y222100D01*
X188449Y221138D01*
X188313Y220106D01*
X188449Y219074D01*
X188847Y218113D01*
X189481Y217287D01*
X190307Y216654D01*
X190924Y216398D01*
Y199600D01*
X191028Y199073D01*
X191327Y198627D01*
X192970Y196983D01*
X193417Y196685D01*
X193570Y196654D01*
X193800Y196099D01*
X193772Y196057D01*
X193641Y195398D01*
X193772Y194739D01*
X194145Y194180D01*
Y194056D01*
X193772Y193498D01*
X193641Y192839D01*
X193772Y192180D01*
X194145Y191621D01*
Y191497D01*
X193772Y190938D01*
X193641Y190279D01*
X193772Y189620D01*
X194145Y189062D01*
Y188938D01*
X193772Y188380D01*
X193641Y187721D01*
X193772Y187062D01*
X193925Y186833D01*
X194115Y186441D01*
X193925Y186049D01*
X193772Y185820D01*
X193641Y185161D01*
X193772Y184502D01*
X194145Y183944D01*
Y183820D01*
X193772Y183261D01*
X193641Y182602D01*
X193772Y181943D01*
X194145Y181385D01*
Y181261D01*
X193772Y180702D01*
X193641Y180043D01*
X193772Y179384D01*
X194145Y178826D01*
Y178702D01*
X193772Y178143D01*
X193641Y177484D01*
X193772Y176825D01*
X194145Y176267D01*
X194704Y175893D01*
X195363Y175762D01*
X199891D01*
X200550Y175893D01*
X201108Y176267D01*
X201482Y176825D01*
X201613Y177484D01*
X201482Y178143D01*
X201108Y178702D01*
Y178826D01*
X201482Y179384D01*
X201613Y180043D01*
X201482Y180702D01*
X201108Y181261D01*
Y181385D01*
X201482Y181943D01*
X201613Y182602D01*
X201482Y183261D01*
X201108Y183820D01*
Y183944D01*
X201482Y184502D01*
X201613Y185161D01*
X201482Y185820D01*
X201329Y186049D01*
X201138Y186441D01*
X201329Y186833D01*
X201482Y187062D01*
X201613Y187721D01*
X201482Y188380D01*
X201108Y188938D01*
Y189062D01*
X201482Y189620D01*
X201613Y190279D01*
X201482Y190938D01*
X201108Y191497D01*
Y191621D01*
X201482Y192180D01*
X201613Y192839D01*
X201482Y193498D01*
X201108Y194056D01*
Y194180D01*
X201482Y194739D01*
X201613Y195398D01*
X201482Y196057D01*
X201108Y196615D01*
Y196739D01*
X201482Y197298D01*
X201613Y197957D01*
X201482Y198616D01*
X201108Y199174D01*
Y199298D01*
X201482Y199857D01*
X201613Y200516D01*
X201482Y201175D01*
X201108Y201733D01*
X200550Y202107D01*
X199891Y202238D01*
X199003D01*
Y214757D01*
X200726Y216480D01*
X201268Y216255D01*
X202300Y216119D01*
X203332Y216255D01*
X204293Y216654D01*
X205119Y217287D01*
X205753Y218113D01*
X206151Y219074D01*
X206287Y220106D01*
X206151Y221138D01*
X205753Y222100D01*
X205119Y222925D01*
X204293Y223559D01*
X203332Y223957D01*
X202300Y224093D01*
D02*
G37*
G36*
X247000Y129987D02*
X245968Y129851D01*
X245007Y129453D01*
X244181Y128819D01*
X243547Y127993D01*
X243375Y127576D01*
X213722D01*
X213543Y127843D01*
X212789Y128347D01*
X211900Y128524D01*
X211011Y128347D01*
X210257Y127843D01*
X209753Y127089D01*
X209576Y126200D01*
X209753Y125311D01*
X210257Y124557D01*
X211011Y124053D01*
X211900Y123876D01*
X212789Y124053D01*
X213543Y124557D01*
X213722Y124824D01*
X243209D01*
X243547Y124007D01*
X244181Y123181D01*
X245007Y122547D01*
X245968Y122149D01*
X247000Y122013D01*
X248032Y122149D01*
X248993Y122547D01*
X249819Y123181D01*
X250453Y124007D01*
X250851Y124968D01*
X250987Y126000D01*
X250851Y127032D01*
X250453Y127993D01*
X249819Y128819D01*
X248993Y129453D01*
X248032Y129851D01*
X247000Y129987D01*
D02*
G37*
G36*
Y139987D02*
X245968Y139851D01*
X245007Y139453D01*
X244181Y138819D01*
X243547Y137993D01*
X243354Y137526D01*
X211322D01*
X211143Y137794D01*
X210389Y138297D01*
X209500Y138474D01*
X208611Y138297D01*
X207857Y137794D01*
X207678Y137526D01*
X171222D01*
X171044Y137794D01*
X170289Y138297D01*
X169400Y138474D01*
X168511Y138297D01*
X167756Y137794D01*
X167578Y137526D01*
X137272D01*
X137093Y137794D01*
X136339Y138297D01*
X135450Y138474D01*
X134561Y138297D01*
X133807Y137794D01*
X133303Y137039D01*
X133126Y136150D01*
X133303Y135261D01*
X133807Y134506D01*
X134561Y134003D01*
X135450Y133826D01*
X136339Y134003D01*
X137093Y134506D01*
X137272Y134774D01*
X167578D01*
X167756Y134506D01*
X168511Y134003D01*
X169400Y133826D01*
X170289Y134003D01*
X171044Y134506D01*
X171222Y134774D01*
X207678D01*
X207857Y134506D01*
X208611Y134003D01*
X209500Y133826D01*
X210389Y134003D01*
X211143Y134506D01*
X211322Y134774D01*
X243230D01*
X243547Y134007D01*
X244181Y133181D01*
X245007Y132547D01*
X245968Y132149D01*
X247000Y132013D01*
X248032Y132149D01*
X248993Y132547D01*
X249819Y133181D01*
X250453Y134007D01*
X250851Y134968D01*
X250987Y136000D01*
X250851Y137032D01*
X250453Y137993D01*
X249819Y138819D01*
X248993Y139453D01*
X248032Y139851D01*
X247000Y139987D01*
D02*
G37*
G36*
X15756Y157788D02*
X14775Y157659D01*
X13862Y157281D01*
X13077Y156679D01*
X12475Y155894D01*
X12097Y154981D01*
X11968Y154000D01*
X12097Y153019D01*
X12475Y152106D01*
X13077Y151321D01*
X13862Y150719D01*
X14775Y150341D01*
X15756Y150212D01*
X16736Y150341D01*
X17650Y150719D01*
X18435Y151321D01*
X19037Y152106D01*
X19415Y153019D01*
X19544Y154000D01*
X19415Y154981D01*
X19037Y155894D01*
X18435Y156679D01*
X17650Y157281D01*
X16736Y157659D01*
X15756Y157788D01*
D02*
G37*
G36*
X5000Y119987D02*
X3968Y119851D01*
X3007Y119453D01*
X2181Y118819D01*
X1547Y117993D01*
X1149Y117032D01*
X1013Y116000D01*
X1149Y114968D01*
X1547Y114007D01*
X2181Y113181D01*
X3007Y112547D01*
X3968Y112149D01*
X5000Y112013D01*
X6032Y112149D01*
X6993Y112547D01*
X7819Y113181D01*
X8453Y114007D01*
X8851Y114968D01*
X8987Y116000D01*
X8851Y117032D01*
X8453Y117993D01*
X7819Y118819D01*
X6993Y119453D01*
X6032Y119851D01*
X5000Y119987D01*
D02*
G37*
G36*
X247000D02*
X245968Y119851D01*
X245007Y119453D01*
X244181Y118819D01*
X243547Y117993D01*
X243149Y117032D01*
X243013Y116000D01*
X243149Y114968D01*
X243547Y114007D01*
X244181Y113181D01*
X245007Y112547D01*
X245968Y112149D01*
X247000Y112013D01*
X248032Y112149D01*
X248993Y112547D01*
X249819Y113181D01*
X250453Y114007D01*
X250851Y114968D01*
X250987Y116000D01*
X250851Y117032D01*
X250453Y117993D01*
X249819Y118819D01*
X248993Y119453D01*
X248032Y119851D01*
X247000Y119987D01*
D02*
G37*
G36*
X203850Y128474D02*
X202961Y128297D01*
X202206Y127794D01*
X202028Y127526D01*
X135672D01*
X135494Y127794D01*
X134739Y128297D01*
X133850Y128474D01*
X132961Y128297D01*
X132206Y127794D01*
X131703Y127039D01*
X131526Y126150D01*
X131703Y125261D01*
X132206Y124506D01*
X132961Y124003D01*
X133850Y123826D01*
X134739Y124003D01*
X135494Y124506D01*
X135672Y124774D01*
X202028D01*
X202206Y124506D01*
X202961Y124003D01*
X203850Y123826D01*
X204739Y124003D01*
X205493Y124506D01*
X205997Y125261D01*
X206174Y126150D01*
X205997Y127039D01*
X205493Y127794D01*
X204739Y128297D01*
X203850Y128474D01*
D02*
G37*
G36*
X182800Y224027D02*
Y220606D01*
X186221D01*
X186151Y221138D01*
X185753Y222100D01*
X185119Y222925D01*
X184293Y223559D01*
X183332Y223957D01*
X182800Y224027D01*
D02*
G37*
G36*
X145512Y227756D02*
X138000D01*
Y220244D01*
X145512D01*
Y227756D01*
D02*
G37*
G36*
X225044Y236577D02*
X121444D01*
X120917Y236472D01*
X120471Y236173D01*
X111742Y227445D01*
X111225Y227659D01*
X110244Y227788D01*
X109264Y227659D01*
X108350Y227281D01*
X107565Y226679D01*
X106963Y225894D01*
X106749Y225377D01*
X81100D01*
X80573Y225272D01*
X80127Y224973D01*
X63030Y207876D01*
X56917D01*
X56786Y208072D01*
X56064Y208555D01*
X55213Y208724D01*
X48914D01*
X48063Y208555D01*
X47659Y208284D01*
X44133D01*
X43589Y208647D01*
X42700Y208824D01*
X41811Y208647D01*
X41057Y208143D01*
X40553Y207389D01*
X40376Y206500D01*
X40553Y205611D01*
X40916Y205067D01*
Y193339D01*
X28651Y181075D01*
X28011Y180947D01*
X27917Y180885D01*
X27476Y181121D01*
Y215200D01*
X27372Y215727D01*
X27073Y216173D01*
X19512Y223735D01*
Y227756D01*
X12000D01*
Y220244D01*
X19109D01*
X24724Y214630D01*
Y207655D01*
X24430Y207508D01*
X24224Y207479D01*
X19201Y212502D01*
X19415Y213019D01*
X19544Y214000D01*
X19415Y214981D01*
X19037Y215894D01*
X18435Y216679D01*
X17650Y217281D01*
X16736Y217659D01*
X15756Y217788D01*
X14775Y217659D01*
X13862Y217281D01*
X13077Y216679D01*
X12475Y215894D01*
X12097Y214981D01*
X11968Y214000D01*
X12097Y213019D01*
X12475Y212106D01*
X13077Y211321D01*
X13862Y210719D01*
X14775Y210341D01*
X15756Y210212D01*
X16736Y210341D01*
X17254Y210555D01*
X21924Y205886D01*
Y180486D01*
X21424Y180279D01*
X19201Y182502D01*
X19415Y183019D01*
X19544Y184000D01*
X19415Y184980D01*
X19037Y185894D01*
X18435Y186679D01*
X17650Y187281D01*
X16736Y187659D01*
X15756Y187788D01*
X14775Y187659D01*
X13862Y187281D01*
X13077Y186679D01*
X12475Y185894D01*
X12097Y184980D01*
X11968Y184000D01*
X12097Y183019D01*
X12475Y182106D01*
X13077Y181321D01*
X13862Y180719D01*
X14775Y180341D01*
X15756Y180212D01*
X16736Y180341D01*
X17254Y180555D01*
X19524Y178286D01*
Y176034D01*
X19073Y175906D01*
X19024Y175911D01*
X18435Y176679D01*
X17650Y177281D01*
X16736Y177659D01*
X15756Y177788D01*
X14775Y177659D01*
X13862Y177281D01*
X13077Y176679D01*
X12475Y175894D01*
X12097Y174980D01*
X11968Y174000D01*
X12097Y173020D01*
X12475Y172106D01*
X13077Y171321D01*
X13862Y170719D01*
X14775Y170341D01*
X15756Y170212D01*
X16736Y170341D01*
X17650Y170719D01*
X18435Y171321D01*
X19024Y172089D01*
X19073Y172094D01*
X19524Y171966D01*
Y170022D01*
X19256Y169843D01*
X18753Y169089D01*
X18576Y168200D01*
X18753Y167311D01*
X19256Y166557D01*
X20011Y166053D01*
X20707Y165914D01*
X20906Y165858D01*
X21076Y165401D01*
X20976Y164900D01*
X21153Y164011D01*
X21656Y163257D01*
X22411Y162753D01*
X23300Y162576D01*
X24189Y162753D01*
X24943Y163257D01*
X25447Y164011D01*
X25624Y164900D01*
X25552Y165261D01*
X25906Y165614D01*
X26100Y165576D01*
X26989Y165753D01*
X27744Y166256D01*
X28247Y167011D01*
X28424Y167900D01*
X28247Y168789D01*
X27744Y169544D01*
X27476Y169722D01*
Y176479D01*
X27917Y176715D01*
X28011Y176653D01*
X28900Y176476D01*
X29224Y176210D01*
Y166122D01*
X28956Y165944D01*
X28453Y165189D01*
X28276Y164300D01*
X28453Y163411D01*
X28956Y162656D01*
X29524Y162277D01*
X29648Y161694D01*
X15330Y147376D01*
X8953D01*
Y149953D01*
X1047D01*
Y142047D01*
X8953D01*
Y144624D01*
X15900D01*
X16427Y144728D01*
X16873Y145027D01*
X34883Y163036D01*
X35409Y162856D01*
X35443Y162589D01*
X10230Y137376D01*
X8708D01*
X8453Y137993D01*
X7819Y138819D01*
X6993Y139453D01*
X6032Y139851D01*
X5000Y139987D01*
X3968Y139851D01*
X3007Y139453D01*
X2181Y138819D01*
X1547Y137993D01*
X1149Y137032D01*
X1013Y136000D01*
X1149Y134968D01*
X1547Y134007D01*
X2181Y133181D01*
X3007Y132547D01*
X3968Y132149D01*
X5000Y132013D01*
X6032Y132149D01*
X6993Y132547D01*
X7819Y133181D01*
X8453Y134007D01*
X8708Y134624D01*
X10800D01*
X11327Y134728D01*
X11773Y135027D01*
X37585Y160838D01*
X37900Y160776D01*
X38789Y160953D01*
X39544Y161457D01*
X40047Y162211D01*
X40224Y163100D01*
X40047Y163989D01*
X39544Y164743D01*
X39276Y164922D01*
Y175130D01*
X40046Y175899D01*
X40524Y175754D01*
X40553Y175611D01*
X41057Y174856D01*
X41811Y174353D01*
X42700Y174176D01*
X43589Y174353D01*
X44133Y174716D01*
X47120D01*
X47473Y174361D01*
X47466Y173155D01*
X47342Y173073D01*
X47211Y172876D01*
X46622D01*
X46443Y173143D01*
X45689Y173647D01*
X44800Y173824D01*
X43911Y173647D01*
X43156Y173143D01*
X42653Y172389D01*
X42476Y171500D01*
X42653Y170611D01*
X43156Y169857D01*
X43911Y169353D01*
X44800Y169176D01*
X45689Y169353D01*
X46443Y169857D01*
X46570Y170046D01*
X47089Y170103D01*
X47339Y169931D01*
X47342Y169928D01*
X47448Y169857D01*
X47448Y169857D01*
X48063Y169445D01*
X48914Y169276D01*
X55213D01*
X56064Y169445D01*
X56680Y169857D01*
X57257D01*
X57448Y169395D01*
X15430Y127376D01*
X8708D01*
X8453Y127993D01*
X7819Y128819D01*
X6993Y129453D01*
X6032Y129851D01*
X5000Y129987D01*
X3968Y129851D01*
X3007Y129453D01*
X2181Y128819D01*
X1547Y127993D01*
X1149Y127032D01*
X1013Y126000D01*
X1149Y124968D01*
X1547Y124007D01*
X2181Y123181D01*
X3007Y122547D01*
X3968Y122149D01*
X5000Y122013D01*
X6032Y122149D01*
X6993Y122547D01*
X7819Y123181D01*
X8453Y124007D01*
X8708Y124624D01*
X16000D01*
X16527Y124728D01*
X16973Y125027D01*
X60773Y168827D01*
X60773Y168827D01*
X61072Y169273D01*
X61080Y169314D01*
X61443Y169556D01*
X61644Y169857D01*
X63645D01*
Y147722D01*
X56786D01*
X56064Y148205D01*
X55213Y148374D01*
X48914D01*
X48063Y148205D01*
X47342Y147722D01*
X46860Y147001D01*
X46690Y146150D01*
X46860Y145299D01*
X47316Y144615D01*
X47300Y142661D01*
X47211Y142526D01*
X44872D01*
X44693Y142794D01*
X43939Y143297D01*
X43050Y143474D01*
X42161Y143297D01*
X41407Y142794D01*
X40903Y142039D01*
X40726Y141150D01*
X40903Y140261D01*
X41407Y139506D01*
X42161Y139003D01*
X42952Y138845D01*
Y138335D01*
X42761Y138297D01*
X42006Y137794D01*
X41503Y137039D01*
X41326Y136150D01*
X41503Y135261D01*
X42006Y134506D01*
X42761Y134003D01*
X43252Y133905D01*
Y133395D01*
X42761Y133297D01*
X42006Y132793D01*
X41503Y132039D01*
X41326Y131150D01*
X41503Y130261D01*
X42006Y129507D01*
X42761Y129003D01*
X43650Y128826D01*
X44539Y129003D01*
X45294Y129507D01*
X45472Y129774D01*
X46840D01*
X47192Y129419D01*
X47177Y127476D01*
X46860Y127001D01*
X46690Y126150D01*
X46860Y125299D01*
X47155Y124856D01*
X47136Y122526D01*
X45472D01*
X45294Y122793D01*
X44539Y123297D01*
X43650Y123474D01*
X42761Y123297D01*
X42006Y122793D01*
X41503Y122039D01*
X41326Y121150D01*
X41503Y120261D01*
X42006Y119507D01*
X42761Y119003D01*
X43650Y118826D01*
X44539Y119003D01*
X45294Y119507D01*
X45472Y119774D01*
X46759D01*
X47111Y119419D01*
X47096Y117526D01*
X44450D01*
X44450Y117526D01*
X43923Y117422D01*
X43477Y117123D01*
X43477Y117123D01*
X40615Y114261D01*
X40300Y114324D01*
X39411Y114147D01*
X38656Y113644D01*
X38153Y112889D01*
X37976Y112000D01*
X38153Y111111D01*
X38656Y110356D01*
X39411Y109853D01*
X40300Y109676D01*
X41189Y109853D01*
X41943Y110356D01*
X42162Y110683D01*
X42632Y110488D01*
X42476Y109700D01*
X42653Y108811D01*
X43156Y108056D01*
X43576Y107776D01*
X43424Y107276D01*
X39422D01*
X39244Y107544D01*
X38489Y108047D01*
X37600Y108224D01*
X36711Y108047D01*
X35956Y107544D01*
X35453Y106789D01*
X35276Y105900D01*
X35453Y105011D01*
X35855Y104409D01*
X35956Y104256D01*
X35843Y103731D01*
X35245Y103132D01*
X34929Y103195D01*
X34040Y103018D01*
X33286Y102514D01*
X32782Y101760D01*
X32605Y100871D01*
X32782Y99981D01*
X33286Y99227D01*
X33911Y98809D01*
X34058Y98249D01*
X32915Y97106D01*
X32600Y97168D01*
X31711Y96991D01*
X30957Y96487D01*
X30453Y95733D01*
X30276Y94844D01*
X30366Y94391D01*
X29956Y93891D01*
X28513D01*
X28144Y94443D01*
X27389Y94947D01*
X26500Y95124D01*
X25611Y94947D01*
X24857Y94443D01*
X24353Y93689D01*
X24176Y92800D01*
X24353Y91911D01*
X24857Y91157D01*
X25611Y90653D01*
X26500Y90476D01*
X27389Y90653D01*
X28116Y91138D01*
X34892D01*
X35419Y91243D01*
X35866Y91541D01*
X37926Y93602D01*
X38244Y93557D01*
X38458Y93047D01*
X38153Y92589D01*
X37976Y91700D01*
X38153Y90811D01*
X38656Y90057D01*
X39411Y89553D01*
X40300Y89376D01*
X41189Y89553D01*
X41943Y90057D01*
X42122Y90324D01*
X57377D01*
X57613Y89883D01*
X57484Y89689D01*
X57307Y88800D01*
X57426Y88200D01*
X57069Y87700D01*
X56296D01*
X56064Y87854D01*
X55213Y88024D01*
X48914D01*
X48063Y87854D01*
X47832Y87700D01*
X47669D01*
X47342Y87372D01*
X46860Y86651D01*
X46690Y85800D01*
X46860Y84949D01*
X47342Y84228D01*
X47355Y84219D01*
X47361Y82614D01*
X46949Y82176D01*
X46022D01*
X45643Y82743D01*
X44889Y83247D01*
X44000Y83424D01*
X43111Y83247D01*
X42357Y82743D01*
X41853Y81989D01*
X41676Y81100D01*
X41853Y80211D01*
X42357Y79457D01*
X43111Y78953D01*
X44000Y78776D01*
X44889Y78953D01*
X45594Y79424D01*
X47211D01*
X47342Y79228D01*
X47375Y79205D01*
X47381Y77606D01*
X46975Y77176D01*
X45622D01*
X45443Y77443D01*
X44689Y77947D01*
X43800Y78124D01*
X42911Y77947D01*
X42156Y77443D01*
X41653Y76689D01*
X41476Y75800D01*
X41653Y74911D01*
X42156Y74157D01*
X42911Y73653D01*
X43800Y73476D01*
X44689Y73653D01*
X45443Y74157D01*
X45622Y74424D01*
X47211D01*
X47342Y74227D01*
X47395Y74192D01*
X47403Y72413D01*
X47342Y72373D01*
X46860Y71651D01*
X46690Y70800D01*
X46860Y69949D01*
X47342Y69227D01*
X47416Y69178D01*
X47422Y67589D01*
X47027Y67176D01*
X46022D01*
X45843Y67443D01*
X45089Y67947D01*
X44200Y68124D01*
X43311Y67947D01*
X42557Y67443D01*
X42097Y66756D01*
X41578Y66569D01*
X21776Y86370D01*
Y93356D01*
X21777Y93356D01*
X21672Y93883D01*
X21373Y94329D01*
X21373Y94329D01*
X19512Y96191D01*
Y101756D01*
X13456D01*
X13264Y102218D01*
X21673Y110627D01*
X21972Y111073D01*
X22076Y111600D01*
X22076Y111600D01*
Y118678D01*
X22343Y118857D01*
X22847Y119611D01*
X23024Y120500D01*
X22847Y121389D01*
X22343Y122143D01*
X21589Y122647D01*
X20700Y122824D01*
X19811Y122647D01*
X19057Y122143D01*
X18553Y121389D01*
X18376Y120500D01*
X18553Y119611D01*
X19057Y118857D01*
X19324Y118678D01*
Y117826D01*
X18824Y117674D01*
X18643Y117944D01*
X17889Y118447D01*
X17000Y118624D01*
X16111Y118447D01*
X15357Y117944D01*
X14853Y117189D01*
X14676Y116300D01*
X14853Y115411D01*
X15357Y114656D01*
X15624Y114478D01*
Y111270D01*
X9360Y105007D01*
X8887Y105241D01*
X8921Y105500D01*
X5500D01*
Y102079D01*
X5934Y102136D01*
X6141Y101974D01*
X6154Y101959D01*
X6307Y101722D01*
X6224Y101300D01*
Y36156D01*
X6328Y35629D01*
X6627Y35183D01*
X12311Y29498D01*
X12097Y28980D01*
X11968Y28000D01*
X12097Y27020D01*
X12475Y26106D01*
X13077Y25321D01*
X13862Y24719D01*
X14775Y24341D01*
X15756Y24212D01*
X16736Y24341D01*
X17650Y24719D01*
X18435Y25321D01*
X19037Y26106D01*
X19415Y27020D01*
X19544Y28000D01*
X19415Y28980D01*
X19201Y29498D01*
X31526Y41824D01*
X56200D01*
X56727Y41928D01*
X57173Y42227D01*
X60424Y45477D01*
X60924Y45270D01*
Y44322D01*
X60657Y44144D01*
X60153Y43389D01*
X59976Y42500D01*
X60153Y41611D01*
X60657Y40857D01*
X61411Y40353D01*
X62300Y40176D01*
X63189Y40353D01*
X63383Y40482D01*
X63824Y40246D01*
Y37283D01*
X63600Y37087D01*
X62568Y36951D01*
X61607Y36553D01*
X60781Y35919D01*
X60147Y35093D01*
X59749Y34132D01*
X59613Y33100D01*
X59749Y32068D01*
X60147Y31107D01*
X60781Y30281D01*
X61607Y29647D01*
X62568Y29249D01*
X63600Y29113D01*
X64632Y29249D01*
X65593Y29647D01*
X66419Y30281D01*
X67053Y31107D01*
X67451Y32068D01*
X67587Y33100D01*
X67451Y34132D01*
X67053Y35093D01*
X66576Y35714D01*
Y48400D01*
X77400D01*
Y48816D01*
X82700D01*
X83383Y48952D01*
X83962Y49338D01*
X92949Y58325D01*
X93589Y58453D01*
X94343Y58957D01*
X94847Y59711D01*
X95024Y60600D01*
X94847Y61489D01*
X94484Y62033D01*
Y71267D01*
X94847Y71811D01*
X95024Y72700D01*
X94847Y73589D01*
X94343Y74343D01*
X93663Y74798D01*
X93656Y75096D01*
X93715Y75319D01*
X94389Y75453D01*
X95143Y75957D01*
X95647Y76711D01*
X95724Y77094D01*
X96224Y77045D01*
Y44100D01*
X96328Y43573D01*
X96627Y43127D01*
X107727Y32027D01*
X108173Y31728D01*
X108217Y31618D01*
X108249Y31203D01*
X107565Y30679D01*
X106963Y29894D01*
X106585Y28980D01*
X106456Y28000D01*
X106585Y27020D01*
X106963Y26106D01*
X107565Y25321D01*
X108063Y24939D01*
X107894Y24439D01*
X85145D01*
X77553Y32031D01*
Y37053D01*
X69647D01*
Y29147D01*
X74669D01*
X82858Y20958D01*
X82858Y20958D01*
X83520Y20516D01*
X84300Y20361D01*
X84300Y20361D01*
X165955D01*
X171933Y14383D01*
X171754Y13855D01*
X171101Y13769D01*
X170187Y13390D01*
X169402Y12788D01*
X168800Y12004D01*
X168422Y11090D01*
X168293Y10109D01*
Y9428D01*
X175869D01*
Y10109D01*
X175740Y11090D01*
X175362Y12004D01*
X175011Y12461D01*
X175258Y12961D01*
X177449D01*
X177611Y12853D01*
X178500Y12676D01*
X179389Y12853D01*
X179551Y12961D01*
X182449D01*
X182611Y12853D01*
X183500Y12676D01*
X184389Y12853D01*
X184551Y12961D01*
X188449D01*
X188611Y12853D01*
X189500Y12676D01*
X190389Y12853D01*
X191144Y13356D01*
X191647Y14111D01*
X191685Y14301D01*
X193088Y15705D01*
X193530Y16366D01*
X193686Y17146D01*
Y17854D01*
X194134Y18075D01*
X194251Y17985D01*
X195021Y17666D01*
X195347Y17623D01*
Y20750D01*
Y23877D01*
X195021Y23834D01*
X194251Y23515D01*
X193994Y23318D01*
X193961Y23308D01*
X193349Y23453D01*
X193205Y23667D01*
Y26550D01*
X181782D01*
Y22400D01*
Y18250D01*
X189159D01*
X189367Y17750D01*
X188801Y17185D01*
X188611Y17147D01*
X188449Y17039D01*
X184551D01*
X184389Y17147D01*
X183500Y17324D01*
X182611Y17147D01*
X182449Y17039D01*
X179551D01*
X179389Y17147D01*
X178500Y17324D01*
X177611Y17147D01*
X177449Y17039D01*
X175045D01*
X168242Y23842D01*
X167580Y24284D01*
X166800Y24439D01*
X144106D01*
X143937Y24939D01*
X144435Y25321D01*
X145037Y26106D01*
X145415Y27020D01*
X145544Y28000D01*
X145415Y28980D01*
X145037Y29894D01*
X144779Y30229D01*
X145026Y30729D01*
X199989D01*
X200053Y30411D01*
X200556Y29656D01*
X201311Y29153D01*
X202200Y28976D01*
X203089Y29153D01*
X203843Y29656D01*
X204347Y30411D01*
X204524Y31300D01*
X204381Y32018D01*
X204683Y32518D01*
X232138D01*
X232665Y32622D01*
X233112Y32921D01*
X234746Y34555D01*
X235264Y34341D01*
X236244Y34212D01*
X237225Y34341D01*
X238138Y34719D01*
X238923Y35321D01*
X239525Y36106D01*
X239903Y37020D01*
X240032Y38000D01*
X239903Y38980D01*
X239525Y39894D01*
X238923Y40679D01*
X238138Y41281D01*
X237225Y41659D01*
X236244Y41788D01*
X235264Y41659D01*
X234350Y41281D01*
X233565Y40679D01*
X232963Y39894D01*
X232585Y38980D01*
X232456Y38000D01*
X232585Y37020D01*
X232799Y36502D01*
X231568Y35271D01*
X145026D01*
X144779Y35770D01*
X145037Y36106D01*
X145415Y37020D01*
X145544Y38000D01*
X145415Y38980D01*
X145037Y39894D01*
X144707Y40324D01*
X144954Y40824D01*
X230444D01*
X230971Y40928D01*
X231417Y41227D01*
X234746Y44555D01*
X235264Y44341D01*
X236244Y44212D01*
X237225Y44341D01*
X238138Y44719D01*
X238923Y45321D01*
X239525Y46106D01*
X239903Y47019D01*
X240032Y48000D01*
X239903Y48981D01*
X239525Y49894D01*
X238923Y50679D01*
X238138Y51281D01*
X237225Y51659D01*
X236244Y51788D01*
X235264Y51659D01*
X234350Y51281D01*
X233565Y50679D01*
X232963Y49894D01*
X232585Y48981D01*
X232456Y48000D01*
X232585Y47019D01*
X232799Y46502D01*
X229874Y43576D01*
X223076D01*
X222885Y44038D01*
X228773Y49927D01*
X229072Y50373D01*
X229176Y50900D01*
Y58986D01*
X234746Y64555D01*
X235264Y64341D01*
X236244Y64212D01*
X237225Y64341D01*
X238138Y64719D01*
X238923Y65321D01*
X239525Y66106D01*
X239903Y67019D01*
X240032Y68000D01*
X239903Y68980D01*
X239525Y69894D01*
X238923Y70679D01*
X238138Y71281D01*
X237225Y71659D01*
X236244Y71788D01*
X235264Y71659D01*
X234350Y71281D01*
X233565Y70679D01*
X232963Y69894D01*
X232585Y68980D01*
X232456Y68000D01*
X232585Y67019D01*
X232799Y66502D01*
X226827Y60529D01*
X226528Y60083D01*
X226424Y59556D01*
Y51470D01*
X220130Y45176D01*
X144954D01*
X144707Y45676D01*
X145037Y46106D01*
X145415Y47019D01*
X145512Y47757D01*
X146038Y47938D01*
X146617Y47552D01*
X147300Y47416D01*
X186900D01*
X187583Y47552D01*
X188162Y47938D01*
X192723Y52500D01*
X193264D01*
X193887Y52376D01*
X200186D01*
X200808Y52500D01*
X202200D01*
Y52916D01*
X205767D01*
X206311Y52553D01*
X207200Y52376D01*
X208089Y52553D01*
X208843Y53057D01*
X209347Y53811D01*
X209524Y54700D01*
X209347Y55589D01*
X208843Y56343D01*
X208089Y56847D01*
X207200Y57024D01*
X206311Y56847D01*
X205767Y56484D01*
X202200D01*
Y58688D01*
X202240Y58749D01*
X202410Y59600D01*
X202240Y60451D01*
X202200Y60511D01*
Y62527D01*
X202700Y62794D01*
X203211Y62453D01*
X204100Y62276D01*
X204989Y62453D01*
X205743Y62957D01*
X206247Y63711D01*
X206424Y64600D01*
X206247Y65489D01*
X205743Y66243D01*
X204989Y66747D01*
X204498Y66845D01*
Y67355D01*
X204989Y67453D01*
X205743Y67957D01*
X206247Y68711D01*
X206424Y69600D01*
X206247Y70489D01*
X205743Y71243D01*
X204989Y71747D01*
X204100Y71924D01*
X203211Y71747D01*
X202700Y71406D01*
X202200Y71673D01*
Y73224D01*
X212578D01*
X212757Y72957D01*
X213511Y72453D01*
X214400Y72276D01*
X215289Y72453D01*
X216043Y72957D01*
X216547Y73711D01*
X216724Y74600D01*
X216547Y75489D01*
X216043Y76243D01*
X215289Y76747D01*
X214400Y76924D01*
X213511Y76747D01*
X212757Y76243D01*
X212578Y75976D01*
X202200D01*
Y78224D01*
X207578D01*
X207757Y77957D01*
X208511Y77453D01*
X209400Y77276D01*
X210289Y77453D01*
X211043Y77957D01*
X211547Y78711D01*
X211724Y79600D01*
X211547Y80489D01*
X211043Y81243D01*
X210289Y81747D01*
X209400Y81924D01*
X208511Y81747D01*
X207757Y81243D01*
X207578Y80976D01*
X202200D01*
Y83071D01*
X204680D01*
X204757Y82957D01*
X205511Y82453D01*
X206400Y82276D01*
X207289Y82453D01*
X208044Y82957D01*
X208547Y83711D01*
X208724Y84600D01*
X208547Y85489D01*
X208044Y86243D01*
X207289Y86747D01*
X206400Y86924D01*
X205511Y86747D01*
X204757Y86243D01*
X204680Y86129D01*
X202200D01*
Y88224D01*
X210078D01*
X210257Y87957D01*
X211011Y87453D01*
X211900Y87276D01*
X212789Y87453D01*
X213543Y87957D01*
X214047Y88711D01*
X214224Y89600D01*
X214047Y90489D01*
X213918Y90683D01*
X214154Y91124D01*
X217978D01*
X218157Y90857D01*
X218911Y90353D01*
X219800Y90176D01*
X220689Y90353D01*
X221443Y90857D01*
X221947Y91611D01*
X222124Y92500D01*
X221947Y93389D01*
X221751Y93683D01*
X221987Y94124D01*
X226778D01*
X226957Y93857D01*
X227711Y93353D01*
X228600Y93176D01*
X229489Y93353D01*
X230024Y93710D01*
X230523Y93444D01*
Y92344D01*
X230628Y91817D01*
X230927Y91371D01*
X232799Y89498D01*
X232585Y88981D01*
X232456Y88000D01*
X232585Y87019D01*
X232963Y86106D01*
X233565Y85321D01*
X234350Y84719D01*
X235264Y84341D01*
X236244Y84212D01*
X237225Y84341D01*
X238138Y84719D01*
X238923Y85321D01*
X239525Y86106D01*
X239903Y87019D01*
X240032Y88000D01*
X239903Y88981D01*
X239525Y89894D01*
X238923Y90679D01*
X238138Y91281D01*
X237225Y91659D01*
X236244Y91788D01*
X235264Y91659D01*
X234746Y91445D01*
X233277Y92914D01*
Y94913D01*
X233776Y95159D01*
X234350Y94719D01*
X235264Y94341D01*
X236244Y94212D01*
X237225Y94341D01*
X238138Y94719D01*
X238923Y95321D01*
X239525Y96106D01*
X239903Y97019D01*
X240032Y98000D01*
X239903Y98980D01*
X239525Y99894D01*
X238923Y100679D01*
X238138Y101281D01*
X237225Y101659D01*
X236244Y101788D01*
X235264Y101659D01*
X234746Y101445D01*
X228417Y107773D01*
X227971Y108072D01*
X227444Y108176D01*
X145122D01*
X144943Y108443D01*
X144189Y108947D01*
X143300Y109124D01*
X142411Y108947D01*
X141656Y108443D01*
X141583Y108334D01*
X141112Y108529D01*
X141263Y109285D01*
X141086Y110175D01*
X140582Y110928D01*
X139828Y111432D01*
X138938Y111609D01*
X138147Y111452D01*
X137803Y111647D01*
X137659Y111773D01*
X137651Y112035D01*
X137754Y112104D01*
X138258Y112858D01*
X138435Y113747D01*
X138258Y114637D01*
X137754Y115391D01*
X137000Y115894D01*
X136111Y116071D01*
X135221Y115894D01*
X134467Y115391D01*
X133976Y114656D01*
X133939Y114649D01*
X133476Y114775D01*
Y115378D01*
X133744Y115557D01*
X134247Y116311D01*
X134424Y117200D01*
X134247Y118089D01*
X133744Y118843D01*
X132989Y119347D01*
X132100Y119524D01*
X131211Y119347D01*
X130456Y118843D01*
X129953Y118089D01*
X129776Y117200D01*
X129925Y116450D01*
X129678Y116109D01*
X129549Y116015D01*
X129000Y116124D01*
X128111Y115947D01*
X127357Y115444D01*
X126853Y114689D01*
X126676Y113800D01*
X126853Y112911D01*
X127357Y112156D01*
X127624Y111978D01*
Y56370D01*
X127327Y56073D01*
X127028Y55627D01*
X126924Y55100D01*
X127028Y54573D01*
X127327Y54127D01*
X134427Y47027D01*
X134427Y47027D01*
X134873Y46728D01*
X135400Y46624D01*
X135400Y46624D01*
X138261D01*
X138475Y46106D01*
X138805Y45676D01*
X138558Y45176D01*
X135014D01*
X113689Y66502D01*
X113903Y67019D01*
X114032Y68000D01*
X113903Y68980D01*
X113525Y69894D01*
X112923Y70679D01*
X112138Y71281D01*
X111225Y71659D01*
X110244Y71788D01*
X109264Y71659D01*
X108746Y71445D01*
X107515Y72676D01*
Y74730D01*
X108015Y74976D01*
X108350Y74719D01*
X109264Y74341D01*
X110244Y74212D01*
X111225Y74341D01*
X112138Y74719D01*
X112923Y75321D01*
X113525Y76106D01*
X113903Y77020D01*
X114032Y78000D01*
X113903Y78980D01*
X113689Y79498D01*
X125303Y91112D01*
X125601Y91559D01*
X125706Y92085D01*
Y177470D01*
X125706Y177471D01*
X125832Y177624D01*
X139487D01*
X139657Y177124D01*
X139077Y176679D01*
X138475Y175894D01*
X138097Y174980D01*
X137968Y174000D01*
X138097Y173020D01*
X138475Y172106D01*
X139077Y171321D01*
X139657Y170876D01*
X139487Y170376D01*
X135622D01*
X135443Y170643D01*
X134689Y171147D01*
X133800Y171324D01*
X132911Y171147D01*
X132157Y170643D01*
X131653Y169889D01*
X131476Y169000D01*
X131653Y168111D01*
X132157Y167357D01*
X132911Y166853D01*
X133800Y166676D01*
X134689Y166853D01*
X135443Y167357D01*
X135622Y167624D01*
X139487D01*
X139657Y167124D01*
X139077Y166679D01*
X138475Y165894D01*
X138097Y164980D01*
X137968Y164000D01*
X138097Y163020D01*
X138475Y162106D01*
X139077Y161321D01*
X139396Y161076D01*
X139226Y160576D01*
X135622D01*
X135443Y160844D01*
X134689Y161347D01*
X133800Y161524D01*
X132911Y161347D01*
X132157Y160844D01*
X131653Y160089D01*
X131476Y159200D01*
X131653Y158311D01*
X132157Y157556D01*
X132911Y157053D01*
X133800Y156876D01*
X134689Y157053D01*
X135443Y157556D01*
X135622Y157824D01*
X139866D01*
X139965Y157324D01*
X139862Y157281D01*
X139077Y156679D01*
X138475Y155894D01*
X138097Y154981D01*
X137968Y154000D01*
X138097Y153019D01*
X138451Y152164D01*
X138253Y151749D01*
X138223Y151700D01*
X138100Y151724D01*
X137211Y151547D01*
X136457Y151043D01*
X135953Y150289D01*
X135776Y149400D01*
X135953Y148511D01*
X136243Y148076D01*
X135976Y147576D01*
X132522D01*
X132343Y147844D01*
X131589Y148347D01*
X130700Y148524D01*
X129811Y148347D01*
X129057Y147844D01*
X128553Y147089D01*
X128376Y146200D01*
X128553Y145311D01*
X129057Y144556D01*
X129811Y144053D01*
X130700Y143876D01*
X131589Y144053D01*
X132343Y144556D01*
X132522Y144824D01*
X180106D01*
X180811Y144353D01*
X181700Y144176D01*
X182589Y144353D01*
X183344Y144857D01*
X183522Y145124D01*
X212578D01*
X212757Y144857D01*
X213511Y144353D01*
X214400Y144176D01*
X215289Y144353D01*
X216043Y144857D01*
X216222Y145124D01*
X243047D01*
Y142047D01*
X250953D01*
Y149953D01*
X243047D01*
Y147876D01*
X216222D01*
X216043Y148143D01*
X215289Y148647D01*
X214400Y148824D01*
X213511Y148647D01*
X212757Y148143D01*
X212578Y147876D01*
X183522D01*
X183344Y148143D01*
X182589Y148647D01*
X181700Y148824D01*
X180811Y148647D01*
X180057Y148143D01*
X179678Y147576D01*
X177225D01*
X176957Y148076D01*
X177247Y148511D01*
X177424Y149400D01*
X177247Y150289D01*
X176743Y151043D01*
X175989Y151547D01*
X175100Y151724D01*
X174211Y151547D01*
X173457Y151043D01*
X173278Y150776D01*
X144502D01*
X144342Y151250D01*
X144435Y151321D01*
X145037Y152106D01*
X145251Y152624D01*
X157678D01*
X157857Y152357D01*
X158611Y151853D01*
X159500Y151676D01*
X160389Y151853D01*
X161144Y152357D01*
X161647Y153111D01*
X161824Y154000D01*
X161647Y154889D01*
X161144Y155643D01*
X160389Y156147D01*
X159500Y156324D01*
X158611Y156147D01*
X157857Y155643D01*
X157678Y155376D01*
X145251D01*
X145037Y155894D01*
X144435Y156679D01*
X143650Y157281D01*
X143547Y157324D01*
X143646Y157824D01*
X231444D01*
X231971Y157928D01*
X232417Y158227D01*
X234746Y160555D01*
X235264Y160341D01*
X236244Y160212D01*
X237225Y160341D01*
X238138Y160719D01*
X238923Y161321D01*
X239525Y162106D01*
X239903Y163020D01*
X240032Y164000D01*
X239903Y164980D01*
X239525Y165894D01*
X238923Y166679D01*
X238138Y167281D01*
X237225Y167659D01*
X236244Y167788D01*
X235264Y167659D01*
X234350Y167281D01*
X233565Y166679D01*
X232963Y165894D01*
X232585Y164980D01*
X232456Y164000D01*
X232585Y163020D01*
X232799Y162502D01*
X230874Y160576D01*
X144285D01*
X144116Y161076D01*
X144435Y161321D01*
X145037Y162106D01*
X145251Y162624D01*
X154378D01*
X154557Y162356D01*
X155311Y161853D01*
X156200Y161676D01*
X157089Y161853D01*
X157843Y162356D01*
X158347Y163111D01*
X158524Y164000D01*
X158347Y164889D01*
X157843Y165644D01*
X157089Y166147D01*
X156200Y166324D01*
X155311Y166147D01*
X154557Y165644D01*
X154378Y165376D01*
X145251D01*
X145037Y165894D01*
X144435Y166679D01*
X143855Y167124D01*
X144025Y167624D01*
X231244D01*
X231771Y167728D01*
X232217Y168027D01*
X234746Y170555D01*
X235264Y170341D01*
X236244Y170212D01*
X237225Y170341D01*
X238138Y170719D01*
X238923Y171321D01*
X239525Y172106D01*
X239903Y173020D01*
X240032Y174000D01*
X239903Y174980D01*
X239525Y175894D01*
X238923Y176679D01*
X238138Y177281D01*
X237225Y177659D01*
X236244Y177788D01*
X235264Y177659D01*
X234350Y177281D01*
X233565Y176679D01*
X232963Y175894D01*
X232585Y174980D01*
X232456Y174000D01*
X232585Y173020D01*
X232799Y172502D01*
X230674Y170376D01*
X210850D01*
X210698Y170876D01*
X210773Y170927D01*
X232287Y192440D01*
X232859Y192356D01*
X232963Y192106D01*
X233565Y191321D01*
X234350Y190719D01*
X235264Y190341D01*
X236244Y190212D01*
X237225Y190341D01*
X238138Y190719D01*
X238923Y191321D01*
X239525Y192106D01*
X239903Y193019D01*
X240032Y194000D01*
X239903Y194981D01*
X239525Y195894D01*
X238923Y196679D01*
X238138Y197281D01*
X237225Y197659D01*
X236244Y197788D01*
X235264Y197659D01*
X234350Y197281D01*
X233565Y196679D01*
X232963Y195894D01*
X232749Y195376D01*
X231900D01*
X231373Y195272D01*
X230927Y194973D01*
X209230Y173276D01*
X178980D01*
X178680Y173776D01*
X178824Y174500D01*
X178647Y175389D01*
X178248Y175987D01*
X178667Y176267D01*
X179041Y176825D01*
X179172Y177484D01*
X179041Y178143D01*
X178667Y178702D01*
Y178826D01*
X179041Y179384D01*
X179172Y180043D01*
X179041Y180702D01*
X178985Y180785D01*
X179221Y181226D01*
X179776D01*
X179954Y180959D01*
X180708Y180455D01*
X181598Y180278D01*
X182487Y180455D01*
X183241Y180959D01*
X183745Y181713D01*
X183922Y182602D01*
X183745Y183492D01*
X183241Y184246D01*
X182487Y184750D01*
X181598Y184927D01*
X180708Y184750D01*
X179954Y184246D01*
X179776Y183979D01*
X179221D01*
X178985Y184420D01*
X179041Y184502D01*
X179172Y185161D01*
X179041Y185820D01*
X178667Y186379D01*
Y186503D01*
X179041Y187062D01*
X179172Y187721D01*
X179041Y188380D01*
X178667Y188938D01*
Y189062D01*
X179041Y189620D01*
X179172Y190279D01*
X179041Y190938D01*
X178667Y191497D01*
Y191621D01*
X179041Y192180D01*
X179172Y192839D01*
X179041Y193498D01*
X178667Y194056D01*
Y194180D01*
X179041Y194739D01*
X179172Y195398D01*
X179041Y196057D01*
X178667Y196615D01*
Y196739D01*
X179041Y197298D01*
X179172Y197957D01*
X179041Y198616D01*
X178667Y199174D01*
Y199298D01*
X179041Y199857D01*
X179052Y199916D01*
X175186D01*
Y200516D01*
D01*
Y199916D01*
X171319D01*
X171331Y199857D01*
X171704Y199298D01*
Y199174D01*
X171331Y198616D01*
X171200Y197957D01*
X171236Y197776D01*
X170882Y197423D01*
X170800Y197439D01*
X169445D01*
X160739Y206145D01*
Y207153D01*
X161196Y207504D01*
X161757Y208235D01*
X162110Y209086D01*
X162230Y210000D01*
X162110Y210914D01*
X161757Y211765D01*
X161196Y212496D01*
X160465Y213057D01*
X159614Y213410D01*
X158700Y213530D01*
X157786Y213410D01*
X156935Y213057D01*
X156204Y212496D01*
X155643Y211765D01*
X155290Y210914D01*
X155170Y210000D01*
X155290Y209086D01*
X155643Y208235D01*
X156204Y207504D01*
X156661Y207153D01*
Y205300D01*
X156816Y204520D01*
X157258Y203858D01*
X167158Y193958D01*
X167158Y193958D01*
X167820Y193516D01*
X168600Y193361D01*
X170800D01*
X170883Y193377D01*
X171237Y193024D01*
X171200Y192839D01*
X171331Y192180D01*
X171704Y191621D01*
Y191497D01*
X171331Y190938D01*
X171200Y190279D01*
X171331Y189620D01*
X171704Y189062D01*
Y188938D01*
X171331Y188380D01*
X171200Y187721D01*
X171331Y187062D01*
X171704Y186503D01*
Y186379D01*
X171331Y185820D01*
X171200Y185161D01*
X171331Y184502D01*
X171704Y183944D01*
Y183820D01*
X171331Y183261D01*
X171200Y182602D01*
X171287Y182163D01*
X170837Y181862D01*
X170346Y182191D01*
X169457Y182368D01*
X168567Y182191D01*
X167813Y181687D01*
X167309Y180933D01*
X167132Y180043D01*
X167309Y179154D01*
X167813Y178400D01*
X168567Y177896D01*
X169457Y177719D01*
X170346Y177896D01*
X170837Y178224D01*
X171287Y177924D01*
X171200Y177484D01*
X171331Y176825D01*
X171704Y176267D01*
X172263Y175893D01*
X172922Y175762D01*
X174046D01*
X174327Y175262D01*
X174176Y174500D01*
X174320Y173776D01*
X174020Y173276D01*
X160870D01*
X154173Y179973D01*
X153727Y180272D01*
X153200Y180376D01*
X144025D01*
X143855Y180876D01*
X144435Y181321D01*
X145037Y182106D01*
X145415Y183019D01*
X145544Y184000D01*
X145415Y184980D01*
X145037Y185894D01*
X144435Y186679D01*
X143650Y187281D01*
X142736Y187659D01*
X141756Y187788D01*
X140775Y187659D01*
X139862Y187281D01*
X139077Y186679D01*
X138475Y185894D01*
X138097Y184980D01*
X137968Y184000D01*
X138097Y183019D01*
X138475Y182106D01*
X139077Y181321D01*
X139657Y180876D01*
X139487Y180376D01*
X125814D01*
X113689Y192502D01*
X113903Y193019D01*
X114032Y194000D01*
X113903Y194981D01*
X113525Y195894D01*
X112923Y196679D01*
X112138Y197281D01*
X111225Y197659D01*
X110244Y197788D01*
X109264Y197659D01*
X108350Y197281D01*
X107565Y196679D01*
X106963Y195894D01*
X106585Y194981D01*
X106456Y194000D01*
X106585Y193019D01*
X106963Y192106D01*
X107014Y192039D01*
X106638Y191709D01*
X105376Y192970D01*
Y197186D01*
X108746Y200555D01*
X109264Y200341D01*
X110244Y200212D01*
X111225Y200341D01*
X112138Y200719D01*
X112923Y201321D01*
X113525Y202106D01*
X113903Y203019D01*
X114032Y204000D01*
X113903Y204980D01*
X113525Y205894D01*
X112923Y206679D01*
X112138Y207281D01*
X111225Y207659D01*
X110244Y207788D01*
X109264Y207659D01*
X108350Y207281D01*
X107565Y206679D01*
X106963Y205894D01*
X106585Y204980D01*
X106456Y204000D01*
X106585Y203019D01*
X106799Y202502D01*
X103027Y198729D01*
X102728Y198283D01*
X102624Y197756D01*
Y192400D01*
X102728Y191873D01*
X103027Y191427D01*
X106527Y187927D01*
X106973Y187628D01*
X107500Y187523D01*
X107500Y187524D01*
X107845D01*
X108015Y187024D01*
X107565Y186679D01*
X106963Y185894D01*
X106585Y184980D01*
X106456Y184000D01*
X106585Y183019D01*
X106963Y182106D01*
X107565Y181321D01*
X108350Y180719D01*
X109264Y180341D01*
X110244Y180212D01*
X111225Y180341D01*
X111742Y180555D01*
X120324Y171974D01*
Y146494D01*
X119824Y146342D01*
X119773Y146417D01*
X119773Y146417D01*
X113689Y152502D01*
X113903Y153019D01*
X114032Y154000D01*
X113903Y154981D01*
X113525Y155894D01*
X112923Y156679D01*
X112138Y157281D01*
X111225Y157659D01*
X110244Y157788D01*
X109264Y157659D01*
X108350Y157281D01*
X107565Y156679D01*
X106963Y155894D01*
X106585Y154981D01*
X106456Y154000D01*
X106585Y153019D01*
X106963Y152106D01*
X107565Y151321D01*
X108350Y150719D01*
X109264Y150341D01*
X110244Y150212D01*
X111225Y150341D01*
X111742Y150555D01*
X117424Y144874D01*
Y99913D01*
X117394Y99765D01*
Y94002D01*
X117157Y93843D01*
X116653Y93089D01*
X116476Y92200D01*
X116653Y91311D01*
X117157Y90557D01*
X117911Y90053D01*
X118800Y89876D01*
X119164Y89948D01*
X119727Y89551D01*
X119743Y89445D01*
X111742Y81445D01*
X111225Y81659D01*
X110244Y81788D01*
X109264Y81659D01*
X108350Y81281D01*
X108015Y81024D01*
X107515Y81270D01*
Y84662D01*
X107515Y84662D01*
X107499Y84742D01*
X107952Y85024D01*
X108350Y84719D01*
X109264Y84341D01*
X110244Y84212D01*
X111225Y84341D01*
X112138Y84719D01*
X112923Y85321D01*
X113525Y86106D01*
X113903Y87019D01*
X114032Y88000D01*
X113903Y88981D01*
X113525Y89894D01*
X112923Y90679D01*
X112138Y91281D01*
X111225Y91659D01*
X110244Y91788D01*
X109264Y91659D01*
X108746Y91445D01*
X101867Y98324D01*
X101896Y98530D01*
X102043Y98824D01*
X102678D01*
X102857Y98557D01*
X103611Y98053D01*
X104500Y97876D01*
X105389Y98053D01*
X106013Y98470D01*
X106464Y98251D01*
X106486Y98230D01*
X106456Y98000D01*
X106585Y97019D01*
X106963Y96106D01*
X107565Y95321D01*
X108350Y94719D01*
X109264Y94341D01*
X110244Y94212D01*
X111225Y94341D01*
X112138Y94719D01*
X112923Y95321D01*
X113525Y96106D01*
X113903Y97019D01*
X114032Y98000D01*
X113903Y98980D01*
X113525Y99894D01*
X112923Y100679D01*
X112138Y101281D01*
X111620Y101495D01*
Y105056D01*
X111516Y105583D01*
X111217Y106029D01*
X100123Y117123D01*
X99677Y117422D01*
X99150Y117526D01*
X97913D01*
X97638Y117937D01*
X97650Y118026D01*
X97824Y118900D01*
X97761Y119215D01*
X99773Y121227D01*
X99773Y121227D01*
X100072Y121673D01*
X100176Y122200D01*
Y140300D01*
X100072Y140827D01*
X99773Y141273D01*
X93923Y147123D01*
X93477Y147422D01*
X92950Y147526D01*
X77389D01*
X77300Y147660D01*
Y147681D01*
X77258Y147722D01*
X76537Y148205D01*
X75686Y148374D01*
X69387D01*
X68536Y148205D01*
X67814Y147722D01*
X67214D01*
Y169857D01*
X67920D01*
X68536Y169445D01*
X69387Y169276D01*
X75686D01*
X76537Y169445D01*
X77152Y169857D01*
X77187D01*
X77389Y170059D01*
Y170124D01*
X77740Y170649D01*
X77910Y171500D01*
X77740Y172351D01*
X77389Y172876D01*
Y175124D01*
X78378D01*
X78557Y174856D01*
X79311Y174353D01*
X80200Y174176D01*
X81089Y174353D01*
X81844Y174856D01*
X82347Y175611D01*
X82524Y176500D01*
X82347Y177389D01*
X81844Y178143D01*
X81089Y178647D01*
X80200Y178824D01*
X79311Y178647D01*
X78557Y178143D01*
X78378Y177876D01*
X77389D01*
Y180123D01*
X77740Y180649D01*
X77910Y181500D01*
X77740Y182351D01*
X77389Y182876D01*
Y185124D01*
X78078D01*
X78256Y184856D01*
X79011Y184353D01*
X79900Y184176D01*
X80789Y184353D01*
X81543Y184856D01*
X82047Y185611D01*
X82224Y186500D01*
X82047Y187389D01*
X81543Y188143D01*
X80789Y188647D01*
X79900Y188824D01*
X79011Y188647D01*
X78256Y188143D01*
X78078Y187876D01*
X77389D01*
Y190123D01*
X82174D01*
X106799Y165498D01*
X106585Y164980D01*
X106456Y164000D01*
X106585Y163020D01*
X106963Y162106D01*
X107565Y161321D01*
X108350Y160719D01*
X109264Y160341D01*
X110244Y160212D01*
X111225Y160341D01*
X112138Y160719D01*
X112923Y161321D01*
X113525Y162106D01*
X113903Y163020D01*
X114032Y164000D01*
X113903Y164980D01*
X113525Y165894D01*
X112923Y166679D01*
X112138Y167281D01*
X111225Y167659D01*
X110244Y167788D01*
X109264Y167659D01*
X108746Y167445D01*
X83717Y192473D01*
X83271Y192772D01*
X82744Y192876D01*
X77389D01*
Y195124D01*
X77740Y195649D01*
X77910Y196500D01*
X77740Y197351D01*
X77389Y197876D01*
Y200124D01*
X82174D01*
X106799Y175498D01*
X106585Y174980D01*
X106456Y174000D01*
X106585Y173020D01*
X106963Y172106D01*
X107565Y171321D01*
X108350Y170719D01*
X109264Y170341D01*
X110244Y170212D01*
X111225Y170341D01*
X112138Y170719D01*
X112923Y171321D01*
X113525Y172106D01*
X113903Y173020D01*
X114032Y174000D01*
X113903Y174980D01*
X113525Y175894D01*
X112923Y176679D01*
X112138Y177281D01*
X111225Y177659D01*
X110244Y177788D01*
X109264Y177659D01*
X108746Y177445D01*
X83717Y202473D01*
X83271Y202772D01*
X82744Y202876D01*
X77389D01*
Y205123D01*
X95400D01*
X95927Y205228D01*
X96373Y205527D01*
X103470Y212624D01*
X106749D01*
X106963Y212106D01*
X107565Y211321D01*
X108350Y210719D01*
X109264Y210341D01*
X110244Y210212D01*
X111225Y210341D01*
X112138Y210719D01*
X112923Y211321D01*
X113525Y212106D01*
X113903Y213019D01*
X114032Y214000D01*
X113903Y214981D01*
X113689Y215498D01*
X127614Y229423D01*
X218874D01*
X232799Y215498D01*
X232585Y214981D01*
X232456Y214000D01*
X232585Y213019D01*
X232963Y212106D01*
X233565Y211321D01*
X234350Y210719D01*
X235264Y210341D01*
X236244Y210212D01*
X237225Y210341D01*
X238138Y210719D01*
X238923Y211321D01*
X239525Y212106D01*
X239903Y213019D01*
X240032Y214000D01*
X239903Y214981D01*
X239525Y215894D01*
X238923Y216679D01*
X238138Y217281D01*
X237225Y217659D01*
X236244Y217788D01*
X235264Y217659D01*
X234746Y217445D01*
X220417Y231773D01*
X219971Y232072D01*
X219444Y232176D01*
X127044D01*
X127044Y232176D01*
X126517Y232072D01*
X126071Y231773D01*
X111742Y217445D01*
X111225Y217659D01*
X110244Y217788D01*
X109264Y217659D01*
X108350Y217281D01*
X107565Y216679D01*
X106963Y215894D01*
X106749Y215376D01*
X102900D01*
X102900Y215376D01*
X102373Y215272D01*
X101927Y214973D01*
X101927Y214973D01*
X94830Y207876D01*
X77389D01*
X77258Y208072D01*
X76537Y208555D01*
X75686Y208724D01*
X69387D01*
X68536Y208555D01*
X67988Y208189D01*
X67949Y208196D01*
X67779Y208733D01*
X81670Y222623D01*
X106749D01*
X106963Y222106D01*
X107565Y221321D01*
X108350Y220719D01*
X109264Y220341D01*
X110244Y220212D01*
X111225Y220341D01*
X112138Y220719D01*
X112923Y221321D01*
X113525Y222106D01*
X113903Y223020D01*
X114032Y224000D01*
X113903Y224980D01*
X113689Y225498D01*
X122014Y233823D01*
X224474D01*
X232799Y225498D01*
X232585Y224980D01*
X232456Y224000D01*
X232585Y223020D01*
X232963Y222106D01*
X233565Y221321D01*
X234350Y220719D01*
X235264Y220341D01*
X236244Y220212D01*
X237225Y220341D01*
X238138Y220719D01*
X238923Y221321D01*
X239525Y222106D01*
X239903Y223020D01*
X240032Y224000D01*
X239903Y224980D01*
X239525Y225894D01*
X238923Y226679D01*
X238138Y227281D01*
X237225Y227659D01*
X236244Y227788D01*
X235264Y227659D01*
X234746Y227445D01*
X226017Y236173D01*
X225571Y236472D01*
X225044Y236577D01*
D02*
G37*
G36*
X236244Y187788D02*
X235264Y187659D01*
X234350Y187281D01*
X233565Y186679D01*
X232963Y185894D01*
X232585Y184980D01*
X232456Y184000D01*
X232585Y183019D01*
X232963Y182106D01*
X233565Y181321D01*
X234350Y180719D01*
X235264Y180341D01*
X236244Y180212D01*
X237225Y180341D01*
X238138Y180719D01*
X238923Y181321D01*
X239525Y182106D01*
X239903Y183019D01*
X240032Y184000D01*
X239903Y184980D01*
X239525Y185894D01*
X238923Y186679D01*
X238138Y187281D01*
X237225Y187659D01*
X236244Y187788D01*
D02*
G37*
G36*
Y157788D02*
X235264Y157659D01*
X234350Y157281D01*
X233565Y156679D01*
X232963Y155894D01*
X232585Y154981D01*
X232456Y154000D01*
X232585Y153019D01*
X232963Y152106D01*
X233565Y151321D01*
X234350Y150719D01*
X235264Y150341D01*
X236244Y150212D01*
X237225Y150341D01*
X238138Y150719D01*
X238923Y151321D01*
X239525Y152106D01*
X239903Y153019D01*
X240032Y154000D01*
X239903Y154981D01*
X239525Y155894D01*
X238923Y156679D01*
X238138Y157281D01*
X237225Y157659D01*
X236244Y157788D01*
D02*
G37*
G36*
X181800Y224027D02*
X181268Y223957D01*
X180307Y223559D01*
X179481Y222925D01*
X178847Y222100D01*
X178449Y221138D01*
X178379Y220606D01*
X181800D01*
Y224027D01*
D02*
G37*
G36*
X15756Y167788D02*
X14775Y167659D01*
X13862Y167281D01*
X13077Y166679D01*
X12475Y165894D01*
X12097Y164980D01*
X11968Y164000D01*
X12097Y163020D01*
X12475Y162106D01*
X13077Y161321D01*
X13862Y160719D01*
X14775Y160341D01*
X15756Y160212D01*
X16736Y160341D01*
X17650Y160719D01*
X18435Y161321D01*
X19037Y162106D01*
X19415Y163020D01*
X19544Y164000D01*
X19415Y164980D01*
X19037Y165894D01*
X18435Y166679D01*
X17650Y167281D01*
X16736Y167659D01*
X15756Y167788D01*
D02*
G37*
%LPD*%
G36*
X228548Y98306D02*
X228368Y97778D01*
X227711Y97647D01*
X227082Y97227D01*
X227072Y97231D01*
X226676Y97555D01*
X226824Y98300D01*
X226647Y99189D01*
X226143Y99943D01*
X225389Y100447D01*
X224500Y100624D01*
X223611Y100447D01*
X222857Y99943D01*
X222745Y99776D01*
X169722D01*
X169544Y100043D01*
X168789Y100547D01*
X167900Y100724D01*
X167011Y100547D01*
X166256Y100043D01*
X165753Y99289D01*
X165576Y98400D01*
X165753Y97511D01*
X166256Y96757D01*
X167011Y96253D01*
X167900Y96076D01*
X168789Y96253D01*
X169544Y96757D01*
X169722Y97024D01*
X187450D01*
X187602Y96524D01*
X187527Y96473D01*
X183727Y92673D01*
X183428Y92227D01*
X183324Y91700D01*
Y88970D01*
X182762Y88408D01*
X182300Y88600D01*
Y91561D01*
X181661Y92200D01*
X171000D01*
Y75976D01*
X166370D01*
X161761Y80585D01*
X161824Y80900D01*
X161647Y81789D01*
X161144Y82543D01*
X160389Y83047D01*
X159500Y83224D01*
X158611Y83047D01*
X157857Y82543D01*
X157353Y81789D01*
X157176Y80900D01*
X157231Y80623D01*
X156770Y80376D01*
X148173Y88973D01*
X147727Y89272D01*
X147200Y89376D01*
X145251D01*
X145037Y89894D01*
X144435Y90679D01*
X143650Y91281D01*
X142736Y91659D01*
X141756Y91788D01*
X140775Y91659D01*
X139862Y91281D01*
X139176Y90755D01*
X138676Y90909D01*
Y92974D01*
X139947Y94244D01*
X145512D01*
Y101756D01*
X145831Y102124D01*
X224730D01*
X228548Y98306D01*
D02*
G37*
G36*
X12000Y100300D02*
Y94244D01*
X17565D01*
X19024Y92786D01*
Y90689D01*
X18550Y90528D01*
X18435Y90679D01*
X17650Y91281D01*
X16736Y91659D01*
X15756Y91788D01*
X14775Y91659D01*
X13862Y91281D01*
X13077Y90679D01*
X12475Y89894D01*
X12097Y88981D01*
X11968Y88000D01*
X12097Y87019D01*
X12475Y86106D01*
X13077Y85321D01*
X13862Y84719D01*
X14775Y84341D01*
X15756Y84212D01*
X16736Y84341D01*
X17254Y84555D01*
X43624Y58186D01*
Y53900D01*
X43728Y53373D01*
X44027Y52927D01*
X46824Y50130D01*
X46860Y49949D01*
X47342Y49227D01*
X47497Y49124D01*
X47500Y48400D01*
X54100D01*
X54291Y47938D01*
X53430Y47076D01*
X29400D01*
X28873Y46972D01*
X28427Y46673D01*
X28427Y46673D01*
X21130Y39376D01*
X19251D01*
X19037Y39894D01*
X18435Y40679D01*
X17650Y41281D01*
X16736Y41659D01*
X15756Y41788D01*
X14775Y41659D01*
X14258Y41445D01*
X11176Y44526D01*
Y100130D01*
X11538Y100491D01*
X12000Y100300D01*
D02*
G37*
G36*
X106799Y69498D02*
X106585Y68980D01*
X106456Y68000D01*
X106585Y67019D01*
X106963Y66106D01*
X107565Y65321D01*
X108350Y64719D01*
X109264Y64341D01*
X110244Y64212D01*
X111225Y64341D01*
X111742Y64555D01*
X132259Y44038D01*
X132068Y43576D01*
X116614D01*
X113689Y46502D01*
X113903Y47019D01*
X114032Y48000D01*
X113903Y48981D01*
X113525Y49894D01*
X112923Y50679D01*
X112138Y51281D01*
X111225Y51659D01*
X110244Y51788D01*
X109264Y51659D01*
X108746Y51445D01*
X105076Y55114D01*
Y70514D01*
X105576Y70721D01*
X106799Y69498D01*
D02*
G37*
G36*
X138732Y30229D02*
X138475Y29894D01*
X138097Y28980D01*
X137968Y28000D01*
X138097Y27020D01*
X138475Y26106D01*
X139077Y25321D01*
X139575Y24939D01*
X139405Y24439D01*
X112595D01*
X112425Y24939D01*
X112923Y25321D01*
X113525Y26106D01*
X113903Y27020D01*
X114032Y28000D01*
X113903Y28980D01*
X113525Y29894D01*
X113268Y30229D01*
X113514Y30729D01*
X138486D01*
X138732Y30229D01*
D02*
G37*
G36*
X106799Y49498D02*
X106585Y48981D01*
X106456Y48000D01*
X106585Y47019D01*
X106963Y46106D01*
X107565Y45321D01*
X108350Y44719D01*
X109264Y44341D01*
X110244Y44212D01*
X111225Y44341D01*
X111742Y44555D01*
X115071Y41227D01*
X115517Y40928D01*
X116044Y40824D01*
X116044Y40824D01*
X138558D01*
X138805Y40324D01*
X138475Y39894D01*
X138097Y38980D01*
X137968Y38000D01*
X138097Y37020D01*
X138475Y36106D01*
X138732Y35770D01*
X138486Y35271D01*
X114920D01*
X113689Y36502D01*
X113903Y37020D01*
X114032Y38000D01*
X113903Y38980D01*
X113525Y39894D01*
X112923Y40679D01*
X112138Y41281D01*
X111225Y41659D01*
X110244Y41788D01*
X109264Y41659D01*
X108746Y41445D01*
X102376Y47814D01*
Y53214D01*
X102876Y53421D01*
X106799Y49498D01*
D02*
G37*
%LPC*%
G36*
X15756Y81788D02*
X14775Y81659D01*
X13862Y81281D01*
X13077Y80679D01*
X12475Y79894D01*
X12097Y78980D01*
X11968Y78000D01*
X12097Y77020D01*
X12475Y76106D01*
X13077Y75321D01*
X13862Y74719D01*
X14775Y74341D01*
X15756Y74212D01*
X16736Y74341D01*
X17650Y74719D01*
X18435Y75321D01*
X19037Y76106D01*
X19415Y77020D01*
X19544Y78000D01*
X19415Y78980D01*
X19037Y79894D01*
X18435Y80679D01*
X17650Y81281D01*
X16736Y81659D01*
X15756Y81788D01*
D02*
G37*
G36*
Y71788D02*
X14775Y71659D01*
X13862Y71281D01*
X13077Y70679D01*
X12475Y69894D01*
X12097Y68980D01*
X11968Y68000D01*
X12097Y67019D01*
X12475Y66106D01*
X13077Y65321D01*
X13862Y64719D01*
X14775Y64341D01*
X15756Y64212D01*
X16736Y64341D01*
X17650Y64719D01*
X18435Y65321D01*
X19037Y66106D01*
X19415Y67019D01*
X19544Y68000D01*
X19415Y68980D01*
X19037Y69894D01*
X18435Y70679D01*
X17650Y71281D01*
X16736Y71659D01*
X15756Y71788D01*
D02*
G37*
G36*
Y51788D02*
X14775Y51659D01*
X13862Y51281D01*
X13077Y50679D01*
X12475Y49894D01*
X12097Y48981D01*
X11968Y48000D01*
X12097Y47019D01*
X12475Y46106D01*
X13077Y45321D01*
X13862Y44719D01*
X14775Y44341D01*
X15756Y44212D01*
X16736Y44341D01*
X17650Y44719D01*
X18435Y45321D01*
X19037Y46106D01*
X19415Y47019D01*
X19544Y48000D01*
X19415Y48981D01*
X19037Y49894D01*
X18435Y50679D01*
X17650Y51281D01*
X16736Y51659D01*
X15756Y51788D01*
D02*
G37*
G36*
Y61788D02*
X14775Y61659D01*
X13862Y61281D01*
X13077Y60679D01*
X12475Y59894D01*
X12097Y58981D01*
X11968Y58000D01*
X12097Y57020D01*
X12475Y56106D01*
X13077Y55321D01*
X13862Y54719D01*
X14775Y54341D01*
X15756Y54212D01*
X16736Y54341D01*
X17650Y54719D01*
X18435Y55321D01*
X19037Y56106D01*
X19415Y57020D01*
X19544Y58000D01*
X19415Y58981D01*
X19037Y59894D01*
X18435Y60679D01*
X17650Y61281D01*
X16736Y61659D01*
X15756Y61788D01*
D02*
G37*
G36*
X110244D02*
X109264Y61659D01*
X108350Y61281D01*
X107565Y60679D01*
X106963Y59894D01*
X106585Y58981D01*
X106456Y58000D01*
X106585Y57020D01*
X106963Y56106D01*
X107565Y55321D01*
X108350Y54719D01*
X109264Y54341D01*
X110244Y54212D01*
X111225Y54341D01*
X112138Y54719D01*
X112923Y55321D01*
X113525Y56106D01*
X113903Y57020D01*
X114032Y58000D01*
X113903Y58981D01*
X113525Y59894D01*
X112923Y60679D01*
X112138Y61281D01*
X111225Y61659D01*
X110244Y61788D01*
D02*
G37*
%LPD*%
D10*
X130700Y146200D02*
X181400D01*
X181700Y146500D01*
X110244Y184000D02*
X121700Y172544D01*
X125244Y179000D02*
X153200D01*
X110244Y194000D02*
X125244Y179000D01*
X124329Y92085D02*
Y177471D01*
X112900Y188900D02*
X124329Y177471D01*
X107500Y188900D02*
X112900D01*
X132800Y76956D02*
Y104900D01*
Y76956D02*
X141756Y68000D01*
X132800Y104900D02*
X136111Y108211D01*
X121700Y95500D02*
Y172544D01*
X110244Y78000D02*
X124329Y92085D01*
X118800Y99794D02*
Y145444D01*
X118771Y99765D02*
X118800Y99794D01*
X118771Y92229D02*
Y99765D01*
Y92229D02*
X118800Y92200D01*
X40300Y112000D02*
X44450Y116150D01*
X37956Y100200D02*
X104500D01*
X32600Y94844D02*
X37956Y100200D01*
X37159Y103100D02*
X102308D01*
X34929Y100871D02*
X37159Y103100D01*
X15756Y98000D02*
X20400Y93356D01*
Y85800D02*
Y93356D01*
Y85800D02*
X45400Y60800D01*
X26100Y167900D02*
Y215200D01*
X17300Y224000D02*
X26100Y215200D01*
X143300Y106800D02*
X227444D01*
X236244Y98000D01*
X138938Y107339D02*
Y109285D01*
X134700Y103100D02*
X138938Y107339D01*
X130800Y68956D02*
X141756Y58000D01*
X130800Y68956D02*
Y106900D01*
X132100Y108200D01*
X129000Y55800D02*
Y113800D01*
X128300Y55100D02*
X129000Y55800D01*
X15756Y88000D02*
X45000Y58756D01*
Y53900D02*
Y58756D01*
Y53900D02*
X48100Y50800D01*
X52064D01*
X136111Y108211D02*
Y113747D01*
X135400Y48000D02*
X141756D01*
X128300Y55100D02*
X135400Y48000D01*
X183400Y51200D02*
X191800Y59600D01*
X148556Y51200D02*
X183400D01*
X141756Y58000D02*
X148556Y51200D01*
X72536Y55800D02*
X81800D01*
X76700Y60800D02*
X93500Y77600D01*
X72536Y60800D02*
X76700D01*
X62700Y173900D02*
Y192500D01*
X65700Y181600D02*
X72436D01*
X72536Y176500D02*
X80200D01*
X59800Y171200D02*
Y193900D01*
Y169800D02*
Y171200D01*
X37900Y175700D02*
X43700Y181500D01*
X175186Y177484D02*
X176500Y176170D01*
Y174500D02*
Y176170D01*
X138100Y149400D02*
X175100D01*
X92000Y142600D02*
X96300Y138300D01*
X17000Y110700D02*
Y116300D01*
X7600Y101300D02*
X17000Y110700D01*
X25500Y99000D02*
Y112400D01*
X197036Y74600D02*
X214400D01*
X211900Y126200D02*
X246800D01*
X197036Y89600D02*
X211900D01*
X197036Y64600D02*
X204100D01*
X201394Y32106D02*
X202200Y31300D01*
X112794Y32106D02*
X201394D01*
X111900Y33000D02*
X112794Y32106D01*
X232138Y33894D02*
X236244Y38000D01*
X110244D02*
X114350Y33894D01*
X232138D01*
X108700Y33000D02*
X111900D01*
X97600Y44100D02*
X108700Y33000D01*
X97600Y44100D02*
Y78400D01*
X90200Y85800D02*
X97600Y78400D01*
X72536Y85800D02*
X90200D01*
X76400Y65800D02*
X90000Y79400D01*
X77300Y70800D02*
X86800Y80300D01*
Y82000D01*
X95500Y118900D02*
X98800Y122200D01*
X72536Y116150D02*
X99150D01*
X98800Y122200D02*
Y140300D01*
X92950Y146150D02*
X98800Y140300D01*
X72536Y146150D02*
X92950D01*
X96300Y123900D02*
Y138300D01*
X93550Y121150D02*
X96300Y123900D01*
X72686Y136300D02*
X93900D01*
X72536Y136150D02*
X72686Y136300D01*
X72536Y121150D02*
X93550D01*
X73586Y125100D02*
X93600D01*
X72536Y126150D02*
X73586Y125100D01*
X44800Y171500D02*
X52064D01*
X63600Y33100D02*
X65200Y34700D01*
Y63500D01*
X67500Y65800D01*
X72536D01*
X197036Y69600D02*
X204100D01*
X133850Y126150D02*
X203850D01*
X72536Y65800D02*
X76400D01*
X61900Y131000D02*
X66750Y126150D01*
X72536D01*
X197036Y79600D02*
X209400D01*
X169400Y136150D02*
X246850D01*
X135450D02*
X169400D01*
X169457Y180043D02*
X175186D01*
X246850Y136150D02*
X247000Y136000D01*
X65050Y136150D02*
X72536D01*
X65000Y79200D02*
Y82000D01*
Y79200D02*
X68400Y75800D01*
X72536D01*
X34700Y176300D02*
X44900Y186500D01*
X34700Y164800D02*
Y166000D01*
X15900Y146000D02*
X34700Y164800D01*
Y166000D02*
Y176300D01*
X30600Y164300D02*
Y176900D01*
X45200Y191500D01*
X52064D01*
X23300Y164900D02*
Y206456D01*
X15756Y214000D02*
X23300Y206456D01*
X15756Y184000D02*
X20900Y178856D01*
Y168200D02*
Y178856D01*
X20700Y111600D02*
Y120500D01*
X44450Y116150D02*
X52064D01*
Y126150D02*
X59950D01*
X43650Y121150D02*
X52064D01*
X43650Y131150D02*
X52064D01*
X43650Y136150D02*
X52064D01*
X29400Y45700D02*
X54000D01*
X21700Y38000D02*
X29400Y45700D01*
X15756Y38000D02*
X21700D01*
X52064Y55800D02*
X57000D01*
X58300Y54500D01*
Y50000D02*
Y54500D01*
X54000Y45700D02*
X58300Y50000D01*
X59700Y46700D02*
Y67400D01*
X56200Y43200D02*
X59700Y46700D01*
X30956Y43200D02*
X56200D01*
X15756Y28000D02*
X30956Y43200D01*
X45400Y60800D02*
X52064D01*
X62300Y42500D02*
Y77300D01*
X58800Y80800D02*
X62300Y77300D01*
X52064Y80800D02*
X58800D01*
X44300D02*
X52064D01*
X43800Y75800D02*
X52064D01*
X44200Y65800D02*
X52064D01*
Y70800D02*
X56300D01*
X59700Y67400D01*
X7600Y36156D02*
X15756Y28000D01*
X7600Y36156D02*
Y101300D01*
X9800Y43956D02*
X15756Y38000D01*
X9800Y43956D02*
Y100700D01*
X20700Y111600D01*
X62700Y192500D02*
X66700Y196500D01*
X72536D01*
X37900Y163100D02*
Y175700D01*
X10800Y136000D02*
X37900Y163100D01*
X72436Y181600D02*
X72536Y181500D01*
Y186500D02*
X79900D01*
X5000Y146000D02*
X15900D01*
X15756Y224000D02*
X17300D01*
X5000Y136000D02*
X10800D01*
X43700Y181500D02*
X52064D01*
X5000Y126000D02*
X16000D01*
X59800Y169800D01*
X57200Y196500D02*
X59800Y193900D01*
X52064Y196500D02*
X57200D01*
X44900Y186500D02*
X52064D01*
X193943Y197957D02*
X197627D01*
X192300Y199600D02*
X193943Y197957D01*
X192300Y199600D02*
Y220106D01*
X52064Y201500D02*
X58600D01*
X81100Y224000D01*
X110244D01*
X72536Y206500D02*
X95400D01*
X102900Y214000D01*
X110244D01*
X72536Y201500D02*
X82744D01*
X110244Y174000D01*
X72536Y191500D02*
X82744D01*
X110244Y164000D01*
X103700Y54544D02*
X110244Y48000D01*
X43050Y141150D02*
X52064D01*
X26500Y92800D02*
X26785Y92515D01*
X110244Y48000D02*
X116044Y42200D01*
X230444D01*
X236244Y48000D01*
X110244Y68000D02*
X134444Y43800D01*
X220300D01*
X220500Y43600D01*
X227800Y50900D01*
Y59556D01*
X236244Y68000D01*
X26785Y92515D02*
X34892D01*
X37478Y95100D01*
X46150Y111150D02*
X52064D01*
X44800Y109800D02*
X46150Y111150D01*
X37478Y95100D02*
X43806D01*
X43835Y95070D01*
X45765D01*
X45794Y95100D01*
X106138Y72106D02*
X110244Y68000D01*
Y154000D02*
X118800Y145444D01*
X44800Y109700D02*
Y109800D01*
Y97400D02*
X100844D01*
X110244Y88000D01*
X37600Y105900D02*
X101800D01*
X103200Y107300D01*
X99150Y116150D02*
X110244Y105056D01*
Y98000D02*
Y105056D01*
X141756Y88000D02*
X147200D01*
X164800Y54600D02*
X176564D01*
X134700Y85056D02*
X141756Y78000D01*
X137300Y93544D02*
X141756Y98000D01*
X137300Y86200D02*
Y93544D01*
Y86200D02*
X140400Y83100D01*
X134700Y85056D02*
Y103100D01*
X132100Y108200D02*
Y117200D01*
X191800Y59600D02*
X197036D01*
X140400Y83100D02*
X144700D01*
X163200Y64600D01*
X176564D01*
X148600Y59700D02*
X176464D01*
X141756Y164000D02*
X156200D01*
X141756Y154000D02*
X159500D01*
X147200Y88000D02*
X164900Y70300D01*
Y67500D02*
Y70300D01*
X159500Y80900D02*
X165800Y74600D01*
X176564D01*
X224400Y98400D02*
X224500Y98300D01*
X167900Y98400D02*
X224400D01*
X167900Y69600D02*
X176564D01*
X219800Y78100D02*
X236144D01*
X236244Y78000D01*
X188500Y95500D02*
X228600D01*
X176564Y84600D02*
X180900D01*
X191000Y92500D02*
X219800D01*
X187500Y89000D02*
X191000Y92500D01*
X180900Y84600D02*
X184700Y88400D01*
Y91700D01*
X188500Y95500D01*
X176564Y79600D02*
X181800D01*
X187500Y85300D01*
Y89000D01*
X141500Y103500D02*
X225300D01*
X231900Y96900D01*
Y92344D02*
Y96900D01*
Y92344D02*
X236244Y88000D01*
X231444Y159200D02*
X236244Y164000D01*
X134100Y159200D02*
X231444D01*
X133800D02*
Y159500D01*
X134100Y159200D01*
X133800Y169000D02*
X231244D01*
X236244Y174000D01*
X104000Y197756D02*
X110244Y204000D01*
X104000Y192400D02*
Y197756D01*
Y192400D02*
X107500Y188900D01*
X153200Y179000D02*
X160300Y171900D01*
X209800D01*
X231900Y194000D01*
X236244D01*
X110244Y214000D02*
X127044Y230800D01*
X219444D01*
X236244Y214000D01*
X225044Y235200D02*
X236244Y224000D01*
X121444Y235200D02*
X225044D01*
X110244Y224000D02*
X121444Y235200D01*
X197627Y200516D02*
Y215327D01*
X202353Y220053D01*
X175186Y182602D02*
X181598D01*
X181700Y146500D02*
X246500D01*
X247000Y146000D01*
X45794Y95100D02*
X95700D01*
X106138Y84662D01*
Y72106D02*
Y84662D01*
X40300Y91700D02*
X94200D01*
X103700Y82200D01*
Y54544D02*
Y82200D01*
X59631Y88800D02*
X92900D01*
X101000Y47244D02*
X110244Y38000D01*
X101000Y47244D02*
Y80700D01*
X92900Y88800D02*
X101000Y80700D01*
X72536Y70800D02*
X77300D01*
X72536Y131150D02*
X86450D01*
X86700Y131400D01*
D11*
X197136Y54700D02*
X207200D01*
X197036Y54600D02*
X197136Y54700D01*
X135800Y53000D02*
X143500D01*
X147300Y49200D01*
X186900D01*
X192300Y54600D01*
X197036D01*
X92700Y60600D02*
Y72700D01*
X82700Y50600D02*
X92700Y60600D01*
X72786Y111400D02*
X80700D01*
X72736Y50600D02*
X82700D01*
X65400Y175060D02*
Y177400D01*
Y175060D02*
X65430Y175031D01*
Y144670D02*
Y175031D01*
Y144670D02*
X68950Y141150D01*
X72536D01*
X42700Y176500D02*
X52064D01*
X42700Y192600D02*
Y206500D01*
X28900Y178800D02*
X42700Y192600D01*
Y206500D02*
X52064D01*
D12*
X84300Y22400D02*
X166800D01*
X73600Y33100D02*
X84300Y22400D01*
X191647Y17146D02*
Y22400D01*
X189500Y15000D02*
X191647Y17146D01*
X174200Y15000D02*
X189500D01*
X166800Y22400D02*
X174200Y15000D01*
X158700Y205300D02*
Y210000D01*
Y205300D02*
X168600Y195400D01*
X170800D01*
D13*
X79800Y171364D02*
X80600Y170564D01*
X72536Y111150D02*
X72786Y111400D01*
X72686Y141300D02*
X80700D01*
X72536Y141150D02*
X72686Y141300D01*
X72536Y50800D02*
X72736Y50600D01*
X72536Y80800D02*
X79700D01*
X42700Y146150D02*
X52064D01*
X197036Y84600D02*
X206400D01*
X42700Y85800D02*
X52064D01*
X181182Y22400D02*
X181300Y22518D01*
Y29600D01*
X176464Y89500D02*
X176564Y89600D01*
X165300Y89500D02*
X176464D01*
X175186Y200516D02*
X175200Y200530D01*
Y204500D01*
X72400Y171364D02*
X72536Y171500D01*
X72400Y171364D02*
X79800D01*
X170800Y195400D02*
X175183D01*
X0Y252000D02*
X252000D01*
Y0D02*
Y252000D01*
X0Y0D02*
X252000D01*
X0D02*
Y252000D01*
D14*
X200624Y8928D02*
D03*
X172081D02*
D03*
D15*
X176753Y20750D02*
D03*
X195847D02*
D03*
D16*
X73600Y33100D02*
D03*
X172300Y220106D02*
D03*
D17*
X63600Y33100D02*
D03*
X53600D02*
D03*
X5000Y106000D02*
D03*
Y116000D02*
D03*
Y126000D02*
D03*
Y136000D02*
D03*
X247000Y106000D02*
D03*
Y116000D02*
D03*
Y126000D02*
D03*
Y136000D02*
D03*
X202300Y220106D02*
D03*
X192300D02*
D03*
X182300D02*
D03*
D18*
X158700Y210000D02*
D03*
D19*
Y220000D02*
D03*
D20*
X5000Y146000D02*
D03*
X247000D02*
D03*
D21*
X236244Y98000D02*
D03*
Y88000D02*
D03*
X141756D02*
D03*
Y78000D02*
D03*
Y68000D02*
D03*
Y58000D02*
D03*
Y48000D02*
D03*
Y38000D02*
D03*
X236244Y78000D02*
D03*
Y68000D02*
D03*
Y58000D02*
D03*
Y48000D02*
D03*
Y38000D02*
D03*
Y28000D02*
D03*
X141756D02*
D03*
X236244Y224000D02*
D03*
Y214000D02*
D03*
X141756D02*
D03*
Y204000D02*
D03*
Y194000D02*
D03*
Y184000D02*
D03*
Y174000D02*
D03*
Y164000D02*
D03*
X236244Y204000D02*
D03*
Y194000D02*
D03*
Y184000D02*
D03*
Y174000D02*
D03*
Y164000D02*
D03*
Y154000D02*
D03*
X141756D02*
D03*
X110244Y224000D02*
D03*
Y214000D02*
D03*
X15756D02*
D03*
Y204000D02*
D03*
Y194000D02*
D03*
Y184000D02*
D03*
Y174000D02*
D03*
Y164000D02*
D03*
X110244Y204000D02*
D03*
Y194000D02*
D03*
Y184000D02*
D03*
Y174000D02*
D03*
Y164000D02*
D03*
Y154000D02*
D03*
X15756D02*
D03*
X110244Y98000D02*
D03*
Y88000D02*
D03*
X15756D02*
D03*
Y78000D02*
D03*
Y68000D02*
D03*
Y58000D02*
D03*
Y48000D02*
D03*
Y38000D02*
D03*
X110244Y78000D02*
D03*
Y68000D02*
D03*
Y58000D02*
D03*
Y48000D02*
D03*
Y38000D02*
D03*
Y28000D02*
D03*
X15756D02*
D03*
D22*
X141756Y98000D02*
D03*
Y224000D02*
D03*
X15756D02*
D03*
Y98000D02*
D03*
D23*
X130100Y188200D02*
D03*
X121700Y192500D02*
D03*
X89300Y152900D02*
D03*
X99800D02*
D03*
X129500Y151700D02*
D03*
X130700Y146200D02*
D03*
X131500Y131200D02*
D03*
X131300Y141400D02*
D03*
X109000D02*
D03*
X108800Y130800D02*
D03*
X108500Y119900D02*
D03*
X139000Y121700D02*
D03*
X207200Y54700D02*
D03*
X121700Y95500D02*
D03*
X40300Y112000D02*
D03*
X34929Y100871D02*
D03*
X143300Y106800D02*
D03*
X138938Y109285D02*
D03*
X129000Y113800D02*
D03*
X80600Y170564D02*
D03*
X136111Y113747D02*
D03*
X117700Y74500D02*
D03*
X121400Y46900D02*
D03*
X130300Y27000D02*
D03*
X130600Y38000D02*
D03*
X120200Y37900D02*
D03*
X119100Y27700D02*
D03*
X32500Y52600D02*
D03*
X36200Y58600D02*
D03*
X23200Y68700D02*
D03*
X33900Y78300D02*
D03*
X92700Y60600D02*
D03*
X135800Y53000D02*
D03*
X80700Y111400D02*
D03*
Y141300D02*
D03*
X92700Y72700D02*
D03*
X65400Y177400D02*
D03*
X62700Y173900D02*
D03*
X65700Y181600D02*
D03*
X80200Y176500D02*
D03*
X59800Y171200D02*
D03*
X42700Y176500D02*
D03*
X28900Y178800D02*
D03*
X176500Y174500D02*
D03*
X175100Y149400D02*
D03*
X138100D02*
D03*
X92000Y142600D02*
D03*
X183500Y15000D02*
D03*
X178500D02*
D03*
X189500D02*
D03*
X25500Y99000D02*
D03*
Y112400D02*
D03*
X214400Y146500D02*
D03*
Y74600D02*
D03*
X211900Y126200D02*
D03*
Y89600D02*
D03*
X204100Y64600D02*
D03*
X202200Y31300D02*
D03*
X93500Y77600D02*
D03*
X90000Y79400D02*
D03*
X86800Y82000D02*
D03*
X79700Y80800D02*
D03*
X95500Y118900D02*
D03*
X93900Y136300D02*
D03*
X93600Y125100D02*
D03*
X44800Y171500D02*
D03*
X203850Y126150D02*
D03*
X204100Y69600D02*
D03*
X133850Y126150D02*
D03*
X61900Y131000D02*
D03*
X209500Y136150D02*
D03*
X209400Y79600D02*
D03*
X169400Y136150D02*
D03*
X169457Y180043D02*
D03*
X135450Y136150D02*
D03*
X65000Y136200D02*
D03*
Y82000D02*
D03*
X34700Y166000D02*
D03*
X37900Y163100D02*
D03*
X30600Y164300D02*
D03*
X26100Y167900D02*
D03*
X23300Y164900D02*
D03*
X20900Y168200D02*
D03*
X20700Y120500D02*
D03*
X17000Y116300D02*
D03*
X59950Y126150D02*
D03*
X32600Y94844D02*
D03*
X37600Y105900D02*
D03*
X43650Y121150D02*
D03*
Y131150D02*
D03*
Y136150D02*
D03*
X62300Y42500D02*
D03*
X44000Y81100D02*
D03*
X118800Y92200D02*
D03*
X43800Y75800D02*
D03*
X44200Y65800D02*
D03*
X81800Y55800D02*
D03*
X79900Y186500D02*
D03*
X42700Y146150D02*
D03*
Y206500D02*
D03*
X206400Y84600D02*
D03*
X42700Y85800D02*
D03*
X181300Y29600D02*
D03*
X43050Y141150D02*
D03*
X59631Y88800D02*
D03*
X26500Y92800D02*
D03*
X40300Y91700D02*
D03*
X44800Y97400D02*
D03*
Y109700D02*
D03*
X102308Y103241D02*
D03*
X104500Y100200D02*
D03*
X103200Y107300D02*
D03*
X164800Y54600D02*
D03*
X132100Y117200D02*
D03*
X148600Y59700D02*
D03*
X156200Y164000D02*
D03*
X159500Y154000D02*
D03*
X164900Y67500D02*
D03*
X159500Y80900D02*
D03*
X228600Y95500D02*
D03*
X165300Y89500D02*
D03*
X224500Y98300D02*
D03*
X167900Y98400D02*
D03*
Y69600D02*
D03*
X219800Y78100D02*
D03*
Y92500D02*
D03*
X141500Y103500D02*
D03*
X133800Y159200D02*
D03*
Y169000D02*
D03*
X175200Y204500D02*
D03*
X181700Y146500D02*
D03*
X181598Y182602D02*
D03*
X86700Y131400D02*
D03*
D24*
X191418Y22400D02*
D03*
X181182D02*
D03*
X188859D02*
D03*
X186300D02*
D03*
X183741D02*
D03*
D25*
X197036Y54600D02*
D03*
Y59600D02*
D03*
Y64600D02*
D03*
Y69600D02*
D03*
Y74600D02*
D03*
Y79600D02*
D03*
Y84600D02*
D03*
Y89600D02*
D03*
X176564D02*
D03*
Y84600D02*
D03*
Y79600D02*
D03*
Y74600D02*
D03*
Y69600D02*
D03*
Y64600D02*
D03*
Y59600D02*
D03*
Y54600D02*
D03*
X72536Y50800D02*
D03*
Y55800D02*
D03*
Y60800D02*
D03*
Y65800D02*
D03*
Y70800D02*
D03*
Y75800D02*
D03*
Y80800D02*
D03*
Y85800D02*
D03*
X52064D02*
D03*
Y80800D02*
D03*
Y75800D02*
D03*
Y70800D02*
D03*
Y65800D02*
D03*
Y60800D02*
D03*
Y55800D02*
D03*
Y50800D02*
D03*
Y206500D02*
D03*
Y201500D02*
D03*
Y196500D02*
D03*
Y191500D02*
D03*
Y186500D02*
D03*
Y181500D02*
D03*
Y176500D02*
D03*
Y171500D02*
D03*
X72536D02*
D03*
Y176500D02*
D03*
Y181500D02*
D03*
Y186500D02*
D03*
Y191500D02*
D03*
Y196500D02*
D03*
Y201500D02*
D03*
Y206500D02*
D03*
Y111150D02*
D03*
Y116150D02*
D03*
Y121150D02*
D03*
Y126150D02*
D03*
Y131150D02*
D03*
Y136150D02*
D03*
Y141150D02*
D03*
Y146150D02*
D03*
X52064D02*
D03*
Y141150D02*
D03*
Y136150D02*
D03*
Y131150D02*
D03*
Y126150D02*
D03*
Y121150D02*
D03*
Y116150D02*
D03*
Y111150D02*
D03*
D26*
X197627Y200516D02*
D03*
Y197957D02*
D03*
Y195398D02*
D03*
Y192839D02*
D03*
Y190279D02*
D03*
Y187721D02*
D03*
Y185161D02*
D03*
Y182602D02*
D03*
Y180043D02*
D03*
Y177484D02*
D03*
X175186Y200516D02*
D03*
Y197957D02*
D03*
Y195398D02*
D03*
Y192839D02*
D03*
Y190279D02*
D03*
Y187721D02*
D03*
Y185161D02*
D03*
Y182602D02*
D03*
Y180043D02*
D03*
Y177484D02*
D03*
M02*
