G04 Layer_Color=32896*
%FSLAX25Y25*%
%MOIN*%
G70*
G01*
G75*
%ADD13C,0.01000*%
%ADD39C,0.00591*%
%ADD40C,0.01181*%
%ADD41C,0.00787*%
D13*
X11900Y131850D02*
X39800D01*
X11400Y121400D02*
X39450D01*
X35000Y136550D02*
X45100Y126450D01*
X34900Y116350D02*
X45000Y126450D01*
X230500Y116100D02*
X240600Y126200D01*
X230600Y136300D02*
X240700Y126200D01*
X207000Y121150D02*
X235050D01*
X207500Y131600D02*
X235400D01*
X153700Y215000D02*
X163700D01*
X153700Y225000D02*
X163700D01*
X153700Y205000D02*
Y225000D01*
Y205000D02*
X163700D01*
Y225000D01*
X162500Y12998D02*
Y8000D01*
X161500Y7000D01*
X159501D01*
X158501Y8000D01*
Y12998D01*
X152503Y11998D02*
X153503Y12998D01*
X155502D01*
X156502Y11998D01*
Y10999D01*
X155502Y9999D01*
X153503D01*
X152503Y8999D01*
Y8000D01*
X153503Y7000D01*
X155502D01*
X156502Y8000D01*
X150504Y12998D02*
Y7000D01*
X147505D01*
X146505Y8000D01*
Y8999D01*
X147505Y9999D01*
X150504D01*
X147505D01*
X146505Y10999D01*
Y11998D01*
X147505Y12998D01*
X150504D01*
X144506Y7000D02*
X142507D01*
X143506D01*
Y12998D01*
X144506Y11998D01*
X191900Y171498D02*
Y166500D01*
X190900Y165500D01*
X188901D01*
X187901Y166500D01*
Y171498D01*
X181903D02*
X185902D01*
Y168499D01*
X183903Y169499D01*
X182903D01*
X181903Y168499D01*
Y166500D01*
X182903Y165500D01*
X184902D01*
X185902Y166500D01*
X192200Y101298D02*
Y96300D01*
X191200Y95300D01*
X189201D01*
X188201Y96300D01*
Y101298D01*
X183203Y95300D02*
Y101298D01*
X186202Y98299D01*
X182203D01*
X68300Y97498D02*
Y92500D01*
X67300Y91500D01*
X65301D01*
X64301Y92500D01*
Y97498D01*
X62302Y96498D02*
X61302Y97498D01*
X59303D01*
X58303Y96498D01*
Y95499D01*
X59303Y94499D01*
X60303D01*
X59303D01*
X58303Y93499D01*
Y92500D01*
X59303Y91500D01*
X61302D01*
X62302Y92500D01*
X67500Y157598D02*
Y152600D01*
X66500Y151600D01*
X64501D01*
X63501Y152600D01*
Y157598D01*
X57503Y151600D02*
X61502D01*
X57503Y155599D01*
Y156598D01*
X58503Y157598D01*
X60502D01*
X61502Y156598D01*
X67000Y216898D02*
Y211900D01*
X66000Y210900D01*
X64001D01*
X63001Y211900D01*
Y216898D01*
X61002Y210900D02*
X59003D01*
X60002D01*
Y216898D01*
X61002Y215898D01*
X159201Y200798D02*
X161201D01*
X160201D01*
Y195800D01*
X161201Y194800D01*
X162200D01*
X163200Y195800D01*
X153203Y200798D02*
X155203Y199798D01*
X157202Y197799D01*
Y195800D01*
X156202Y194800D01*
X154203D01*
X153203Y195800D01*
Y196799D01*
X154203Y197799D01*
X157202D01*
X88701Y36398D02*
X90701D01*
X89701D01*
Y31400D01*
X90701Y30400D01*
X91700D01*
X92700Y31400D01*
X82703Y36398D02*
X86702D01*
Y33399D01*
X84703Y34399D01*
X83703D01*
X82703Y33399D01*
Y31400D01*
X83703Y30400D01*
X85702D01*
X86702Y31400D01*
X216901Y223298D02*
X218901D01*
X217901D01*
Y218300D01*
X218901Y217300D01*
X219900D01*
X220900Y218300D01*
X214902Y222298D02*
X213902Y223298D01*
X211903D01*
X210903Y222298D01*
Y221299D01*
X211903Y220299D01*
X212903D01*
X211903D01*
X210903Y219299D01*
Y218300D01*
X211903Y217300D01*
X213902D01*
X214902Y218300D01*
X234301Y148198D02*
X236301D01*
X235301D01*
Y143200D01*
X236301Y142200D01*
X237300D01*
X238300Y143200D01*
X228303Y142200D02*
X232302D01*
X228303Y146199D01*
Y147198D01*
X229303Y148198D01*
X231302D01*
X232302Y147198D01*
X16301Y145598D02*
X18301D01*
X17301D01*
Y140600D01*
X18301Y139600D01*
X19300D01*
X20300Y140600D01*
X14302Y139600D02*
X12303D01*
X13302D01*
Y145598D01*
X14302Y144598D01*
X231401Y129498D02*
X233400D01*
X234400Y128498D01*
Y124500D01*
X233400Y123500D01*
X231401D01*
X230401Y124500D01*
Y128498D01*
X231401Y129498D01*
X228402Y127499D02*
Y124500D01*
X227402Y123500D01*
X224403D01*
Y127499D01*
X221404Y128498D02*
Y127499D01*
X222404D01*
X220405D01*
X221404D01*
Y124500D01*
X220405Y123500D01*
X217406Y121501D02*
Y127499D01*
X214406D01*
X213407Y126499D01*
Y124500D01*
X214406Y123500D01*
X217406D01*
X211407Y127499D02*
Y124500D01*
X210408Y123500D01*
X207409D01*
Y127499D01*
X204410Y128498D02*
Y127499D01*
X205409D01*
X203410D01*
X204410D01*
Y124500D01*
X203410Y123500D01*
X38500Y130248D02*
X36501D01*
X37500D01*
Y124250D01*
X38500D01*
X36501D01*
X33502D02*
Y128249D01*
X30503D01*
X29503Y127249D01*
Y124250D01*
X27504Y122251D02*
Y128249D01*
X24505D01*
X23505Y127249D01*
Y125250D01*
X24505Y124250D01*
X27504D01*
X21506Y128249D02*
Y125250D01*
X20506Y124250D01*
X17507D01*
Y128249D01*
X14508Y129248D02*
Y128249D01*
X15507D01*
X13508D01*
X14508D01*
Y125250D01*
X13508Y124250D01*
X51402Y22301D02*
X50402Y23301D01*
Y25300D01*
X51402Y26300D01*
X55400D01*
X56400Y25300D01*
Y23301D01*
X55400Y22301D01*
X53401D01*
Y24301D01*
X56400Y20302D02*
X50402D01*
X56400Y16303D01*
X50402D01*
Y14304D02*
X56400D01*
Y11305D01*
X55400Y10305D01*
X51402D01*
X50402Y11305D01*
Y14304D01*
X60752Y23301D02*
Y25300D01*
X61752Y26300D01*
X65750D01*
X66750Y25300D01*
Y23301D01*
X65750Y22301D01*
X61752D01*
X60752Y23301D01*
Y16303D02*
Y20302D01*
X66750D01*
Y16303D01*
X63751Y20302D02*
Y18303D01*
X71102Y26300D02*
X75101D01*
X77100Y24301D01*
X75101Y22301D01*
X71102D01*
X72102Y16303D02*
X71102Y17303D01*
Y19302D01*
X72102Y20302D01*
X76100D01*
X77100Y19302D01*
Y17303D01*
X76100Y16303D01*
X72102Y10305D02*
X71102Y11305D01*
Y13304D01*
X72102Y14304D01*
X76100D01*
X77100Y13304D01*
Y11305D01*
X76100Y10305D01*
X204500Y227800D02*
Y233798D01*
X201501D01*
X200501Y232798D01*
Y230799D01*
X201501Y229799D01*
X204500D01*
X202501D02*
X200501Y227800D01*
X194467Y233798D02*
X190468D01*
X192467D01*
Y227800D01*
X174400Y233798D02*
Y229799D01*
X172401Y227800D01*
X170401Y229799D01*
Y233798D01*
X180435Y232798D02*
X181434Y233798D01*
X183434D01*
X184433Y232798D01*
Y228800D01*
X183434Y227800D01*
X181434D01*
X180435Y228800D01*
Y230799D01*
X182434D01*
X0Y252000D02*
X252000D01*
Y0D02*
Y252000D01*
X0Y0D02*
X252000D01*
X0D02*
Y252000D01*
D39*
X188375Y52415D02*
X188074Y53341D01*
X187287Y53913D01*
X186313D01*
X185526Y53341D01*
X185225Y52415D01*
X63875Y48615D02*
X63574Y49541D01*
X62787Y50113D01*
X61813D01*
X61026Y49541D01*
X60725Y48615D01*
Y208685D02*
X61026Y207759D01*
X61813Y207187D01*
X62787D01*
X63574Y207759D01*
X63875Y208685D01*
Y108965D02*
X63574Y109891D01*
X62787Y110463D01*
X61813D01*
X61026Y109891D01*
X60725Y108965D01*
X182076Y52415D02*
Y91785D01*
X191524D01*
Y52415D02*
Y91785D01*
X182076Y52415D02*
X191524D01*
X57576Y48615D02*
Y87985D01*
X67024D01*
Y48615D02*
Y87985D01*
X57576Y48615D02*
X67024D01*
Y169315D02*
Y208685D01*
X57576Y169315D02*
X67024D01*
X57576D02*
Y208685D01*
X67024D01*
X57576Y108965D02*
Y148335D01*
X67024D01*
Y108965D02*
Y148335D01*
X57576Y108965D02*
X67024D01*
D40*
X174792Y174827D02*
X174202Y175417D01*
X173611Y174827D01*
X174202Y174236D01*
X174792Y174827D01*
X167500Y500D02*
X205000D01*
X205200Y700D01*
X198553Y24264D02*
X205200D01*
Y700D02*
Y24264D01*
X167500Y24263D02*
X174152D01*
X167500Y500D02*
Y24263D01*
D41*
X179320Y201205D02*
X193493D01*
X179320Y176795D02*
X193493D01*
Y201205D01*
X179320Y176795D02*
Y201205D01*
X48600Y28100D02*
X78600D01*
X48600D02*
Y38100D01*
X78600D01*
Y28100D02*
Y38100D01*
X0Y151000D02*
X10000D01*
X0Y101000D02*
Y151000D01*
X10000Y101000D02*
Y151000D01*
X0Y101000D02*
X10000D01*
X242000Y151000D02*
X252000D01*
X242000Y101000D02*
Y151000D01*
X252000Y101000D02*
Y151000D01*
X242000Y101000D02*
X252000D01*
X167300Y215106D02*
Y225106D01*
Y215106D02*
X207300D01*
X167300Y225106D02*
X207300D01*
Y215106D02*
Y225106D01*
M02*
