G04 Layer_Color=8388736*
%FSLAX25Y25*%
%MOIN*%
G70*
G01*
G75*
%ADD13C,0.01000*%
%ADD27O,0.06312X0.08674*%
%ADD28C,0.05131*%
%ADD29R,0.06706X0.06706*%
%ADD30C,0.06706*%
%ADD31C,0.05800*%
%ADD32R,0.05800X0.05800*%
%ADD33R,0.06706X0.06706*%
%ADD34C,0.06312*%
%ADD35R,0.06312X0.06312*%
D13*
X0Y252000D02*
X252000D01*
Y0D02*
Y252000D01*
X0Y0D02*
X252000D01*
X0D02*
Y252000D01*
D27*
X200624Y8928D02*
D03*
X172081D02*
D03*
D28*
X176753Y20750D02*
D03*
X195847D02*
D03*
D29*
X73600Y33100D02*
D03*
X172300Y220106D02*
D03*
D30*
X63600Y33100D02*
D03*
X53600D02*
D03*
X5000Y106000D02*
D03*
Y116000D02*
D03*
Y126000D02*
D03*
Y136000D02*
D03*
X247000Y106000D02*
D03*
Y116000D02*
D03*
Y126000D02*
D03*
Y136000D02*
D03*
X202300Y220106D02*
D03*
X192300D02*
D03*
X182300D02*
D03*
D31*
X158700Y210000D02*
D03*
D32*
Y220000D02*
D03*
D33*
X5000Y146000D02*
D03*
X247000D02*
D03*
D34*
X236244Y98000D02*
D03*
Y88000D02*
D03*
X141756D02*
D03*
Y78000D02*
D03*
Y68000D02*
D03*
Y58000D02*
D03*
Y48000D02*
D03*
Y38000D02*
D03*
X236244Y78000D02*
D03*
Y68000D02*
D03*
Y58000D02*
D03*
Y48000D02*
D03*
Y38000D02*
D03*
Y28000D02*
D03*
X141756D02*
D03*
X236244Y224000D02*
D03*
Y214000D02*
D03*
X141756D02*
D03*
Y204000D02*
D03*
Y194000D02*
D03*
Y184000D02*
D03*
Y174000D02*
D03*
Y164000D02*
D03*
X236244Y204000D02*
D03*
Y194000D02*
D03*
Y184000D02*
D03*
Y174000D02*
D03*
Y164000D02*
D03*
Y154000D02*
D03*
X141756D02*
D03*
X110244Y224000D02*
D03*
Y214000D02*
D03*
X15756D02*
D03*
Y204000D02*
D03*
Y194000D02*
D03*
Y184000D02*
D03*
Y174000D02*
D03*
Y164000D02*
D03*
X110244Y204000D02*
D03*
Y194000D02*
D03*
Y184000D02*
D03*
Y174000D02*
D03*
Y164000D02*
D03*
Y154000D02*
D03*
X15756D02*
D03*
X110244Y98000D02*
D03*
Y88000D02*
D03*
X15756D02*
D03*
Y78000D02*
D03*
Y68000D02*
D03*
Y58000D02*
D03*
Y48000D02*
D03*
Y38000D02*
D03*
X110244Y78000D02*
D03*
Y68000D02*
D03*
Y58000D02*
D03*
Y48000D02*
D03*
Y38000D02*
D03*
Y28000D02*
D03*
X15756D02*
D03*
D35*
X141756Y98000D02*
D03*
Y224000D02*
D03*
X15756D02*
D03*
Y98000D02*
D03*
M02*
