M48
;Layer_Color=9474304
;FILE_FORMAT=2:5
INCH,LZ
;TYPE=PLATED
T1F00S00C0.01378
T2F00S00C0.02756
T4F00S00C0.03150
T5F00S00C0.03200
T6F00S00C0.03543
%
T01
X01895Y0015
X02022Y00313
X02072Y00547
X02041Y00646
Y00696
X02144Y00746
X02198Y00781
X02094Y00796
X02064Y00846
X02119Y00896
X01653Y00895
X01595Y00809
X01649Y00675
X01679Y00696
X01648Y00546
X01486Y00597
X01358Y0053
X01306Y0038
X01202Y00379
X01214Y00469
X01191Y00277
X01303Y0027
X01813Y00296
X01835Y0015
X01785
X01177Y00745
X00927Y00727
X00935Y00776
X009Y00794
X00868Y0082
X00797Y00808
X0065Y0082
X0059631Y00888
X00427Y00858
X0044Y00811
X00438Y00758
X00442Y00658
X00362Y00586
X00325Y00526
X00339Y00783
X00403Y00917
X00623Y00425
X00818Y00558
X00927Y00606
X00232Y00687
X00265Y00928
X00255Y0099
Y01124
X0017Y01163
X00207Y01205
X00233Y01649
X00209Y01682
X00261Y01679
X00306Y01643
X00347Y0166
X00379Y01631
X00448Y01715
X00427Y01765
X00289Y01788
X00654Y01774
X00657Y01816
X00627Y01739
X00598Y01712
X00806Y0170564
X00802Y01765
X00799Y01865
X00893Y01529
X00998
X0092Y01426
X00939Y01363
X00936Y01251
X00955Y01189
X01085Y01199
X01088Y01308
X0109Y01414
X01313
X01307Y01462
X01295Y01517
X01381Y01494
X01338Y01592
Y0169
X01301Y01882
X01217Y01925
X0169457Y0180043
X01765Y01745
X0181598Y0182602
X01752Y02045
X01751Y01494
X01817Y01465
X01694Y013615
X01595Y0154
X01562Y0164
X013545Y013615
X01315Y01312
X013385Y012615
X0139Y01217
X0136111Y0113747
X0129Y01138
X01321Y01172
X0138938Y0109285
X01433Y01068
X01415Y01035
X01217Y00955
X01188Y00922
X01045Y01002
X0102308Y0103241
X01032Y01073
X00807Y01114
X00867Y01314
X00807Y01413
X0065Y01362
X00619Y0131
X005995Y012615
X004365Y012115
Y013115
Y013615
X004305Y014115
X00427Y014615
X00403Y0112
X00448Y01097
X00376Y01059
X0034929Y0100871
X00326Y0094844
X00448Y00974
X00427Y02065
X01679Y00984
X02245Y00983
X02286Y00955
X02198Y00925
X02119Y01262
X020385Y012615
X02095Y013615
X02144Y01465
T02
X0195847Y002075
X0176753
T04
X0236244Y0028
Y0038
Y0048
Y0058
Y0068
Y0078
Y0088
X0141756
Y0078
Y0068
Y0058
Y0048
Y0038
Y0028
X0110244
Y0038
Y0048
Y0058
Y0068
Y0078
Y0088
X0015756
Y0078
Y0068
Y0058
Y0048
Y0038
Y0028
Y0098
Y0154
Y0164
Y0174
Y0184
Y0194
Y0204
Y0214
Y0224
X0110244
Y0214
Y0204
Y0194
Y0184
Y0174
Y0164
Y0154
X0141756
Y0164
Y0174
Y0184
Y0194
Y0204
Y0214
Y0224
Y0098
X0110244
X0236244
Y0154
Y0164
Y0174
Y0184
Y0194
Y0204
Y0214
Y0224
T05
X01587Y021
Y022
T06
X00536Y00331
X00636
X00736
X0005Y0106
Y0116
Y0126
Y0136
Y0146
X01723Y0220106
X01823
X01923
X02023
X0247Y0146
Y0136
Y0126
Y0116
Y0106
M30
